<svg width="336" height="190" viewBox="0 0 336 190" fill="none" xmlns="http://www.w3.org/2000/svg">
<g clip-path="url(#clip0_3998_20858)">
<g clip-path="url(#clip1_3998_20858)">
<path d="M325.5 20.0269C326.052 20.0269 326.5 19.5791 326.5 19.0269C326.5 18.4746 326.052 18.0269 325.5 18.0269V20.0269ZM273.333 95.5269C273.333 92.5813 270.946 90.1935 268 90.1935C265.054 90.1935 262.667 92.5813 262.667 95.5269C262.667 98.4724 265.054 100.86 268 100.86C270.946 100.86 273.333 98.4724 273.333 95.5269ZM284 20.0269C284.552 20.0269 285 19.5791 285 19.0269C285 18.4746 284.552 18.0269 284 18.0269V20.0269ZM322.536 18.0269C321.983 18.0269 321.536 18.4746 321.536 19.0269C321.536 19.5791 321.983 20.0269 322.536 20.0269V18.0269ZM316.607 20.0269C317.159 20.0269 317.607 19.5791 317.607 19.0269C317.607 18.4746 317.159 18.0269 316.607 18.0269V20.0269ZM310.679 18.0269C310.126 18.0269 309.679 18.4746 309.679 19.0269C309.679 19.5791 310.126 20.0269 310.679 20.0269V18.0269ZM304.75 20.0269C305.302 20.0269 305.75 19.5791 305.75 19.0269C305.75 18.4746 305.302 18.0269 304.75 18.0269V20.0269ZM298.821 18.0269C298.269 18.0269 297.821 18.4746 297.821 19.0269C297.821 19.5791 298.269 20.0269 298.821 20.0269V18.0269ZM292.893 20.0269C293.445 20.0269 293.893 19.5791 293.893 19.0269C293.893 18.4746 293.445 18.0269 292.893 18.0269V20.0269ZM286.964 18.0269C286.412 18.0269 285.964 18.4746 285.964 19.0269C285.964 19.5791 286.412 20.0269 286.964 20.0269V18.0269ZM280.683 18.3504C280.142 18.4576 279.789 18.9837 279.896 19.5255C280.004 20.0673 280.53 20.4196 281.071 20.3124L280.683 18.3504ZM275.666 22.5528C276.125 22.2455 276.248 21.6244 275.941 21.1655C275.634 20.7066 275.013 20.5836 274.554 20.8908L275.666 22.5528ZM269.864 25.5807C269.557 26.0396 269.68 26.6607 270.139 26.968C270.598 27.2752 271.219 27.1523 271.526 26.6933L269.864 25.5807ZM269.286 32.0983C269.393 31.5565 269.04 31.0305 268.499 30.9233C267.957 30.8161 267.431 31.1684 267.324 31.7102L269.286 32.0983ZM267 38.0519C267 38.6041 267.448 39.0519 268 39.0519C268.552 39.0519 269 38.6041 269 38.0519H267ZM269 44.1019C269 43.5496 268.552 43.1019 268 43.1019C267.448 43.1019 267 43.5496 267 44.1019H269ZM267 50.1519C267 50.7041 267.448 51.1519 268 51.1519C268.552 51.1519 269 50.7041 269 50.1519H267ZM269 56.2019C269 55.6496 268.552 55.2019 268 55.2019C267.448 55.2019 267 55.6496 267 56.2019H269ZM267 62.2519C267 62.8041 267.448 63.2519 268 63.2519C268.552 63.2519 269 62.8041 269 62.2519H267ZM269 68.3019C269 67.7496 268.552 67.3019 268 67.3019C267.448 67.3019 267 67.7496 267 68.3019H269ZM267 74.3519C267 74.9041 267.448 75.3519 268 75.3519C268.552 75.3519 269 74.9041 269 74.3519H267ZM269 80.4019C269 79.8496 268.552 79.4019 268 79.4019C267.448 79.4019 267 79.8496 267 80.4019H269ZM267 86.4519C267 87.0041 267.448 87.4519 268 87.4519C268.552 87.4519 269 87.0041 269 86.4519H267ZM269 92.5019C269 91.9496 268.552 91.5019 268 91.5019C267.448 91.5019 267 91.9496 267 92.5019H269ZM325.5 18.0269H322.536V20.0269H325.5V18.0269ZM316.607 18.0269H310.679V20.0269H316.607V18.0269ZM304.75 18.0269H298.821V20.0269H304.75V18.0269ZM292.893 18.0269H286.964V20.0269H292.893V18.0269ZM284 18.0269C282.866 18.0269 281.757 18.138 280.683 18.3504L281.071 20.3124C282.018 20.1252 282.997 20.0269 284 20.0269V18.0269ZM274.554 20.8908C272.7 22.1317 271.105 23.7272 269.864 25.5807L271.526 26.6933C272.621 25.0571 274.03 23.6482 275.666 22.5528L274.554 20.8908ZM267.324 31.7102C267.111 32.7837 267 33.8928 267 35.0269H269C269 34.0238 269.098 33.0447 269.286 32.0983L267.324 31.7102ZM267 35.0269V38.0519H269V35.0269H267ZM267 44.1019V50.1519H269V44.1019H267ZM267 56.2019V62.2519H269V56.2019H267ZM267 68.3019V74.3519H269V68.3019H267ZM267 80.4019V86.4519H269V80.4019H267ZM267 92.5019V95.5269H269V92.5019H267Z" fill="url(#paint0_linear_3998_20858)"/>
<path d="M169 108.527C169 107.975 168.552 107.527 168 107.527C167.448 107.527 167 107.975 167 108.527H169ZM169 150.027C169 149.475 168.552 149.027 168 149.027C167.448 149.027 167 149.475 167 150.027H169ZM167 111.491C167 112.043 167.448 112.491 168 112.491C168.552 112.491 169 112.043 169 111.491H167ZM169 117.42C169 116.867 168.552 116.42 168 116.42C167.448 116.42 167 116.867 167 117.42H169ZM167 123.348C167 123.901 167.448 124.348 168 124.348C168.552 124.348 169 123.901 169 123.348H167ZM169 129.277C169 128.725 168.552 128.277 168 128.277C167.448 128.277 167 128.725 167 129.277H169ZM167 135.205C167 135.758 167.448 136.205 168 136.205C168.552 136.205 169 135.758 169 135.205H167ZM169 141.134C169 140.582 168.552 140.134 168 140.134C167.448 140.134 167 140.582 167 141.134H169ZM167 147.063C167 147.615 167.448 148.063 168 148.063C168.552 148.063 169 147.615 169 147.063H167ZM167.324 153.344C167.431 153.885 167.957 154.238 168.499 154.13C169.04 154.023 169.393 153.497 169.286 152.955L167.324 153.344ZM171.526 158.36C171.219 157.901 170.598 157.778 170.139 158.086C169.68 158.393 169.557 159.014 169.864 159.473L171.526 158.36ZM174.554 164.163C175.013 164.47 175.634 164.347 175.941 163.888C176.248 163.429 176.125 162.808 175.666 162.501L174.554 164.163ZM181.071 164.741C180.53 164.634 180.004 164.986 179.896 165.528C179.789 166.07 180.142 166.596 180.683 166.703L181.071 164.741ZM187 167.027C187.552 167.027 188 166.579 188 166.027C188 165.475 187.552 165.027 187 165.027V167.027ZM193 165.027C192.448 165.027 192 165.475 192 166.027C192 166.579 192.448 167.027 193 167.027V165.027ZM199 167.027C199.552 167.027 200 166.579 200 166.027C200 165.475 199.552 165.027 199 165.027V167.027ZM205 165.027C204.448 165.027 204 165.475 204 166.027C204 166.579 204.448 167.027 205 167.027V165.027ZM211 167.027C211.552 167.027 212 166.579 212 166.027C212 165.475 211.552 165.027 211 165.027V167.027ZM217 165.027C216.448 165.027 216 165.475 216 166.027C216 166.579 216.448 167.027 217 167.027V165.027ZM223 167.027C223.552 167.027 224 166.579 224 166.027C224 165.475 223.552 165.027 223 165.027V167.027ZM229 165.027C228.448 165.027 228 165.475 228 166.027C228 166.579 228.448 167.027 229 167.027V165.027ZM235 167.027C235.552 167.027 236 166.579 236 166.027C236 165.475 235.552 165.027 235 165.027V167.027ZM241 165.027C240.448 165.027 240 165.475 240 166.027C240 166.579 240.448 167.027 241 167.027V165.027ZM247 167.027C247.552 167.027 248 166.579 248 166.027C248 165.475 247.552 165.027 247 165.027V167.027ZM253 165.027C252.448 165.027 252 165.475 252 166.027C252 166.579 252.448 167.027 253 167.027V165.027ZM259 167.027C259.552 167.027 260 166.579 260 166.027C260 165.475 259.552 165.027 259 165.027V167.027ZM265 165.027C264.448 165.027 264 165.475 264 166.027C264 166.579 264.448 167.027 265 167.027V165.027ZM271 167.027C271.552 167.027 272 166.579 272 166.027C272 165.475 271.552 165.027 271 165.027V167.027ZM277 165.027C276.448 165.027 276 165.475 276 166.027C276 166.579 276.448 167.027 277 167.027V165.027ZM283 167.027C283.552 167.027 284 166.579 284 166.027C284 165.475 283.552 165.027 283 165.027V167.027ZM289 165.027C288.448 165.027 288 165.475 288 166.027C288 166.579 288.448 167.027 289 167.027V165.027ZM295 167.027C295.552 167.027 296 166.579 296 166.027C296 165.475 295.552 165.027 295 165.027V167.027ZM301 165.027C300.448 165.027 300 165.475 300 166.027C300 166.579 300.448 167.027 301 167.027V165.027ZM307 167.027C307.552 167.027 308 166.579 308 166.027C308 165.475 307.552 165.027 307 165.027V167.027ZM313 165.027C312.448 165.027 312 165.475 312 166.027C312 166.579 312.448 167.027 313 167.027V165.027ZM319 167.027C319.552 167.027 320 166.579 320 166.027C320 165.475 319.552 165.027 319 165.027V167.027ZM325 165.027C324.448 165.027 324 165.475 324 166.027C324 166.579 324.448 167.027 325 167.027V165.027ZM331 167.027C331.552 167.027 332 166.579 332 166.027C332 165.475 331.552 165.027 331 165.027V167.027ZM337 165.027C336.448 165.027 336 165.475 336 166.027C336 166.579 336.448 167.027 337 167.027V165.027ZM343 167.027C343.552 167.027 344 166.579 344 166.027C344 165.475 343.552 165.027 343 165.027V167.027ZM349 165.027C348.448 165.027 348 165.475 348 166.027C348 166.579 348.448 167.027 349 167.027V165.027ZM355 167.027C355.552 167.027 356 166.579 356 166.027C356 165.475 355.552 165.027 355 165.027V167.027ZM167 108.527V111.491H169V108.527H167ZM167 117.42V123.348H169V117.42H167ZM167 129.277V135.205H169V129.277H167ZM167 141.134V147.063H169V141.134H167ZM167 150.027C167 151.161 167.111 152.27 167.324 153.344L169.286 152.955C169.098 152.009 169 151.03 169 150.027H167ZM169.864 159.473C171.105 161.326 172.7 162.922 174.554 164.163L175.666 162.501C174.03 161.406 172.621 159.997 171.526 158.36L169.864 159.473ZM180.683 166.703C181.757 166.916 182.866 167.027 184 167.027V165.027C182.997 165.027 182.018 164.929 181.071 164.741L180.683 166.703ZM184 167.027H187V165.027H184V167.027ZM193 167.027H199V165.027H193V167.027ZM205 167.027H211V165.027H205V167.027ZM217 167.027H223V165.027H217V167.027ZM229 167.027H235V165.027H229V167.027ZM241 167.027H247V165.027H241V167.027ZM253 167.027H259V165.027H253V167.027ZM265 167.027H271V165.027H265V167.027ZM277 167.027H283V165.027H277V167.027ZM289 167.027H295V165.027H289V167.027ZM301 167.027H307V165.027H301V167.027ZM313 167.027H319V165.027H313V167.027ZM325 167.027H331V165.027H325V167.027ZM337 167.027H343V165.027H337V167.027ZM349 167.027H355V165.027H349V167.027Z" fill="url(#paint1_linear_3998_20858)"/>
<path d="M178 100.86C180.946 100.86 183.333 98.4724 183.333 95.5269C183.333 92.5813 180.946 90.1935 178 90.1935C175.054 90.1935 172.667 92.5813 172.667 95.5269C172.667 98.4724 175.054 100.86 178 100.86ZM181 96.5269C181.552 96.5269 182 96.0791 182 95.5269C182 94.9746 181.552 94.5269 181 94.5269V96.5269ZM187 94.5269C186.448 94.5269 186 94.9746 186 95.5269C186 96.0791 186.448 96.5269 187 96.5269V94.5269ZM193 96.5269C193.552 96.5269 194 96.0791 194 95.5269C194 94.9746 193.552 94.5269 193 94.5269V96.5269ZM199 94.5269C198.448 94.5269 198 94.9746 198 95.5269C198 96.0791 198.448 96.5269 199 96.5269V94.5269ZM205 96.5269C205.552 96.5269 206 96.0791 206 95.5269C206 94.9746 205.552 94.5269 205 94.5269V96.5269ZM211 94.5269C210.448 94.5269 210 94.9746 210 95.5269C210 96.0791 210.448 96.5269 211 96.5269V94.5269ZM217 96.5269C217.552 96.5269 218 96.0791 218 95.5269C218 94.9746 217.552 94.5269 217 94.5269V96.5269ZM223 94.5269C222.448 94.5269 222 94.9746 222 95.5269C222 96.0791 222.448 96.5269 223 96.5269V94.5269ZM229 96.5269C229.552 96.5269 230 96.0791 230 95.5269C230 94.9746 229.552 94.5269 229 94.5269V96.5269ZM235 94.5269C234.448 94.5269 234 94.9746 234 95.5269C234 96.0791 234.448 96.5269 235 96.5269V94.5269ZM241 96.5269C241.552 96.5269 242 96.0791 242 95.5269C242 94.9746 241.552 94.5269 241 94.5269V96.5269ZM247 94.5269C246.448 94.5269 246 94.9746 246 95.5269C246 96.0791 246.448 96.5269 247 96.5269V94.5269ZM253 96.5269C253.552 96.5269 254 96.0791 254 95.5269C254 94.9746 253.552 94.5269 253 94.5269V96.5269ZM259 94.5269C258.448 94.5269 258 94.9746 258 95.5269C258 96.0791 258.448 96.5269 259 96.5269V94.5269ZM265 96.5269C265.552 96.5269 266 96.0791 266 95.5269C266 94.9746 265.552 94.5269 265 94.5269V96.5269ZM271 94.5269C270.448 94.5269 270 94.9746 270 95.5269C270 96.0791 270.448 96.5269 271 96.5269V94.5269ZM277 96.5269C277.552 96.5269 278 96.0791 278 95.5269C278 94.9746 277.552 94.5269 277 94.5269V96.5269ZM283 94.5269C282.448 94.5269 282 94.9746 282 95.5269C282 96.0791 282.448 96.5269 283 96.5269V94.5269ZM289 96.5269C289.552 96.5269 290 96.0791 290 95.5269C290 94.9746 289.552 94.5269 289 94.5269V96.5269ZM295 94.5269C294.448 94.5269 294 94.9746 294 95.5269C294 96.0791 294.448 96.5269 295 96.5269V94.5269ZM301 96.5269C301.552 96.5269 302 96.0791 302 95.5269C302 94.9746 301.552 94.5269 301 94.5269V96.5269ZM307 94.5269C306.448 94.5269 306 94.9746 306 95.5269C306 96.0791 306.448 96.5269 307 96.5269V94.5269ZM313 96.5269C313.552 96.5269 314 96.0791 314 95.5269C314 94.9746 313.552 94.5269 313 94.5269V96.5269ZM319 94.5269C318.448 94.5269 318 94.9746 318 95.5269C318 96.0791 318.448 96.5269 319 96.5269V94.5269ZM325 96.5269C325.552 96.5269 326 96.0791 326 95.5269C326 94.9746 325.552 94.5269 325 94.5269V96.5269ZM331 94.5269C330.448 94.5269 330 94.9746 330 95.5269C330 96.0791 330.448 96.5269 331 96.5269V94.5269ZM337 96.5269C337.552 96.5269 338 96.0791 338 95.5269C338 94.9746 337.552 94.5269 337 94.5269V96.5269ZM343 94.5269C342.448 94.5269 342 94.9746 342 95.5269C342 96.0791 342.448 96.5269 343 96.5269V94.5269ZM349 96.5269C349.552 96.5269 350 96.0791 350 95.5269C350 94.9746 349.552 94.5269 349 94.5269V96.5269ZM355 94.5269C354.448 94.5269 354 94.9746 354 95.5269C354 96.0791 354.448 96.5269 355 96.5269V94.5269ZM361 96.5269C361.552 96.5269 362 96.0791 362 95.5269C362 94.9746 361.552 94.5269 361 94.5269V96.5269ZM367 94.5269C366.448 94.5269 366 94.9746 366 95.5269C366 96.0791 366.448 96.5269 367 96.5269V94.5269ZM373 96.5269C373.552 96.5269 374 96.0791 374 95.5269C374 94.9746 373.552 94.5269 373 94.5269V96.5269ZM379 94.5269C378.448 94.5269 378 94.9746 378 95.5269C378 96.0791 378.448 96.5269 379 96.5269V94.5269ZM385 96.5269C385.552 96.5269 386 96.0791 386 95.5269C386 94.9746 385.552 94.5269 385 94.5269V96.5269ZM391 94.5269C390.448 94.5269 390 94.9746 390 95.5269C390 96.0791 390.448 96.5269 391 96.5269V94.5269ZM397 96.5269C397.552 96.5269 398 96.0791 398 95.5269C398 94.9746 397.552 94.5269 397 94.5269V96.5269ZM403 94.5269C402.448 94.5269 402 94.9746 402 95.5269C402 96.0791 402.448 96.5269 403 96.5269V94.5269ZM409 96.5269C409.552 96.5269 410 96.0791 410 95.5269C410 94.9746 409.552 94.5269 409 94.5269V96.5269ZM178 96.5269H181V94.5269H178V96.5269ZM187 96.5269H193V94.5269H187V96.5269ZM199 96.5269H205V94.5269H199V96.5269ZM211 96.5269H217V94.5269H211V96.5269ZM223 96.5269H229V94.5269H223V96.5269ZM235 96.5269H241V94.5269H235V96.5269ZM247 96.5269H253V94.5269H247V96.5269ZM259 96.5269L265 96.5269V94.5269L259 94.5269V96.5269ZM271 96.5269H277V94.5269H271V96.5269ZM283 96.5269H289V94.5269H283V96.5269ZM295 96.5269H301V94.5269H295V96.5269ZM307 96.5269H313V94.5269H307V96.5269ZM319 96.5269H325V94.5269H319V96.5269ZM331 96.5269H337V94.5269H331V96.5269ZM343 96.5269H349V94.5269H343V96.5269ZM355 96.5269H361V94.5269H355V96.5269ZM367 96.5269L373 96.5269V94.5269L367 94.5269V96.5269ZM379 96.5269H385V94.5269H379V96.5269ZM391 96.5269H397V94.5269H391V96.5269ZM403 96.5269H409V94.5269H403V96.5269Z" fill="#E5E5E5"/>
<g clip-path="url(#clip2_3998_20858)">
<rect x="143.082" y="69.8184" width="50.1769" height="50.1769" rx="25.0885" fill="url(#paint2_linear_3998_20858)"/>
<g filter="url(#filter0_dd_3998_20858)">
<path d="M168.703 108.072C166.304 108.072 164.208 107.503 162.417 106.367C160.638 105.23 159.255 103.675 158.267 101.7C157.28 99.7252 156.786 97.4749 156.786 94.9491C156.786 92.4234 157.274 90.2305 158.25 88.3706C159.226 86.4992 160.604 85.0527 162.383 84.0309C164.174 82.9976 166.281 82.481 168.703 82.481C170.678 82.481 172.446 82.8713 174.007 83.652C175.569 84.4212 176.832 85.4947 177.796 86.8724C178.76 88.2386 179.334 89.8172 179.518 91.6082H174.658C173.429 91.6082 172.462 90.6592 171.82 89.6106C171.476 89.048 171.022 88.6175 170.46 88.319C169.909 88.009 169.249 87.854 168.479 87.854C167.641 87.854 166.895 88.0721 166.241 88.5084C165.586 88.9447 165.07 89.6909 164.691 90.7472C164.323 91.7919 164.14 93.227 164.14 95.0525C164.14 97.8193 164.547 99.7883 165.362 100.959C166.177 102.119 167.216 102.699 168.479 102.699C169.249 102.699 169.909 102.504 170.46 102.113C171.022 101.723 171.476 101.206 171.82 100.563C172.427 99.4104 173.483 98.4278 174.785 98.4278H179.518C179.346 99.7137 179.053 100.936 178.64 102.096C178.238 103.256 177.635 104.289 176.832 105.196C176.039 106.091 174.983 106.797 173.663 107.314C172.343 107.819 170.689 108.072 168.703 108.072Z" fill="url(#paint3_linear_3998_20858)"/>
<path d="M168.703 108.072C166.304 108.072 164.208 107.503 162.417 106.367C160.638 105.23 159.255 103.675 158.267 101.7C157.28 99.7252 156.786 97.4749 156.786 94.9491C156.786 92.4234 157.274 90.2305 158.25 88.3706C159.226 86.4992 160.604 85.0527 162.383 84.0309C164.174 82.9976 166.281 82.481 168.703 82.481C170.678 82.481 172.446 82.8713 174.007 83.652C175.569 84.4212 176.832 85.4947 177.796 86.8724C178.76 88.2386 179.334 89.8172 179.518 91.6082H174.658C173.429 91.6082 172.462 90.6592 171.82 89.6106C171.476 89.048 171.022 88.6175 170.46 88.319C169.909 88.009 169.249 87.854 168.479 87.854C167.641 87.854 166.895 88.0721 166.241 88.5084C165.586 88.9447 165.07 89.6909 164.691 90.7472C164.323 91.7919 164.14 93.227 164.14 95.0525C164.14 97.8193 164.547 99.7883 165.362 100.959C166.177 102.119 167.216 102.699 168.479 102.699C169.249 102.699 169.909 102.504 170.46 102.113C171.022 101.723 171.476 101.206 171.82 100.563C172.427 99.4104 173.483 98.4278 174.785 98.4278H179.518C179.346 99.7137 179.053 100.936 178.64 102.096C178.238 103.256 177.635 104.289 176.832 105.196C176.039 106.091 174.983 106.797 173.663 107.314C172.343 107.819 170.689 108.072 168.703 108.072Z" fill="url(#paint4_linear_3998_20858)"/>
</g>
</g>
<path d="M269 96.0269C269 95.4746 268.552 95.0269 268 95.0269C267.448 95.0269 267 95.4746 267 96.0269H269ZM273.333 203.527C273.333 200.581 270.946 198.194 268 198.194C265.054 198.194 262.667 200.581 262.667 203.527C262.667 206.472 265.054 208.86 268 208.86C270.946 208.86 273.333 206.472 273.333 203.527ZM269 200.541C269 199.988 268.552 199.541 268 199.541C267.448 199.541 267 199.988 267 200.541H269ZM267 194.569C267 195.121 267.448 195.569 268 195.569C268.552 195.569 269 195.121 269 194.569H267ZM269 188.596C269 188.044 268.552 187.596 268 187.596C267.448 187.596 267 188.044 267 188.596H269ZM267 182.624C267 183.176 267.448 183.624 268 183.624C268.552 183.624 269 183.176 269 182.624H267ZM269 176.652C269 176.1 268.552 175.652 268 175.652C267.448 175.652 267 176.1 267 176.652H269ZM267 170.68C267 171.232 267.448 171.68 268 171.68C268.552 171.68 269 171.232 269 170.68H267ZM269 164.707C269 164.155 268.552 163.707 268 163.707C267.448 163.707 267 164.155 267 164.707H269ZM267 158.735C267 159.287 267.448 159.735 268 159.735C268.552 159.735 269 159.287 269 158.735H267ZM269 152.763C269 152.211 268.552 151.763 268 151.763C267.448 151.763 267 152.211 267 152.763H269ZM267 146.791C267 147.343 267.448 147.791 268 147.791C268.552 147.791 269 147.343 269 146.791H267ZM269 140.819C269 140.266 268.552 139.819 268 139.819C267.448 139.819 267 140.266 267 140.819H269ZM267 134.846C267 135.399 267.448 135.846 268 135.846C268.552 135.846 269 135.399 269 134.846H267ZM269 128.874C269 128.322 268.552 127.874 268 127.874C267.448 127.874 267 128.322 267 128.874H269ZM267 122.902C267 123.454 267.448 123.902 268 123.902C268.552 123.902 269 123.454 269 122.902H267ZM269 116.93C269 116.377 268.552 115.93 268 115.93C267.448 115.93 267 116.377 267 116.93H269ZM267 110.957C267 111.51 267.448 111.957 268 111.957C268.552 111.957 269 111.51 269 110.957H267ZM269 104.985C269 104.433 268.552 103.985 268 103.985C267.448 103.985 267 104.433 267 104.985H269ZM267 99.013C267 99.5653 267.448 100.013 268 100.013C268.552 100.013 269 99.5653 269 99.013H267ZM269 203.527V200.541H267V203.527H269ZM269 194.569V188.596H267V194.569H269ZM269 182.624V176.652H267V182.624H269ZM269 170.68V164.707H267V170.68H269ZM269 158.735V152.763H267V158.735H269ZM269 146.791V140.819H267V146.791H269ZM269 134.846V128.874H267V134.846H269ZM269 122.902V116.93H267V122.902H269ZM269 110.957V104.985H267V110.957H269ZM269 99.013V96.0269H267V99.013H269Z" fill="#E5E5E5"/>
<path d="M116.333 208.027C116.333 205.081 113.946 202.694 111 202.694C108.054 202.694 105.667 205.081 105.667 208.027C105.667 210.972 108.054 213.36 111 213.36C113.946 213.36 116.333 210.972 116.333 208.027ZM112 204.997C112 204.445 111.552 203.997 111 203.997C110.448 203.997 110 204.445 110 204.997H112ZM110 198.937C110 199.489 110.448 199.937 111 199.937C111.552 199.937 112 199.489 112 198.937H110ZM112 192.877C112 192.325 111.552 191.877 111 191.877C110.448 191.877 110 192.325 110 192.877H112ZM110 186.817C110 187.369 110.448 187.817 111 187.817C111.552 187.817 112 187.369 112 186.817H110ZM112 180.757C112 180.205 111.552 179.757 111 179.757C110.448 179.757 110 180.205 110 180.757H112ZM110 174.697C110 175.249 110.448 175.697 111 175.697C111.552 175.697 112 175.249 112 174.697H110ZM112 168.637C112 168.085 111.552 167.637 111 167.637C110.448 167.637 110 168.085 110 168.637H112ZM110 162.577C110 163.129 110.448 163.577 111 163.577C111.552 163.577 112 163.129 112 162.577H110ZM112 156.517C112 155.965 111.552 155.517 111 155.517C110.448 155.517 110 155.965 110 156.517H112ZM110 150.457C110 151.009 110.448 151.457 111 151.457C111.552 151.457 112 151.009 112 150.457H110ZM112 144.397C112 143.845 111.552 143.397 111 143.397C110.448 143.397 110 143.845 110 144.397H112ZM110 138.337C110 138.889 110.448 139.337 111 139.337C111.552 139.337 112 138.889 112 138.337H110ZM112 132.277C112 131.725 111.552 131.277 111 131.277C110.448 131.277 110 131.725 110 132.277H112ZM110 126.217C110 126.769 110.448 127.217 111 127.217C111.552 127.217 112 126.769 112 126.217H110ZM112 120.157C112 119.605 111.552 119.157 111 119.157C110.448 119.157 110 119.605 110 120.157H112ZM110 114.097C110 114.649 110.448 115.097 111 115.097C111.552 115.097 112 114.649 112 114.097H110ZM112 108.037C112 107.485 111.552 107.037 111 107.037C110.448 107.037 110 107.485 110 108.037H112ZM110 101.977C110 102.529 110.448 102.977 111 102.977C111.552 102.977 112 102.529 112 101.977H110ZM112 95.9169C112 95.3646 111.552 94.9169 111 94.9169C110.448 94.9169 110 95.3646 110 95.9169H112ZM110 89.8569C110 90.4092 110.448 90.8569 111 90.8569C111.552 90.8569 112 90.4092 112 89.8569H110ZM112 83.7969C112 83.2446 111.552 82.7969 111 82.7969C110.448 82.7969 110 83.2446 110 83.7969H112ZM110 77.7369C110 78.2892 110.448 78.7369 111 78.7369C111.552 78.7369 112 78.2892 112 77.7369H110ZM112 71.6769C112 71.1246 111.552 70.6769 111 70.6769C110.448 70.6769 110 71.1246 110 71.6769H112ZM110 65.6169C110 66.1692 110.448 66.6169 111 66.6169C111.552 66.6169 112 66.1692 112 65.6169H110ZM112 59.5569C112 59.0046 111.552 58.5569 111 58.5569C110.448 58.5569 110 59.0046 110 59.5569H112ZM112 208.027V204.997H110V208.027H112ZM112 198.937V192.877H110V198.937H112ZM112 186.817V180.757H110V186.817H112ZM112 174.697V168.637H110V174.697H112ZM112 162.577V156.517H110V162.577H112ZM112 150.457V144.397H110V150.457H112ZM112 138.337V132.277H110V138.337H112ZM112 126.217V120.157H110V126.217H112ZM112 114.097V108.037H110V114.097H112ZM112 101.977V95.9169H110V101.977H112ZM112 89.8569V83.7969H110V89.8569H112ZM112 77.7369V71.6769H110V77.7369H112ZM112 65.6169V59.5569H110V65.6169H112Z" fill="url(#paint5_linear_3998_20858)"/>
<path d="M110 51.0269C110 51.5791 110.448 52.0269 111 52.0269C111.552 52.0269 112 51.5791 112 51.0269H110ZM105.667 -6.47314C105.667 -3.52763 108.054 -1.13981 111 -1.13981C113.946 -1.13981 116.333 -3.52763 116.333 -6.47314C116.333 -9.41866 113.946 -11.8065 111 -11.8065C108.054 -11.8065 105.667 -9.41866 105.667 -6.47314ZM110 -3.59814C110 -3.04586 110.448 -2.59814 111 -2.59814C111.552 -2.59814 112 -3.04586 112 -3.59814H110ZM112 2.15186C112 1.59957 111.552 1.15186 111 1.15186C110.448 1.15186 110 1.59957 110 2.15186H112ZM110 7.90186C110 8.45414 110.448 8.90186 111 8.90186C111.552 8.90186 112 8.45414 112 7.90186H110ZM112 13.6519C112 13.0996 111.552 12.6519 111 12.6519C110.448 12.6519 110 13.0996 110 13.6519H112ZM110 19.4019C110 19.9541 110.448 20.4019 111 20.4019C111.552 20.4019 112 19.9541 112 19.4019H110ZM112 25.1519C112 24.5996 111.552 24.1519 111 24.1519C110.448 24.1519 110 24.5996 110 25.1519H112ZM110 30.9019C110 31.4541 110.448 31.9019 111 31.9019C111.552 31.9019 112 31.4541 112 30.9019H110ZM112 36.6519C112 36.0996 111.552 35.6519 111 35.6519C110.448 35.6519 110 36.0996 110 36.6519H112ZM110 42.4019C110 42.9541 110.448 43.4019 111 43.4019C111.552 43.4019 112 42.9541 112 42.4019H110ZM112 48.1519C112 47.5996 111.552 47.1519 111 47.1519C110.448 47.1519 110 47.5996 110 48.1519H112ZM110 -6.47314V-3.59814H112V-6.47314H110ZM110 2.15186V7.90186H112V2.15186H110ZM110 13.6519V19.4019H112V13.6519H110ZM110 25.1519V30.9019H112V25.1519H110ZM110 36.6519V42.4019H112V36.6519H110ZM110 48.1519V51.0269H112V48.1519H110Z" fill="url(#paint6_linear_3998_20858)"/>
<path d="M-8 100.86C-5.05448 100.86 -2.66667 98.4724 -2.66667 95.5269C-2.66667 92.5813 -5.05448 90.1935 -8 90.1935C-10.9455 90.1935 -13.3333 92.5813 -13.3333 95.5269C-13.3333 98.4724 -10.9455 100.86 -8 100.86ZM-4.97 96.5269C-4.41772 96.5269 -3.97 96.0791 -3.97 95.5269C-3.97 94.9746 -4.41772 94.5269 -4.97 94.5269V96.5269ZM1.09 94.5269C0.537716 94.5269 0.0900002 94.9746 0.0900002 95.5269C0.0900002 96.0791 0.537716 96.5269 1.09 96.5269V94.5269ZM7.15 96.5269C7.70228 96.5269 8.15 96.0791 8.15 95.5269C8.15 94.9746 7.70228 94.5269 7.15 94.5269V96.5269ZM13.21 94.5269C12.6577 94.5269 12.21 94.9746 12.21 95.5269C12.21 96.0791 12.6577 96.5269 13.21 96.5269V94.5269ZM19.27 96.5269C19.8223 96.5269 20.27 96.0791 20.27 95.5269C20.27 94.9746 19.8223 94.5269 19.27 94.5269V96.5269ZM25.33 94.5269C24.7777 94.5269 24.33 94.9746 24.33 95.5269C24.33 96.0791 24.7777 96.5269 25.33 96.5269V94.5269ZM31.39 96.5269C31.9423 96.5269 32.39 96.0791 32.39 95.5269C32.39 94.9746 31.9423 94.5269 31.39 94.5269V96.5269ZM37.45 94.5269C36.8977 94.5269 36.45 94.9746 36.45 95.5269C36.45 96.0791 36.8977 96.5269 37.45 96.5269V94.5269ZM43.51 96.5269C44.0623 96.5269 44.51 96.0791 44.51 95.5269C44.51 94.9746 44.0623 94.5269 43.51 94.5269V96.5269ZM49.57 94.5269C49.0177 94.5269 48.57 94.9746 48.57 95.5269C48.57 96.0791 49.0177 96.5269 49.57 96.5269V94.5269ZM55.63 96.5269C56.1823 96.5269 56.63 96.0791 56.63 95.5269C56.63 94.9746 56.1823 94.5269 55.63 94.5269V96.5269ZM61.69 94.5269C61.1377 94.5269 60.69 94.9746 60.69 95.5269C60.69 96.0791 61.1377 96.5269 61.69 96.5269V94.5269ZM67.75 96.5269C68.3023 96.5269 68.75 96.0791 68.75 95.5269C68.75 94.9746 68.3023 94.5269 67.75 94.5269V96.5269ZM73.81 94.5269C73.2577 94.5269 72.81 94.9746 72.81 95.5269C72.81 96.0791 73.2577 96.5269 73.81 96.5269V94.5269ZM79.87 96.5269C80.4223 96.5269 80.87 96.0791 80.87 95.5269C80.87 94.9746 80.4223 94.5269 79.87 94.5269V96.5269ZM85.93 94.5269C85.3777 94.5269 84.93 94.9746 84.93 95.5269C84.93 96.0791 85.3777 96.5269 85.93 96.5269V94.5269ZM91.99 96.5269C92.5423 96.5269 92.99 96.0791 92.99 95.5269C92.99 94.9746 92.5423 94.5269 91.99 94.5269V96.5269ZM98.05 94.5269C97.4977 94.5269 97.05 94.9746 97.05 95.5269C97.05 96.0791 97.4977 96.5269 98.05 96.5269V94.5269ZM104.11 96.5269C104.662 96.5269 105.11 96.0791 105.11 95.5269C105.11 94.9746 104.662 94.5269 104.11 94.5269V96.5269ZM110.17 94.5269C109.618 94.5269 109.17 94.9746 109.17 95.5269C109.17 96.0791 109.618 96.5269 110.17 96.5269V94.5269ZM116.23 96.5269C116.782 96.5269 117.23 96.0791 117.23 95.5269C117.23 94.9746 116.782 94.5269 116.23 94.5269V96.5269ZM122.29 94.5269C121.738 94.5269 121.29 94.9746 121.29 95.5269C121.29 96.0791 121.738 96.5269 122.29 96.5269V94.5269ZM128.35 96.5269C128.902 96.5269 129.35 96.0791 129.35 95.5269C129.35 94.9746 128.902 94.5269 128.35 94.5269V96.5269ZM134.41 94.5269C133.858 94.5269 133.41 94.9746 133.41 95.5269C133.41 96.0791 133.858 96.5269 134.41 96.5269V94.5269ZM140.47 96.5269C141.022 96.5269 141.47 96.0791 141.47 95.5269C141.47 94.9746 141.022 94.5269 140.47 94.5269V96.5269ZM-8 96.5269H-4.97V94.5269H-8V96.5269ZM1.09 96.5269H7.15V94.5269H1.09V96.5269ZM13.21 96.5269H19.27V94.5269H13.21V96.5269ZM25.33 96.5269H31.39V94.5269H25.33V96.5269ZM37.45 96.5269H43.51V94.5269H37.45V96.5269ZM49.57 96.5269H55.63V94.5269H49.57V96.5269ZM61.69 96.5269H67.75V94.5269H61.69V96.5269ZM73.81 96.5269H79.87V94.5269H73.81V96.5269ZM85.93 96.5269H91.99V94.5269H85.93V96.5269ZM98.05 96.5269H104.11V94.5269H98.05V96.5269ZM110.17 96.5269H116.23V94.5269H110.17V96.5269ZM122.29 96.5269H128.35V94.5269H122.29V96.5269ZM134.41 96.5269H140.47V94.5269H134.41V96.5269Z" fill="url(#paint7_linear_3998_20858)"/>
<rect x="-1" y="1" width="10" height="10" rx="5" transform="matrix(-1 0 0 1 272 89.5269)" fill="white" stroke="#FF6900" stroke-width="2"/>
<rect x="-1" y="1" width="10" height="10" rx="5" transform="matrix(-1 0 0 1 272 158.527)" fill="white" stroke="#FF6900" stroke-width="2"/>
<path d="M111 55.8602C108.054 55.8602 105.667 53.4724 105.667 50.5269C105.667 47.5813 108.054 45.1935 111 45.1935C113.946 45.1935 116.333 47.5813 116.333 50.5269C116.333 53.4724 113.946 55.8602 111 55.8602ZM108.042 51.5269C107.489 51.5269 107.042 51.0791 107.042 50.5269C107.042 49.9746 107.489 49.5269 108.042 49.5269V51.5269ZM102.125 49.5269C102.677 49.5269 103.125 49.9746 103.125 50.5269C103.125 51.0791 102.677 51.5269 102.125 51.5269V49.5269ZM96.2083 51.5269C95.656 51.5269 95.2083 51.0791 95.2083 50.5269C95.2083 49.9746 95.656 49.5269 96.2083 49.5269V51.5269ZM90.2917 49.5269C90.844 49.5269 91.2917 49.9746 91.2917 50.5269C91.2917 51.0791 90.844 51.5269 90.2917 51.5269V49.5269ZM84.375 51.5269C83.8227 51.5269 83.375 51.0791 83.375 50.5269C83.375 49.9746 83.8227 49.5269 84.375 49.5269V51.5269ZM78.4583 49.5269C79.0106 49.5269 79.4583 49.9746 79.4583 50.5269C79.4583 51.0791 79.0106 51.5269 78.4583 51.5269V49.5269ZM72.5417 51.5269C71.9894 51.5269 71.5417 51.0791 71.5417 50.5269C71.5417 49.9746 71.9894 49.5269 72.5417 49.5269V51.5269ZM66.625 49.5269C67.1773 49.5269 67.625 49.9746 67.625 50.5269C67.625 51.0791 67.1773 51.5269 66.625 51.5269V49.5269ZM60.7083 51.5269C60.156 51.5269 59.7083 51.0791 59.7083 50.5269C59.7083 49.9746 60.156 49.5269 60.7083 49.5269V51.5269ZM54.7917 49.5269C55.3439 49.5269 55.7917 49.9746 55.7917 50.5269C55.7917 51.0791 55.3439 51.5269 54.7917 51.5269V49.5269ZM48.875 51.5269C48.3227 51.5269 47.875 51.0791 47.875 50.5269C47.875 49.9746 48.3227 49.5269 48.875 49.5269V51.5269ZM42.9583 49.5269C43.5106 49.5269 43.9583 49.9746 43.9583 50.5269C43.9583 51.0791 43.5106 51.5269 42.9583 51.5269V49.5269ZM36.6833 51.2033C36.1416 51.0961 35.7892 50.57 35.8964 50.0282C36.0036 49.4865 36.5297 49.1341 37.0715 49.2413L36.6833 51.2033ZM31.6665 47.0009C32.1254 47.3082 32.2484 47.9293 31.9411 48.3882C31.6339 48.8472 31.0128 48.9701 30.5538 48.6629L31.6665 47.0009ZM25.864 43.973C25.5567 43.5141 25.6797 42.893 26.1386 42.5857C26.5976 42.2785 27.2187 42.4015 27.5259 42.8604L25.864 43.973ZM25.2855 37.4554C25.3927 37.9972 25.0404 38.5233 24.4986 38.6304C23.9568 38.7376 23.4307 38.3853 23.3236 37.8435L25.2855 37.4554ZM23 31.5921C23 31.0398 23.4477 30.5921 24 30.5921C24.5523 30.5921 25 31.0398 25 31.5921H23ZM25 25.7225C25 26.2748 24.5523 26.7225 24 26.7225C23.4477 26.7225 23 26.2748 23 25.7225H25ZM23 19.8529C23 19.3007 23.4477 18.8529 24 18.8529C24.5523 18.8529 25 19.3007 25 19.8529H23ZM25 13.9834C25 14.5357 24.5523 14.9834 24 14.9834C23.4477 14.9834 23 14.5357 23 13.9834H25ZM23 8.11382C23 7.56153 23.4477 7.11382 24 7.11382C24.5523 7.11382 25 7.56153 25 8.11382H23ZM25 2.24425C25 2.79654 24.5523 3.24425 24 3.24425C23.4477 3.24425 23 2.79654 23 2.24425H25ZM23 -3.62532C23 -4.1776 23.4477 -4.62532 24 -4.62532C24.5523 -4.62532 25 -4.1776 25 -3.62532H23ZM25 -9.49488C25 -8.9426 24.5523 -8.49488 24 -8.49488C23.4477 -8.49488 23 -8.9426 23 -9.49488H25ZM23 -15.3644C23 -15.9167 23.4477 -16.3644 24 -16.3644C24.5523 -16.3644 25 -15.9167 25 -15.3644H23ZM25 -21.234C25 -20.6817 24.5523 -20.234 24 -20.234C23.4477 -20.234 23 -20.6817 23 -21.234H25ZM23 -27.1036C23 -27.6559 23.4477 -28.1036 24 -28.1036C24.5523 -28.1036 25 -27.6559 25 -27.1036H23ZM25 -32.9731C25 -32.4209 24.5523 -31.9731 24 -31.9731C23.4477 -31.9731 23 -32.4209 23 -32.9731H25ZM23 -38.8427C23 -39.395 23.4477 -39.8427 24 -39.8427C24.5523 -39.8427 25 -39.395 25 -38.8427H23ZM25 -44.7123C25 -44.16 24.5523 -43.7123 24 -43.7123C23.4477 -43.7123 23 -44.16 23 -44.7123H25ZM23 -50.5818C23 -51.1341 23.4477 -51.5818 24 -51.5818C24.5523 -51.5818 25 -51.1341 25 -50.5818H23ZM25 -56.4514C25 -55.8991 24.5523 -55.4514 24 -55.4514C23.4477 -55.4514 23 -55.8991 23 -56.4514H25ZM23 -62.321C23 -62.8733 23.4477 -63.321 24 -63.321C24.5523 -63.321 25 -62.8733 25 -62.321H23ZM25 -68.1905C25 -67.6383 24.5523 -67.1905 24 -67.1905C23.4477 -67.1905 23 -67.6383 23 -68.1905H25ZM23 -74.0601C23 -74.6124 23.4477 -75.0601 24 -75.0601C24.5523 -75.0601 25 -74.6124 25 -74.0601H23ZM25 -79.9297C25 -79.3774 24.5523 -78.9297 24 -78.9297C23.4477 -78.9297 23 -79.3774 23 -79.9297H25ZM23 -85.7993C23 -86.3515 23.4477 -86.7993 24 -86.7993C24.5523 -86.7993 25 -86.3515 25 -85.7993H23ZM25 -91.6688C25 -91.1165 24.5523 -90.6688 24 -90.6688C23.4477 -90.6688 23 -91.1165 23 -91.6688H25ZM23 -97.5384C23 -98.0907 23.4477 -98.5384 24 -98.5384C24.5523 -98.5384 25 -98.0907 25 -97.5384H23ZM111 51.5269H108.042V49.5269H111V51.5269ZM102.125 51.5269L96.2083 51.5269V49.5269L102.125 49.5269V51.5269ZM90.2917 51.5269H84.375V49.5269H90.2917V51.5269ZM78.4583 51.5269H72.5417V49.5269H78.4583V51.5269ZM66.625 51.5269H60.7083V49.5269H66.625V51.5269ZM54.7917 51.5269H48.875V49.5269H54.7917V51.5269ZM42.9583 51.5269L40 51.5269V49.5269L42.9583 49.5269V51.5269ZM40 51.5269C38.8659 51.5269 37.7568 51.4157 36.6833 51.2033L37.0715 49.2413C38.0178 49.4285 38.9969 49.5269 40 49.5269V51.5269ZM30.5538 48.6629C28.7004 47.422 27.1048 45.8265 25.864 43.973L27.5259 42.8604C28.6213 44.4966 30.0303 45.9055 31.6665 47.0009L30.5538 48.6629ZM23.3236 37.8435C23.1112 36.77 23 35.6609 23 34.5269H25C25 35.5299 25.0983 36.509 25.2855 37.4554L23.3236 37.8435ZM23 34.5269V31.5921H25V34.5269H23ZM23 25.7225L23 19.8529H25L25 25.7225H23ZM23 13.9834V8.11382H25V13.9834H23ZM23 2.24425V-3.62532H25V2.24425H23ZM23 -9.49488V-15.3644H25V-9.49488H23ZM23 -21.234V-27.1036H25V-21.234H23ZM23 -32.9731L23 -38.8427H25L25 -32.9731H23ZM23 -44.7123V-50.5818H25V-44.7123H23ZM23 -56.4514V-62.321H25V-56.4514H23ZM23 -68.1905V-74.0601H25V-68.1905H23ZM23 -79.9297V-85.7993H25V-79.9297H23ZM23 -91.6688V-97.5384H25V-91.6688H23Z" fill="url(#paint8_linear_3998_20858)"/>
<rect x="106" y="45.5269" width="10" height="10" rx="5" fill="white" stroke="#FF6900" stroke-width="2"/>
<rect x="106" y="90.5269" width="10" height="10" rx="5" fill="white" stroke="#FF6900" stroke-width="2"/>
</g>
</g>
<defs>
<filter id="filter0_dd_3998_20858" x="148.366" y="82.481" width="39.5731" height="42.432" filterUnits="userSpaceOnUse" color-interpolation-filters="sRGB">
<feFlood flood-opacity="0" result="BackgroundImageFix"/>
<feColorMatrix in="SourceAlpha" type="matrix" values="0 0 0 0 0 0 0 0 0 0 0 0 0 0 0 0 0 0 127 0" result="hardAlpha"/>
<feOffset dy="1.64304"/>
<feGaussianBlur stdDeviation="0.821519"/>
<feComposite in2="hardAlpha" operator="out"/>
<feColorMatrix type="matrix" values="0 0 0 0 0 0 0 0 0 0 0 0 0 0 0 0 0 0 0.25 0"/>
<feBlend mode="normal" in2="BackgroundImageFix" result="effect1_dropShadow_3998_20858"/>
<feColorMatrix in="SourceAlpha" type="matrix" values="0 0 0 0 0 0 0 0 0 0 0 0 0 0 0 0 0 0 127 0" result="hardAlpha"/>
<feOffset dy="8.42057"/>
<feGaussianBlur stdDeviation="4.21029"/>
<feComposite in2="hardAlpha" operator="out"/>
<feColorMatrix type="matrix" values="0 0 0 0 0 0 0 0 0 0 0 0 0 0 0 0 0 0 0.25 0"/>
<feBlend mode="normal" in2="effect1_dropShadow_3998_20858" result="effect2_dropShadow_3998_20858"/>
<feBlend mode="normal" in="SourceGraphic" in2="effect2_dropShadow_3998_20858" result="shape"/>
</filter>
<linearGradient id="paint0_linear_3998_20858" x1="273.985" y1="23.9638" x2="331.524" y2="9.97969" gradientUnits="userSpaceOnUse">
<stop offset="0.0132335" stop-color="#E5E5E5"/>
<stop offset="1" stop-color="white" stop-opacity="0.1"/>
</linearGradient>
<linearGradient id="paint1_linear_3998_20858" x1="262.999" y1="166.492" x2="360.999" y2="164.408" gradientUnits="userSpaceOnUse">
<stop offset="0.0132335" stop-color="#E5E5E5"/>
<stop offset="1" stop-color="white" stop-opacity="0.1"/>
</linearGradient>
<linearGradient id="paint2_linear_3998_20858" x1="168.17" y1="69.8184" x2="168.17" y2="119.995" gradientUnits="userSpaceOnUse">
<stop stop-color="#FF6900"/>
<stop offset="1" stop-color="#FF8904"/>
</linearGradient>
<linearGradient id="paint3_linear_3998_20858" x1="168.261" y1="74.8665" x2="168.261" y2="115.532" gradientUnits="userSpaceOnUse">
<stop stop-color="#FF6900"/>
<stop offset="1" stop-color="#FF8904"/>
</linearGradient>
<linearGradient id="paint4_linear_3998_20858" x1="168.261" y1="74.8665" x2="168.261" y2="115.532" gradientUnits="userSpaceOnUse">
<stop stop-color="#FFD6A8"/>
<stop offset="0.5" stop-color="#FFB86A"/>
<stop offset="1" stop-color="#FF8904"/>
</linearGradient>
<linearGradient id="paint5_linear_3998_20858" x1="111" y1="140.027" x2="111" y2="260.027" gradientUnits="userSpaceOnUse">
<stop stop-color="#E5E5E5"/>
<stop offset="1" stop-color="white" stop-opacity="0.1"/>
</linearGradient>
<linearGradient id="paint6_linear_3998_20858" x1="111" y1="27.5269" x2="111" y2="-13.9731" gradientUnits="userSpaceOnUse">
<stop stop-color="#E5E5E5"/>
<stop offset="1" stop-color="white" stop-opacity="0.1"/>
</linearGradient>
<linearGradient id="paint7_linear_3998_20858" x1="67.75" y1="94.5267" x2="-60" y2="95.5266" gradientUnits="userSpaceOnUse">
<stop stop-color="#E5E5E5"/>
<stop offset="1" stop-color="white" stop-opacity="0.1"/>
</linearGradient>
<linearGradient id="paint8_linear_3998_20858" x1="86.9813" y1="58.0484" x2="4.5116" y2="-24.4847" gradientUnits="userSpaceOnUse">
<stop offset="0.0132335" stop-color="#E5E5E5"/>
<stop offset="1" stop-color="white" stop-opacity="0.1"/>
</linearGradient>
<clipPath id="clip0_3998_20858">
<rect width="336" height="189" fill="white" transform="translate(0 0.526855)"/>
</clipPath>
<clipPath id="clip1_3998_20858">
<rect width="331" height="189" fill="white" transform="translate(0 0.526855)"/>
</clipPath>
<clipPath id="clip2_3998_20858">
<rect width="50.5234" height="50.5234" fill="white" transform="translate(143 69.5269)"/>
</clipPath>
</defs>
</svg>
