<svg width="12" height="121" viewBox="0 0 12 121" fill="none" xmlns="http://www.w3.org/2000/svg">
<path d="M6.5 1C6.5 0.447715 6.05228 0 5.5 0C4.94772 0 4.5 0.447715 4.5 1L6.5 1ZM4.5 3.98684C4.5 4.53913 4.94772 4.98684 5.5 4.98684C6.05228 4.98684 6.5 4.53913 6.5 3.98684L4.5 3.98684ZM6.5 9.96053C6.5 9.40824 6.05228 8.96053 5.5 8.96053C4.94772 8.96053 4.5 9.40824 4.5 9.96053H6.5ZM4.5 15.9342C4.5 16.4865 4.94772 16.9342 5.5 16.9342C6.05228 16.9342 6.5 16.4865 6.5 15.9342H4.5ZM6.5 21.9079C6.5 21.3556 6.05228 20.9079 5.5 20.9079C4.94772 20.9079 4.5 21.3556 4.5 21.9079H6.5ZM4.5 27.8816C4.5 28.4339 4.94772 28.8816 5.5 28.8816C6.05228 28.8816 6.5 28.4339 6.5 27.8816H4.5ZM6.5 33.8553C6.5 33.303 6.05228 32.8553 5.5 32.8553C4.94772 32.8553 4.5 33.303 4.5 33.8553H6.5ZM4.5 39.8289C4.5 40.3812 4.94772 40.8289 5.5 40.8289C6.05228 40.8289 6.5 40.3812 6.5 39.8289H4.5ZM6.5 45.8026C6.5 45.2504 6.05228 44.8026 5.5 44.8026C4.94772 44.8026 4.5 45.2504 4.5 45.8026H6.5ZM4.5 51.7763C4.5 52.3286 4.94772 52.7763 5.5 52.7763C6.05228 52.7763 6.5 52.3286 6.5 51.7763H4.5ZM6.5 57.75C6.5 57.1977 6.05228 56.75 5.5 56.75C4.94772 56.75 4.5 57.1977 4.5 57.75H6.5ZM4.5 63.7237C4.5 64.276 4.94772 64.7237 5.5 64.7237C6.05228 64.7237 6.5 64.276 6.5 63.7237H4.5ZM6.5 69.6974C6.5 69.1451 6.05228 68.6974 5.5 68.6974C4.94772 68.6974 4.5 69.1451 4.5 69.6974H6.5ZM4.5 75.6711C4.5 76.2234 4.94772 76.6711 5.5 76.6711C6.05228 76.6711 6.5 76.2234 6.5 75.6711H4.5ZM6.5 81.6448C6.5 81.0925 6.05228 80.6448 5.5 80.6448C4.94772 80.6448 4.5 81.0925 4.5 81.6448H6.5ZM4.5 87.6184C4.5 88.1707 4.94772 88.6184 5.5 88.6184C6.05228 88.6184 6.5 88.1707 6.5 87.6184H4.5ZM6.5 93.5921C6.5 93.0398 6.05228 92.5921 5.5 92.5921C4.94772 92.5921 4.5 93.0398 4.5 93.5921H6.5ZM4.5 99.5658C4.5 100.118 4.94772 100.566 5.5 100.566C6.05228 100.566 6.5 100.118 6.5 99.5658H4.5ZM6.5 105.539C6.5 104.987 6.05228 104.539 5.5 104.539C4.94772 104.539 4.5 104.987 4.5 105.539H6.5ZM4.5 111.513C4.5 112.065 4.94772 112.513 5.5 112.513C6.05228 112.513 6.5 112.065 6.5 111.513H4.5ZM4.5 1L4.5 3.98684L6.5 3.98684L6.5 1L4.5 1ZM4.5 9.96053L4.5 15.9342H6.5L6.5 9.96053H4.5ZM4.5 21.9079L4.5 27.8816H6.5L6.5 21.9079H4.5ZM4.5 33.8553L4.5 39.8289H6.5L6.5 33.8553H4.5ZM4.5 45.8026L4.5 51.7763H6.5L6.5 45.8026H4.5ZM4.5 57.75L4.5 63.7237H6.5L6.5 57.75H4.5ZM4.5 69.6974L4.5 75.6711H6.5L6.5 69.6974H4.5ZM4.5 81.6448L4.5 87.6184H6.5L6.5 81.6448H4.5ZM4.5 93.5921L4.5 99.5658H6.5L6.5 93.5921H4.5ZM4.5 105.539L4.5 111.513H6.5L6.5 105.539H4.5Z" fill="url(#paint0_linear_3898_237676)"/>
<rect x="1" y="110" width="10" height="10" rx="5" fill="white" stroke="#FF6900" stroke-width="2"/>
<defs>
<linearGradient id="paint0_linear_3898_237676" x1="5" y1="1" x2="5" y2="114.5" gradientUnits="userSpaceOnUse">
<stop stop-color="white"/>
<stop offset="1" stop-color="#E5E5E5"/>
</linearGradient>
</defs>
</svg>
