<svg width="212" height="157" viewBox="0 0 212 157" fill="none" xmlns="http://www.w3.org/2000/svg">
<path d="M206 156.333C203.054 156.333 200.667 153.946 200.667 151C200.667 148.054 203.054 145.667 206 145.667C208.946 145.667 211.333 148.054 211.333 151C211.333 153.946 208.946 156.333 206 156.333ZM203.054 152C202.501 152 202.054 151.552 202.054 151C202.054 150.448 202.501 150 203.054 150V152ZM197.161 150C197.713 150 198.161 150.448 198.161 151C198.161 151.552 197.713 152 197.161 152V150ZM191.268 152C190.716 152 190.268 151.552 190.268 151C190.268 150.448 190.716 150 191.268 150V152ZM185.375 150C185.927 150 186.375 150.448 186.375 151C186.375 151.552 185.927 152 185.375 152V150ZM179.482 152C178.93 152 178.482 151.552 178.482 151C178.482 150.448 178.93 150 179.482 150V152ZM173.589 150C174.142 150 174.589 150.448 174.589 151C174.589 151.552 174.142 152 173.589 152V150ZM167.696 152C167.144 152 166.696 151.552 166.696 151C166.696 150.448 167.144 150 167.696 150V152ZM161.804 150C162.356 150 162.804 150.448 162.804 151C162.804 151.552 162.356 152 161.804 152V150ZM155.911 152C155.358 152 154.911 151.552 154.911 151C154.911 150.448 155.358 150 155.911 150V152ZM150.018 150C150.57 150 151.018 150.448 151.018 151C151.018 151.552 150.57 152 150.018 152V150ZM144.125 152C143.573 152 143.125 151.552 143.125 151C143.125 150.448 143.573 150 144.125 150V152ZM138.232 150C138.784 150 139.232 150.448 139.232 151C139.232 151.552 138.784 152 138.232 152V150ZM132.339 152C131.787 152 131.339 151.552 131.339 151C131.339 150.448 131.787 150 132.339 150V152ZM126.446 150C126.999 150 127.446 150.448 127.446 151C127.446 151.552 126.999 152 126.446 152V150ZM120.554 152C120.001 152 119.554 151.552 119.554 151C119.554 150.448 120.001 150 120.554 150V152ZM114.661 150C115.213 150 115.661 150.448 115.661 151C115.661 151.552 115.213 152 114.661 152V150ZM108.768 152C108.216 152 107.768 151.552 107.768 151C107.768 150.448 108.216 150 108.768 150V152ZM102.875 150C103.427 150 103.875 150.448 103.875 151C103.875 151.552 103.427 152 102.875 152V150ZM96.9821 152C96.4298 152 95.9821 151.552 95.9821 151C95.9821 150.448 96.4298 150 96.9821 150V152ZM91.0893 150C91.6415 150 92.0893 150.448 92.0893 151C92.0893 151.552 91.6415 152 91.0893 152V150ZM85.1964 152C84.6441 152 84.1964 151.552 84.1964 151C84.1964 150.448 84.6441 150 85.1964 150V152ZM79.3035 150C79.8558 150 80.3035 150.448 80.3035 151C80.3035 151.552 79.8558 152 79.3035 152V150ZM73.4107 152C72.8584 152 72.4107 151.552 72.4107 151C72.4107 150.448 72.8584 150 73.4107 150V152ZM67.5178 150C68.0701 150 68.5178 150.448 68.5178 151C68.5178 151.552 68.0701 152 67.5178 152V150ZM61.625 152C61.0727 152 60.625 151.552 60.625 151C60.625 150.448 61.0727 150 61.625 150V152ZM55.7321 150C56.2844 150 56.7321 150.448 56.7321 151C56.7321 151.552 56.2844 152 55.7321 152V150ZM49.8393 152C49.287 152 48.8393 151.552 48.8393 151C48.8393 150.448 49.287 150 49.8393 150V152ZM43.9464 150C44.4987 150 44.9464 150.448 44.9464 151C44.9464 151.552 44.4987 152 43.9464 152V150ZM37.7811 151.875C37.2305 151.833 36.8188 151.352 36.8615 150.801C36.9043 150.25 37.3854 149.839 37.936 149.881L37.7811 151.875ZM31.8908 148.931C32.428 149.059 32.7592 149.599 32.6307 150.136C32.5022 150.673 31.9626 151.004 31.4255 150.876L31.8908 148.931ZM25.3054 148.889C24.7953 148.677 24.5532 148.092 24.7648 147.582C24.9763 147.072 25.5614 146.829 26.0715 147.041L25.3054 148.889ZM20.6209 144.259C21.0915 144.548 21.2388 145.163 20.9498 145.634C20.6608 146.105 20.045 146.252 19.5743 145.963L20.6209 144.259ZM14.372 142.177C13.9522 141.818 13.9028 141.187 14.2617 140.767C14.6206 140.347 15.2518 140.298 15.6716 140.657L14.372 142.177ZM11.3431 136.328C11.702 136.748 11.6526 137.379 11.2328 137.738C10.813 138.097 10.1818 138.048 9.82292 137.628L11.3431 136.328ZM6.03709 132.426C5.74808 131.955 5.89531 131.339 6.36594 131.05C6.83658 130.761 7.45238 130.908 7.74139 131.379L6.03709 132.426ZM4.95894 125.928C5.1705 126.439 4.92844 127.024 4.41827 127.235C3.90811 127.447 3.32304 127.205 3.1115 126.695L4.95894 125.928ZM1.12421 120.575C0.995697 120.037 1.32695 119.498 1.86407 119.369C2.4012 119.241 2.9408 119.572 3.06931 120.109L1.12421 120.575ZM2.11855 114.064C2.16132 114.615 1.74962 115.096 1.19901 115.138C0.648376 115.181 0.167328 114.77 0.124542 114.219L2.11855 114.064ZM0 108.079C0 107.527 0.447708 107.079 1 107.079C1.55229 107.079 2 107.527 2 108.079H0ZM2 102.237C2 102.789 1.55229 103.237 1 103.237C0.447708 103.237 0 102.789 0 102.237H2ZM0 96.3947C0 95.8424 0.447708 95.3947 1 95.3947C1.55229 95.3947 2 95.8424 2 96.3947H0ZM2 90.5526C2 91.1049 1.55229 91.5526 1 91.5526C0.447708 91.5526 0 91.1049 0 90.5526H2ZM0 84.7105C0 84.1582 0.447708 83.7105 1 83.7105C1.55229 83.7105 2 84.1582 2 84.7105H0ZM2 78.8684C2 79.4207 1.55229 79.8684 1 79.8684C0.447708 79.8684 0 79.4207 0 78.8684H2ZM0 73.0263C0 72.474 0.447708 72.0263 1 72.0263C1.55229 72.0263 2 72.474 2 73.0263H0ZM2 67.1842C2 67.7365 1.55229 68.1842 1 68.1842C0.447708 68.1842 0 67.7365 0 67.1842H2ZM0 61.3421C0 60.7898 0.447708 60.3421 1 60.3421C1.55229 60.3421 2 60.7898 2 61.3421H0ZM2 55.5C2 56.0523 1.55229 56.5 1 56.5C0.447708 56.5 0 56.0523 0 55.5H2ZM0 49.6579C0 49.1056 0.447708 48.6579 1 48.6579C1.55229 48.6579 2 49.1056 2 49.6579H0ZM2 43.8158C2 44.3681 1.55229 44.8158 1 44.8158C0.447708 44.8158 0 44.3681 0 43.8158H2ZM0 37.9737C0 37.4214 0.447708 36.9737 1 36.9737C1.55229 36.9737 2 37.4214 2 37.9737H0ZM2 32.1316C2 32.6839 1.55229 33.1316 1 33.1316C0.447708 33.1316 0 32.6839 0 32.1316H2ZM0 26.2895C0 25.7372 0.447708 25.2895 1 25.2895C1.55229 25.2895 2 25.7372 2 26.2895H0ZM2 20.4474C2 20.9997 1.55229 21.4474 1 21.4474C0.447708 21.4474 0 20.9997 0 20.4474H2ZM0 14.6053C0 14.053 0.447708 13.6053 1 13.6053C1.55229 13.6053 2 14.053 2 14.6053H0ZM2 8.76318C2 9.31546 1.55229 9.76318 1 9.76318C0.447708 9.76318 0 9.31546 0 8.76318H2ZM0 2.92108C0 2.36879 0.447708 1.92108 1 1.92108C1.55229 1.92108 2 2.36879 2 2.92108H0ZM206 152H203.054V150H206V152ZM197.161 152H191.268V150H197.161V152ZM185.375 152H179.482V150H185.375V152ZM173.589 152H167.696V150H173.589V152ZM161.804 152H155.911V150H161.804V152ZM150.018 152L144.125 152V150H150.018V152ZM138.232 152H132.339V150H138.232V152ZM126.446 152H120.554V150H126.446V152ZM114.661 152H108.768V150H114.661V152ZM102.875 152H96.9821V150H102.875V152ZM91.0893 152H85.1964V150H91.0893V152ZM79.3035 152H73.4107V150H79.3035V152ZM67.5178 152H61.625V150H67.5178V152ZM55.7321 152H49.8393V150H55.7321V152ZM43.9464 152H41V150H43.9464V152ZM41 152C39.9169 152 38.8434 151.958 37.7811 151.875L37.936 149.881C38.9468 149.96 39.9686 150 41 150V152ZM31.4255 150.876C29.3175 150.371 27.2728 149.704 25.3054 148.889L26.0715 147.041C27.9423 147.817 29.8865 148.451 31.8908 148.931L31.4255 150.876ZM19.5743 145.963C17.7396 144.836 16.0006 143.569 14.372 142.177L15.6716 140.657C17.2212 141.982 18.8757 143.187 20.6209 144.259L19.5743 145.963ZM9.82292 137.628C8.43068 135.999 7.16374 134.26 6.03709 132.426L7.74139 131.379C8.81311 133.124 10.0184 134.779 11.3431 136.328L9.82292 137.628ZM3.1115 126.695C2.29565 124.727 1.62854 122.682 1.12421 120.575L3.06931 120.109C3.54886 122.113 4.18317 124.058 4.95894 125.928L3.1115 126.695ZM0.124542 114.219C0.0420227 113.157 0 112.083 0 111H2C2 112.031 2.04001 113.053 2.11855 114.064L0.124542 114.219ZM0 111V108.079H2V111H0ZM0 102.237V96.3947H2V102.237H0ZM0 90.5526V84.7105H2V90.5526H0ZM0 78.8684V73.0263H2V78.8684H0ZM0 67.1842V61.3421H2V67.1842H0ZM0 55.5V49.6579H2V55.5H0ZM0 43.8158V37.9737H2V43.8158H0ZM0 32.1316V26.2895H2V32.1316H0ZM0 20.4474V14.6053H2V20.4474H0ZM0 8.76318V2.92108H2V8.76318H0Z" fill="#E5E5E5"/>
<rect x="201" y="146" width="10" height="10" rx="5" fill="white" stroke="#FF6900" stroke-width="2"/>
</svg>
