<svg width="738" height="12" viewBox="0 0 738 12" fill="none" xmlns="http://www.w3.org/2000/svg">
<path d="M738 7C738.552 7 739 6.55228 739 6C739 5.44772 738.552 5 738 5V7ZM5.75 11.3333C8.69552 11.3333 11.0833 8.94552 11.0833 6C11.0833 3.05448 8.69552 0.666667 5.75 0.666667C2.80448 0.666667 0.416667 3.05448 0.416667 6C0.416667 8.94552 2.80448 11.3333 5.75 11.3333ZM8.75102 7C9.30331 7 9.75102 6.55228 9.75102 6C9.75102 5.44772 9.30331 5 8.75102 5V7ZM14.7531 5C14.2008 5 13.7531 5.44772 13.7531 6C13.7531 6.55228 14.2008 7 14.7531 7V5ZM20.7551 7C21.3074 7 21.7551 6.55228 21.7551 6C21.7551 5.44772 21.3074 5 20.7551 5V7ZM26.7572 5C26.2049 5 25.7572 5.44772 25.7572 6C25.7572 6.55228 26.2049 7 26.7572 7V5ZM32.7592 7C33.3115 7 33.7592 6.55228 33.7592 6C33.7592 5.44772 33.3115 5 32.7592 5V7ZM38.7613 5C38.209 5 37.7613 5.44772 37.7613 6C37.7613 6.55228 38.209 7 38.7613 7V5ZM44.7633 7C45.3156 7 45.7633 6.55228 45.7633 6C45.7633 5.44772 45.3156 5 44.7633 5V7ZM50.7654 5C50.2131 5 49.7654 5.44772 49.7654 6C49.7654 6.55228 50.2131 7 50.7654 7V5ZM56.7674 7C57.3197 7 57.7674 6.55228 57.7674 6C57.7674 5.44772 57.3197 5 56.7674 5V7ZM62.7695 5C62.2172 5 61.7695 5.44772 61.7695 6C61.7695 6.55228 62.2172 7 62.7695 7V5ZM68.7715 7C69.3238 7 69.7715 6.55228 69.7715 6C69.7715 5.44772 69.3238 5 68.7715 5V7ZM74.7736 5C74.2213 5 73.7736 5.44772 73.7736 6C73.7736 6.55228 74.2213 7 74.7736 7V5ZM80.7756 7C81.3279 7 81.7756 6.55228 81.7756 6C81.7756 5.44772 81.3279 5 80.7756 5V7ZM86.7777 5C86.2254 5 85.7777 5.44772 85.7777 6C85.7777 6.55228 86.2254 7 86.7777 7V5ZM92.7797 7C93.332 7 93.7797 6.55228 93.7797 6C93.7797 5.44772 93.332 5 92.7797 5V7ZM98.7818 5C98.2295 5 97.7818 5.44772 97.7818 6C97.7818 6.55228 98.2295 7 98.7818 7V5ZM104.784 7C105.336 7 105.784 6.55228 105.784 6C105.784 5.44772 105.336 5 104.784 5V7ZM110.786 5C110.234 5 109.786 5.44772 109.786 6C109.786 6.55228 110.234 7 110.786 7V5ZM116.788 7C117.34 7 117.788 6.55228 117.788 6C117.788 5.44772 117.34 5 116.788 5V7ZM122.79 5C122.238 5 121.79 5.44772 121.79 6C121.79 6.55228 122.238 7 122.79 7V5ZM128.792 7C129.344 7 129.792 6.55228 129.792 6C129.792 5.44772 129.344 5 128.792 5V7ZM134.794 5C134.242 5 133.794 5.44772 133.794 6C133.794 6.55228 134.242 7 134.794 7V5ZM140.796 7C141.348 7 141.796 6.55228 141.796 6C141.796 5.44772 141.348 5 140.796 5V7ZM146.798 5C146.246 5 145.798 5.44772 145.798 6C145.798 6.55228 146.246 7 146.798 7V5ZM152.8 7C153.352 7 153.8 6.55228 153.8 6C153.8 5.44772 153.352 5 152.8 5V7ZM158.802 5C158.25 5 157.802 5.44772 157.802 6C157.802 6.55228 158.25 7 158.802 7V5ZM164.804 7C165.357 7 165.804 6.55228 165.804 6C165.804 5.44772 165.357 5 164.804 5V7ZM170.806 5C170.254 5 169.806 5.44772 169.806 6C169.806 6.55228 170.254 7 170.806 7V5ZM176.808 7C177.361 7 177.808 6.55228 177.808 6C177.808 5.44772 177.361 5 176.808 5V7ZM182.81 5C182.258 5 181.81 5.44772 181.81 6C181.81 6.55228 182.258 7 182.81 7V5ZM188.812 7C189.365 7 189.812 6.55228 189.812 6C189.812 5.44772 189.365 5 188.812 5V7ZM194.815 5C194.262 5 193.815 5.44772 193.815 6C193.815 6.55228 194.262 7 194.815 7V5ZM200.817 7C201.369 7 201.817 6.55228 201.817 6C201.817 5.44772 201.369 5 200.817 5V7ZM206.819 5C206.266 5 205.819 5.44772 205.819 6C205.819 6.55228 206.266 7 206.819 7V5ZM212.821 7C213.373 7 213.821 6.55228 213.821 6C213.821 5.44772 213.373 5 212.821 5V7ZM218.823 5C218.27 5 217.823 5.44772 217.823 6C217.823 6.55228 218.27 7 218.823 7V5ZM224.825 7C225.377 7 225.825 6.55228 225.825 6C225.825 5.44772 225.377 5 224.825 5V7ZM230.827 5C230.275 5 229.827 5.44772 229.827 6C229.827 6.55228 230.275 7 230.827 7V5ZM236.829 7C237.381 7 237.829 6.55228 237.829 6C237.829 5.44772 237.381 5 236.829 5V7ZM242.831 5C242.279 5 241.831 5.44772 241.831 6C241.831 6.55228 242.279 7 242.831 7V5ZM248.833 7C249.385 7 249.833 6.55228 249.833 6C249.833 5.44772 249.385 5 248.833 5V7ZM254.835 5C254.283 5 253.835 5.44772 253.835 6C253.835 6.55228 254.283 7 254.835 7V5ZM260.837 7C261.389 7 261.837 6.55228 261.837 6C261.837 5.44772 261.389 5 260.837 5V7ZM266.839 5C266.287 5 265.839 5.44772 265.839 6C265.839 6.55228 266.287 7 266.839 7V5ZM272.841 7C273.393 7 273.841 6.55228 273.841 6C273.841 5.44772 273.393 5 272.841 5V7ZM278.843 5C278.291 5 277.843 5.44772 277.843 6C277.843 6.55228 278.291 7 278.843 7V5ZM284.845 7C285.397 7 285.845 6.55228 285.845 6C285.845 5.44772 285.397 5 284.845 5V7ZM290.847 5C290.295 5 289.847 5.44772 289.847 6C289.847 6.55228 290.295 7 290.847 7V5ZM296.849 7C297.402 7 297.849 6.55228 297.849 6C297.849 5.44772 297.402 5 296.849 5V7ZM302.851 5C302.299 5 301.851 5.44772 301.851 6C301.851 6.55228 302.299 7 302.851 7V5ZM308.853 7C309.406 7 309.853 6.55228 309.853 6C309.853 5.44772 309.406 5 308.853 5V7ZM314.855 5C314.303 5 313.855 5.44772 313.855 6C313.855 6.55228 314.303 7 314.855 7V5ZM320.857 7C321.41 7 321.857 6.55228 321.857 6C321.857 5.44772 321.41 5 320.857 5V7ZM326.86 5C326.307 5 325.86 5.44772 325.86 6C325.86 6.55228 326.307 7 326.86 7V5ZM332.862 7C333.414 7 333.862 6.55228 333.862 6C333.862 5.44772 333.414 5 332.862 5V7ZM338.864 5C338.311 5 337.864 5.44772 337.864 6C337.864 6.55228 338.311 7 338.864 7V5ZM344.866 7C345.418 7 345.866 6.55228 345.866 6C345.866 5.44772 345.418 5 344.866 5V7ZM350.868 5C350.315 5 349.868 5.44772 349.868 6C349.868 6.55228 350.315 7 350.868 7V5ZM356.87 7C357.422 7 357.87 6.55228 357.87 6C357.87 5.44772 357.422 5 356.87 5V7ZM362.872 5C362.32 5 361.872 5.44772 361.872 6C361.872 6.55228 362.32 7 362.872 7V5ZM368.874 7C369.426 7 369.874 6.55228 369.874 6C369.874 5.44772 369.426 5 368.874 5V7ZM374.876 5C374.324 5 373.876 5.44772 373.876 6C373.876 6.55228 374.324 7 374.876 7V5ZM380.878 7C381.43 7 381.878 6.55228 381.878 6C381.878 5.44772 381.43 5 380.878 5V7ZM386.88 5C386.328 5 385.88 5.44772 385.88 6C385.88 6.55228 386.328 7 386.88 7V5ZM392.882 7C393.434 7 393.882 6.55228 393.882 6C393.882 5.44772 393.434 5 392.882 5V7ZM398.884 5C398.332 5 397.884 5.44772 397.884 6C397.884 6.55228 398.332 7 398.884 7V5ZM404.886 7C405.438 7 405.886 6.55228 405.886 6C405.886 5.44772 405.438 5 404.886 5V7ZM410.888 5C410.336 5 409.888 5.44772 409.888 6C409.888 6.55228 410.336 7 410.888 7V5ZM416.89 7C417.442 7 417.89 6.55228 417.89 6C417.89 5.44772 417.442 5 416.89 5V7ZM422.892 5C422.34 5 421.892 5.44772 421.892 6C421.892 6.55228 422.34 7 422.892 7V5ZM428.894 7C429.447 7 429.894 6.55228 429.894 6C429.894 5.44772 429.447 5 428.894 5V7ZM434.896 5C434.344 5 433.896 5.44772 433.896 6C433.896 6.55228 434.344 7 434.896 7V5ZM440.898 7C441.451 7 441.898 6.55228 441.898 6C441.898 5.44772 441.451 5 440.898 5V7ZM446.9 5C446.348 5 445.9 5.44772 445.9 6C445.9 6.55228 446.348 7 446.9 7V5ZM452.902 7C453.455 7 453.902 6.55228 453.902 6C453.902 5.44772 453.455 5 452.902 5V7ZM458.905 5C458.352 5 457.905 5.44772 457.905 6C457.905 6.55228 458.352 7 458.905 7V5ZM464.907 7C465.459 7 465.907 6.55228 465.907 6C465.907 5.44772 465.459 5 464.907 5V7ZM470.909 5C470.356 5 469.909 5.44772 469.909 6C469.909 6.55228 470.356 7 470.909 7V5ZM476.911 7C477.463 7 477.911 6.55228 477.911 6C477.911 5.44772 477.463 5 476.911 5V7ZM482.913 5C482.36 5 481.913 5.44772 481.913 6C481.913 6.55228 482.36 7 482.913 7V5ZM488.915 7C489.467 7 489.915 6.55228 489.915 6C489.915 5.44772 489.467 5 488.915 5V7ZM494.917 5C494.365 5 493.917 5.44772 493.917 6C493.917 6.55228 494.365 7 494.917 7V5ZM500.919 7C501.471 7 501.919 6.55228 501.919 6C501.919 5.44772 501.471 5 500.919 5V7ZM506.921 5C506.369 5 505.921 5.44772 505.921 6C505.921 6.55228 506.369 7 506.921 7V5ZM512.923 7C513.475 7 513.923 6.55228 513.923 6C513.923 5.44772 513.475 5 512.923 5V7ZM518.925 5C518.373 5 517.925 5.44772 517.925 6C517.925 6.55228 518.373 7 518.925 7V5ZM524.927 7C525.479 7 525.927 6.55228 525.927 6C525.927 5.44772 525.479 5 524.927 5V7ZM530.929 5C530.377 5 529.929 5.44772 529.929 6C529.929 6.55228 530.377 7 530.929 7V5ZM536.931 7C537.483 7 537.931 6.55228 537.931 6C537.931 5.44772 537.483 5 536.931 5V7ZM542.933 5C542.381 5 541.933 5.44772 541.933 6C541.933 6.55228 542.381 7 542.933 7V5ZM548.935 7C549.488 7 549.935 6.55228 549.935 6C549.935 5.44772 549.488 5 548.935 5V7ZM554.937 5C554.385 5 553.937 5.44772 553.937 6C553.937 6.55228 554.385 7 554.937 7V5ZM560.94 7C561.492 7 561.94 6.55228 561.94 6C561.94 5.44772 561.492 5 560.94 5V7ZM566.942 5C566.389 5 565.942 5.44772 565.942 6C565.942 6.55228 566.389 7 566.942 7V5ZM572.944 7C573.496 7 573.944 6.55228 573.944 6C573.944 5.44772 573.496 5 572.944 5V7ZM578.946 5C578.393 5 577.946 5.44772 577.946 6C577.946 6.55228 578.393 7 578.946 7V5ZM584.948 7C585.5 7 585.948 6.55228 585.948 6C585.948 5.44772 585.5 5 584.948 5V7ZM590.95 5C590.398 5 589.95 5.44772 589.95 6C589.95 6.55228 590.398 7 590.95 7V5ZM596.952 7C597.504 7 597.952 6.55228 597.952 6C597.952 5.44772 597.504 5 596.952 5V7ZM602.954 5C602.402 5 601.954 5.44772 601.954 6C601.954 6.55228 602.402 7 602.954 7V5ZM608.956 7C609.508 7 609.956 6.55228 609.956 6C609.956 5.44772 609.508 5 608.956 5V7ZM614.958 5C614.406 5 613.958 5.44772 613.958 6C613.958 6.55228 614.406 7 614.958 7V5ZM620.96 7C621.513 7 621.96 6.55228 621.96 6C621.96 5.44772 621.513 5 620.96 5V7ZM626.962 5C626.41 5 625.962 5.44772 625.962 6C625.962 6.55228 626.41 7 626.962 7V5ZM632.964 7C633.517 7 633.964 6.55228 633.964 6C633.964 5.44772 633.517 5 632.964 5V7ZM638.966 5C638.414 5 637.966 5.44772 637.966 6C637.966 6.55228 638.414 7 638.966 7V5ZM644.969 7C645.521 7 645.969 6.55228 645.969 6C645.969 5.44772 645.521 5 644.969 5V7ZM650.971 5C650.418 5 649.971 5.44772 649.971 6C649.971 6.55228 650.418 7 650.971 7V5ZM656.973 7C657.525 7 657.973 6.55228 657.973 6C657.973 5.44772 657.525 5 656.973 5V7ZM662.975 5C662.422 5 661.975 5.44772 661.975 6C661.975 6.55228 662.422 7 662.975 7V5ZM668.977 7C669.529 7 669.977 6.55228 669.977 6C669.977 5.44772 669.529 5 668.977 5V7ZM674.979 5C674.427 5 673.979 5.44772 673.979 6C673.979 6.55228 674.427 7 674.979 7V5ZM680.981 7C681.533 7 681.981 6.55228 681.981 6C681.981 5.44772 681.533 5 680.981 5V7ZM686.983 5C686.431 5 685.983 5.44772 685.983 6C685.983 6.55228 686.431 7 686.983 7V5ZM692.985 7C693.537 7 693.985 6.55228 693.985 6C693.985 5.44772 693.537 5 692.985 5V7ZM698.987 5C698.435 5 697.987 5.44772 697.987 6C697.987 6.55228 698.435 7 698.987 7V5ZM704.989 7C705.542 7 705.989 6.55228 705.989 6C705.989 5.44772 705.542 5 704.989 5V7ZM710.991 5C710.439 5 709.991 5.44772 709.991 6C709.991 6.55228 710.439 7 710.991 7V5ZM716.993 7C717.546 7 717.993 6.55228 717.993 6C717.993 5.44772 717.546 5 716.993 5V7ZM722.996 5C722.443 5 721.996 5.44772 721.996 6C721.996 6.55228 722.443 7 722.996 7V5ZM728.998 7C729.55 7 729.998 6.55228 729.998 6C729.998 5.44772 729.55 5 728.998 5V7ZM735 5C734.447 5 734 5.44772 734 6C734 6.55228 734.447 7 735 7V5ZM5.75 7L8.75102 7V5L5.75 5V7ZM14.7531 7L20.7551 7V5L14.7531 5V7ZM26.7572 7L32.7592 7V5L26.7572 5V7ZM38.7613 7L44.7633 7V5L38.7613 5V7ZM50.7654 7L56.7674 7V5L50.7654 5V7ZM62.7695 7L68.7715 7V5L62.7695 5V7ZM74.7736 7L80.7756 7V5L74.7736 5V7ZM86.7777 7L92.7797 7V5L86.7777 5V7ZM98.7818 7L104.784 7V5L98.7818 5V7ZM110.786 7L116.788 7V5L110.786 5V7ZM122.79 7L128.792 7V5L122.79 5V7ZM134.794 7L140.796 7V5L134.794 5V7ZM146.798 7L152.8 7V5L146.798 5V7ZM158.802 7L164.804 7V5L158.802 5V7ZM170.806 7L176.808 7V5L170.806 5V7ZM182.81 7L188.812 7V5L182.81 5V7ZM194.815 7L200.817 7V5L194.815 5V7ZM206.819 7L212.821 7V5L206.819 5V7ZM218.823 7L224.825 7V5L218.823 5V7ZM230.827 7L236.829 7V5L230.827 5V7ZM242.831 7L248.833 7V5L242.831 5V7ZM254.835 7L260.837 7V5L254.835 5V7ZM266.839 7L272.841 7V5L266.839 5V7ZM278.843 7L284.845 7V5L278.843 5V7ZM290.847 7L296.849 7V5L290.847 5V7ZM302.851 7L308.853 7V5L302.851 5V7ZM314.855 7L320.857 7V5L314.855 5V7ZM326.86 7L332.862 7V5L326.86 5V7ZM338.864 7L344.866 7V5L338.864 5V7ZM350.868 7L356.87 7V5L350.868 5V7ZM362.872 7L368.874 7V5L362.872 5V7ZM374.876 7L380.878 7V5L374.876 5V7ZM386.88 7L392.882 7V5L386.88 5V7ZM398.884 7L404.886 7V5L398.884 5V7ZM410.888 7L416.89 7V5L410.888 5V7ZM422.892 7L428.894 7V5L422.892 5V7ZM434.896 7L440.898 7V5L434.896 5V7ZM446.9 7L452.902 7V5L446.9 5V7ZM458.905 7L464.907 7V5L458.905 5V7ZM470.909 7L476.911 7V5L470.909 5V7ZM482.913 7L488.915 7V5L482.913 5V7ZM494.917 7L500.919 7V5L494.917 5V7ZM506.921 7L512.923 7V5L506.921 5V7ZM518.925 7L524.927 7V5L518.925 5V7ZM530.929 7L536.931 7V5L530.929 5V7ZM542.933 7L548.935 7V5L542.933 5V7ZM554.937 7L560.94 7V5L554.937 5V7ZM566.942 7L572.944 7V5L566.942 5V7ZM578.946 7L584.948 7V5L578.946 5V7ZM590.95 7L596.952 7V5L590.95 5V7ZM602.954 7L608.956 7V5L602.954 5V7ZM614.958 7L620.96 7V5L614.958 5V7ZM626.962 7L632.964 7V5L626.962 5V7ZM638.966 7L644.969 7V5L638.966 5V7ZM650.971 7L656.973 7V5L650.971 5V7ZM662.975 7L668.977 7V5L662.975 5V7ZM674.979 7L680.981 7V5L674.979 5V7ZM686.983 7L692.985 7V5L686.983 5V7ZM698.987 7L704.989 7V5L698.987 5V7ZM710.991 7L716.993 7V5L710.991 5V7ZM722.996 7L728.998 7V5L722.996 5V7ZM735 7L738 7V5L735 5V7Z" fill="#E5E5E5"/>
<rect x="-1" y="1" width="10" height="10" rx="5" transform="matrix(-1 0 0 1 11 0)" fill="white" stroke="#FF6900" stroke-width="2"/>
</svg>
