<svg width="712" height="12" viewBox="0 0 712 12" fill="none" xmlns="http://www.w3.org/2000/svg">
<path d="M713 7C713.552 7 714 6.55228 714 6C714 5.44772 713.552 5 713 5V7ZM6 11.3333C8.94552 11.3333 11.3333 8.94552 11.3333 6C11.3333 3.05448 8.94552 0.666667 6 0.666667C3.05448 0.666667 0.666667 3.05448 0.666667 6C0.666667 8.94552 3.05448 11.3333 6 11.3333ZM8.99576 7C9.54805 7 9.99576 6.55228 9.99576 6C9.99576 5.44772 9.54805 5 8.99576 5V7ZM14.9873 5C14.435 5 13.9873 5.44772 13.9873 6C13.9873 6.55228 14.435 7 14.9873 7V5ZM20.9788 7C21.5311 7 21.9788 6.55228 21.9788 6C21.9788 5.44772 21.5311 5 20.9788 5V7ZM26.9703 5C26.4181 5 25.9703 5.44772 25.9703 6C25.9703 6.55228 26.4181 7 26.9703 7V5ZM32.9619 7C33.5142 7 33.9619 6.55228 33.9619 6C33.9619 5.44772 33.5142 5 32.9619 5V7ZM38.9534 5C38.4011 5 37.9534 5.44772 37.9534 6C37.9534 6.55228 38.4011 7 38.9534 7V5ZM44.9449 7C45.4972 7 45.9449 6.55228 45.9449 6C45.9449 5.44772 45.4972 5 44.9449 5V7ZM50.9364 5C50.3842 5 49.9364 5.44772 49.9364 6C49.9364 6.55228 50.3842 7 50.9364 7V5ZM56.928 7C57.4803 7 57.928 6.55228 57.928 6C57.928 5.44772 57.4803 5 56.928 5V7ZM62.9195 5C62.3672 5 61.9195 5.44772 61.9195 6C61.9195 6.55228 62.3672 7 62.9195 7V5ZM68.911 7C69.4633 7 69.911 6.55228 69.911 6C69.911 5.44772 69.4633 5 68.911 5V7ZM74.9025 5C74.3503 5 73.9025 5.44772 73.9025 6C73.9025 6.55228 74.3503 7 74.9025 7V5ZM80.8941 7C81.4463 7 81.8941 6.55228 81.8941 6C81.8941 5.44772 81.4463 5 80.8941 5V7ZM86.8856 5C86.3333 5 85.8856 5.44772 85.8856 6C85.8856 6.55228 86.3333 7 86.8856 7V5ZM92.8771 7C93.4294 7 93.8771 6.55228 93.8771 6C93.8771 5.44772 93.4294 5 92.8771 5V7ZM98.8686 5C98.3163 5 97.8686 5.44772 97.8686 6C97.8686 6.55228 98.3163 7 98.8686 7V5ZM104.86 7C105.412 7 105.86 6.55228 105.86 6C105.86 5.44772 105.412 5 104.86 5V7ZM110.852 5C110.299 5 109.852 5.44772 109.852 6C109.852 6.55228 110.299 7 110.852 7V5ZM116.843 7C117.395 7 117.843 6.55228 117.843 6C117.843 5.44772 117.395 5 116.843 5V7ZM122.835 5C122.282 5 121.835 5.44772 121.835 6C121.835 6.55228 122.282 7 122.835 7V5ZM128.826 7C129.379 7 129.826 6.55228 129.826 6C129.826 5.44772 129.379 5 128.826 5V7ZM134.818 5C134.266 5 133.818 5.44772 133.818 6C133.818 6.55228 134.266 7 134.818 7V5ZM140.809 7C141.362 7 141.809 6.55228 141.809 6C141.809 5.44772 141.362 5 140.809 5V7ZM146.801 5C146.249 5 145.801 5.44772 145.801 6C145.801 6.55228 146.249 7 146.801 7V5ZM152.792 7C153.345 7 153.792 6.55228 153.792 6C153.792 5.44772 153.345 5 152.792 5V7ZM158.784 5C158.232 5 157.784 5.44772 157.784 6C157.784 6.55228 158.232 7 158.784 7V5ZM164.775 7C165.328 7 165.775 6.55228 165.775 6C165.775 5.44772 165.328 5 164.775 5V7ZM170.767 5C170.215 5 169.767 5.44772 169.767 6C169.767 6.55228 170.215 7 170.767 7V5ZM176.758 7C177.311 7 177.758 6.55228 177.758 6C177.758 5.44772 177.311 5 176.758 5V7ZM182.75 5C182.198 5 181.75 5.44772 181.75 6C181.75 6.55228 182.198 7 182.75 7V5ZM188.742 7C189.294 7 189.742 6.55228 189.742 6C189.742 5.44772 189.294 5 188.742 5V7ZM194.733 5C194.181 5 193.733 5.44772 193.733 6C193.733 6.55228 194.181 7 194.733 7V5ZM200.725 7C201.277 7 201.725 6.55228 201.725 6C201.725 5.44772 201.277 5 200.725 5V7ZM206.716 5C206.164 5 205.716 5.44772 205.716 6C205.716 6.55228 206.164 7 206.716 7V5ZM212.708 7C213.26 7 213.708 6.55228 213.708 6C213.708 5.44772 213.26 5 212.708 5V7ZM218.699 5C218.147 5 217.699 5.44772 217.699 6C217.699 6.55228 218.147 7 218.699 7V5ZM224.691 7C225.243 7 225.691 6.55228 225.691 6C225.691 5.44772 225.243 5 224.691 5V7ZM230.682 5C230.13 5 229.682 5.44772 229.682 6C229.682 6.55228 230.13 7 230.682 7V5ZM236.674 7C237.226 7 237.674 6.55228 237.674 6C237.674 5.44772 237.226 5 236.674 5V7ZM242.665 5C242.113 5 241.665 5.44772 241.665 6C241.665 6.55228 242.113 7 242.665 7V5ZM248.657 7C249.209 7 249.657 6.55228 249.657 6C249.657 5.44772 249.209 5 248.657 5V7ZM254.648 5C254.096 5 253.648 5.44772 253.648 6C253.648 6.55228 254.096 7 254.648 7V5ZM260.64 7C261.192 7 261.64 6.55228 261.64 6C261.64 5.44772 261.192 5 260.64 5V7ZM266.631 5C266.079 5 265.631 5.44772 265.631 6C265.631 6.55228 266.079 7 266.631 7V5ZM272.623 7C273.175 7 273.623 6.55228 273.623 6C273.623 5.44772 273.175 5 272.623 5V7ZM278.615 5C278.062 5 277.615 5.44772 277.615 6C277.615 6.55228 278.062 7 278.615 7V5ZM284.606 7C285.158 7 285.606 6.55228 285.606 6C285.606 5.44772 285.158 5 284.606 5V7ZM290.598 5C290.045 5 289.598 5.44772 289.598 6C289.598 6.55228 290.045 7 290.598 7V5ZM296.589 7C297.141 7 297.589 6.55228 297.589 6C297.589 5.44772 297.141 5 296.589 5V7ZM302.581 5C302.028 5 301.581 5.44772 301.581 6C301.581 6.55228 302.028 7 302.581 7V5ZM308.572 7C309.124 7 309.572 6.55228 309.572 6C309.572 5.44772 309.124 5 308.572 5V7ZM314.564 5C314.011 5 313.564 5.44772 313.564 6C313.564 6.55228 314.011 7 314.564 7V5ZM320.555 7C321.107 7 321.555 6.55228 321.555 6C321.555 5.44772 321.107 5 320.555 5V7ZM326.547 5C325.994 5 325.547 5.44772 325.547 6C325.547 6.55228 325.994 7 326.547 7V5ZM332.538 7C333.09 7 333.538 6.55228 333.538 6C333.538 5.44772 333.09 5 332.538 5V7ZM338.53 5C337.977 5 337.53 5.44772 337.53 6C337.53 6.55228 337.977 7 338.53 7V5ZM344.521 7C345.073 7 345.521 6.55228 345.521 6C345.521 5.44772 345.073 5 344.521 5V7ZM350.513 5C349.96 5 349.513 5.44772 349.513 6C349.513 6.55228 349.96 7 350.513 7V5ZM356.504 7C357.056 7 357.504 6.55228 357.504 6C357.504 5.44772 357.056 5 356.504 5V7ZM362.496 5C361.943 5 361.496 5.44772 361.496 6C361.496 6.55228 361.943 7 362.496 7V5ZM368.487 7C369.04 7 369.487 6.55228 369.487 6C369.487 5.44772 369.04 5 368.487 5V7ZM374.479 5C373.926 5 373.479 5.44772 373.479 6C373.479 6.55228 373.926 7 374.479 7V5ZM380.47 7C381.023 7 381.47 6.55228 381.47 6C381.47 5.44772 381.023 5 380.47 5V7ZM386.462 5C385.909 5 385.462 5.44772 385.462 6C385.462 6.55228 385.909 7 386.462 7V5ZM392.453 7C393.006 7 393.453 6.55228 393.453 6C393.453 5.44772 393.006 5 392.453 5V7ZM398.445 5C397.893 5 397.445 5.44772 397.445 6C397.445 6.55228 397.893 7 398.445 7V5ZM404.436 7C404.989 7 405.436 6.55228 405.436 6C405.436 5.44772 404.989 5 404.436 5V7ZM410.428 5C409.876 5 409.428 5.44772 409.428 6C409.428 6.55228 409.876 7 410.428 7V5ZM416.419 7C416.972 7 417.419 6.55228 417.419 6C417.419 5.44772 416.972 5 416.419 5V7ZM422.411 5C421.859 5 421.411 5.44772 421.411 6C421.411 6.55228 421.859 7 422.411 7V5ZM428.402 7C428.955 7 429.402 6.55228 429.402 6C429.402 5.44772 428.955 5 428.402 5V7ZM434.394 5C433.842 5 433.394 5.44772 433.394 6C433.394 6.55228 433.842 7 434.394 7V5ZM440.385 7C440.938 7 441.385 6.55228 441.385 6C441.385 5.44772 440.938 5 440.385 5V7ZM446.377 5C445.825 5 445.377 5.44772 445.377 6C445.377 6.55228 445.825 7 446.377 7V5ZM452.368 7C452.921 7 453.368 6.55228 453.368 6C453.368 5.44772 452.921 5 452.368 5V7ZM458.36 5C457.808 5 457.36 5.44772 457.36 6C457.36 6.55228 457.808 7 458.36 7V5ZM464.352 7C464.904 7 465.352 6.55228 465.352 6C465.352 5.44772 464.904 5 464.352 5V7ZM470.343 5C469.791 5 469.343 5.44772 469.343 6C469.343 6.55228 469.791 7 470.343 7V5ZM476.335 7C476.887 7 477.335 6.55228 477.335 6C477.335 5.44772 476.887 5 476.335 5V7ZM482.326 5C481.774 5 481.326 5.44772 481.326 6C481.326 6.55228 481.774 7 482.326 7V5ZM488.318 7C488.87 7 489.318 6.55228 489.318 6C489.318 5.44772 488.87 5 488.318 5V7ZM494.309 5C493.757 5 493.309 5.44772 493.309 6C493.309 6.55228 493.757 7 494.309 7V5ZM500.301 7C500.853 7 501.301 6.55228 501.301 6C501.301 5.44772 500.853 5 500.301 5V7ZM506.292 5C505.74 5 505.292 5.44772 505.292 6C505.292 6.55228 505.74 7 506.292 7V5ZM512.284 7C512.836 7 513.284 6.55228 513.284 6C513.284 5.44772 512.836 5 512.284 5V7ZM518.275 5C517.723 5 517.275 5.44772 517.275 6C517.275 6.55228 517.723 7 518.275 7V5ZM524.267 7C524.819 7 525.267 6.55228 525.267 6C525.267 5.44772 524.819 5 524.267 5V7ZM530.258 5C529.706 5 529.258 5.44772 529.258 6C529.258 6.55228 529.706 7 530.258 7V5ZM536.25 7C536.802 7 537.25 6.55228 537.25 6C537.25 5.44772 536.802 5 536.25 5V7ZM542.241 5C541.689 5 541.241 5.44772 541.241 6C541.241 6.55228 541.689 7 542.241 7V5ZM548.233 7C548.785 7 549.233 6.55228 549.233 6C549.233 5.44772 548.785 5 548.233 5V7ZM554.224 5C553.672 5 553.224 5.44772 553.224 6C553.224 6.55228 553.672 7 554.224 7V5ZM560.216 7C560.768 7 561.216 6.55228 561.216 6C561.216 5.44772 560.768 5 560.216 5V7ZM566.207 5C565.655 5 565.207 5.44772 565.207 6C565.207 6.55228 565.655 7 566.207 7V5ZM572.199 7C572.751 7 573.199 6.55228 573.199 6C573.199 5.44772 572.751 5 572.199 5V7ZM578.19 5C577.638 5 577.19 5.44772 577.19 6C577.19 6.55228 577.638 7 578.19 7V5ZM584.182 7C584.734 7 585.182 6.55228 585.182 6C585.182 5.44772 584.734 5 584.182 5V7ZM590.173 5C589.621 5 589.173 5.44772 589.173 6C589.173 6.55228 589.621 7 590.173 7V5ZM596.165 7C596.717 7 597.165 6.55228 597.165 6C597.165 5.44772 596.717 5 596.165 5V7ZM602.156 5C601.604 5 601.156 5.44772 601.156 6C601.156 6.55228 601.604 7 602.156 7V5ZM608.148 7C608.7 7 609.148 6.55228 609.148 6C609.148 5.44772 608.7 5 608.148 5V7ZM614.139 5C613.587 5 613.139 5.44772 613.139 6C613.139 6.55228 613.587 7 614.139 7V5ZM620.131 7C620.683 7 621.131 6.55228 621.131 6C621.131 5.44772 620.683 5 620.131 5V7ZM626.122 5C625.57 5 625.122 5.44772 625.122 6C625.122 6.55228 625.57 7 626.122 7V5ZM632.114 7C632.666 7 633.114 6.55228 633.114 6C633.114 5.44772 632.666 5 632.114 5V7ZM638.105 5C637.553 5 637.105 5.44772 637.105 6C637.105 6.55228 637.553 7 638.105 7V5ZM644.097 7C644.649 7 645.097 6.55228 645.097 6C645.097 5.44772 644.649 5 644.097 5V7ZM650.089 5C649.536 5 649.089 5.44772 649.089 6C649.089 6.55228 649.536 7 650.089 7V5ZM656.08 7C656.632 7 657.08 6.55228 657.08 6C657.08 5.44772 656.632 5 656.08 5V7ZM662.072 5C661.519 5 661.072 5.44772 661.072 6C661.072 6.55228 661.519 7 662.072 7V5ZM668.063 7C668.615 7 669.063 6.55228 669.063 6C669.063 5.44772 668.615 5 668.063 5V7ZM674.055 5C673.502 5 673.055 5.44772 673.055 6C673.055 6.55228 673.502 7 674.055 7V5ZM680.046 7C680.598 7 681.046 6.55228 681.046 6C681.046 5.44772 680.598 5 680.046 5V7ZM686.038 5C685.485 5 685.038 5.44772 685.038 6C685.038 6.55228 685.485 7 686.038 7V5ZM692.029 7C692.581 7 693.029 6.55228 693.029 6C693.029 5.44772 692.581 5 692.029 5V7ZM698.021 5C697.468 5 697.021 5.44772 697.021 6C697.021 6.55228 697.468 7 698.021 7V5ZM704.012 7C704.564 7 705.012 6.55228 705.012 6C705.012 5.44772 704.564 5 704.012 5V7ZM710.004 5C709.451 5 709.004 5.44772 709.004 6C709.004 6.55228 709.451 7 710.004 7V5ZM6 7L8.99576 7V5L6 5V7ZM14.9873 7L20.9788 7V5L14.9873 5V7ZM26.9703 7L32.9619 7V5L26.9703 5V7ZM38.9534 7L44.9449 7V5L38.9534 5V7ZM50.9364 7L56.928 7V5L50.9364 5V7ZM62.9195 7L68.911 7V5L62.9195 5V7ZM74.9025 7L80.8941 7V5L74.9025 5V7ZM86.8856 7L92.8771 7V5L86.8856 5V7ZM98.8686 7L104.86 7V5L98.8686 5V7ZM110.852 7L116.843 7V5L110.852 5V7ZM122.835 7L128.826 7V5L122.835 5V7ZM134.818 7L140.809 7V5L134.818 5V7ZM146.801 7L152.792 7V5L146.801 5V7ZM158.784 7L164.775 7V5L158.784 5V7ZM170.767 7L176.758 7V5L170.767 5V7ZM182.75 7L188.742 7V5L182.75 5V7ZM194.733 7L200.725 7V5L194.733 5V7ZM206.716 7L212.708 7V5L206.716 5V7ZM218.699 7L224.691 7V5L218.699 5V7ZM230.682 7L236.674 7V5L230.682 5V7ZM242.665 7L248.657 7V5L242.665 5V7ZM254.648 7L260.64 7V5L254.648 5V7ZM266.631 7L272.623 7V5L266.631 5V7ZM278.615 7L284.606 7V5L278.615 5V7ZM290.598 7L296.589 7V5L290.598 5V7ZM302.581 7L308.572 7V5L302.581 5V7ZM314.564 7L320.555 7V5L314.564 5V7ZM326.547 7L332.538 7V5L326.547 5V7ZM338.53 7L344.521 7V5L338.53 5V7ZM350.513 7L356.504 7V5L350.513 5V7ZM362.496 7L368.487 7V5L362.496 5V7ZM374.479 7L380.47 7V5L374.479 5V7ZM386.462 7L392.453 7V5L386.462 5V7ZM398.445 7L404.436 7V5L398.445 5V7ZM410.428 7L416.419 7V5L410.428 5V7ZM422.411 7L428.402 7V5L422.411 5V7ZM434.394 7L440.385 7V5L434.394 5V7ZM446.377 7L452.368 7V5L446.377 5V7ZM458.36 7L464.352 7V5L458.36 5V7ZM470.343 7L476.335 7V5L470.343 5V7ZM482.326 7L488.318 7V5L482.326 5V7ZM494.309 7L500.301 7V5L494.309 5V7ZM506.292 7L512.284 7V5L506.292 5V7ZM518.275 7L524.267 7V5L518.275 5V7ZM530.258 7L536.25 7V5L530.258 5V7ZM542.241 7L548.233 7V5L542.241 5V7ZM554.224 7L560.216 7V5L554.224 5V7ZM566.207 7L572.199 7V5L566.207 5V7ZM578.19 7L584.182 7V5L578.19 5V7ZM590.173 7L596.165 7V5L590.173 5V7ZM602.156 7L608.148 7V5L602.156 5V7ZM614.139 7L620.131 7V5L614.139 5V7ZM626.122 7L632.114 7V5L626.122 5V7ZM638.105 7L644.097 7V5L638.105 5V7ZM650.089 7L656.08 7V5L650.089 5V7ZM662.072 7L668.063 7V5L662.072 5V7ZM674.055 7L680.046 7V5L674.055 5V7ZM686.038 7L692.029 7V5L686.038 5V7ZM698.021 7L704.012 7V5L698.021 5V7ZM710.004 7L713 7V5L710.004 5V7Z" fill="#E5E5E5"/>
<rect x="-1" y="1" width="10" height="10" rx="5" transform="matrix(-1 0 0 1 10 0)" fill="white" stroke="#FF6900" stroke-width="2"/>
</svg>
