<svg width="372" height="373" viewBox="0 0 372 373" fill="none" xmlns="http://www.w3.org/2000/svg">
<path d="M2 371.5C2 372.052 1.55228 372.5 1 372.5C0.447715 372.5 0 372.052 0 371.5H2ZM382.167 259C382.167 256.054 384.554 253.667 387.5 253.667C390.446 253.667 392.833 256.054 392.833 259C392.833 261.946 390.446 264.333 387.5 264.333C384.554 264.333 382.167 261.946 382.167 259ZM0 368.479C0 367.927 0.447715 367.479 1 367.479C1.55228 367.479 2 367.927 2 368.479H0ZM2 362.438C2 362.99 1.55228 363.438 1 363.438C0.447715 363.438 0 362.99 0 362.438H2ZM0 356.396C0 355.844 0.447715 355.396 1 355.396C1.55228 355.396 2 355.844 2 356.396H0ZM2 350.354C2 350.906 1.55228 351.354 1 351.354C0.447715 351.354 0 350.906 0 350.354H2ZM0 344.313C0 343.76 0.447715 343.313 1 343.313C1.55228 343.313 2 343.76 2 344.313H0ZM2 338.271C2 338.823 1.55228 339.271 1 339.271C0.447715 339.271 0 338.823 0 338.271H2ZM0 332.229C0 331.677 0.447715 331.229 1 331.229C1.55228 331.229 2 331.677 2 332.229H0ZM2 326.188C2 326.74 1.55228 327.188 1 327.188C0.447715 327.188 0 326.74 0 326.188H2ZM0 320.146C0 319.594 0.447715 319.146 1 319.146C1.55228 319.146 2 319.594 2 320.146H0ZM2 314.104C2 314.656 1.55228 315.104 1 315.104C0.447715 315.104 0 314.656 0 314.104H2ZM0 308.062C0 307.51 0.447715 307.062 1 307.062C1.55228 307.062 2 307.51 2 308.062H0ZM2 302.021C2 302.573 1.55228 303.021 1 303.021C0.447715 303.021 0 302.573 0 302.021H2ZM0.12455 295.781C0.167327 295.23 0.648374 294.819 1.199 294.862C1.74963 294.904 2.16132 295.385 2.11854 295.936L0.12455 295.781ZM3.06931 289.891C2.9408 290.428 2.4012 290.759 1.86407 290.631C1.32695 290.502 0.995697 289.963 1.12421 289.425L3.06931 289.891ZM3.1115 283.305C3.32305 282.795 3.90812 282.553 4.41828 282.765C4.92844 282.976 5.1705 283.561 4.95895 284.072L3.1115 283.305ZM7.74139 278.621C7.45238 279.092 6.83657 279.239 6.36594 278.95C5.89531 278.661 5.74808 278.045 6.03709 277.574L7.74139 278.621ZM9.82292 272.372C10.1818 271.952 10.813 271.903 11.2328 272.262C11.6526 272.621 11.702 273.252 11.3431 273.672L9.82292 272.372ZM15.6716 269.343C15.2518 269.702 14.6206 269.653 14.2617 269.233C13.9028 268.813 13.9522 268.182 14.372 267.823L15.6716 269.343ZM19.5743 264.037C20.0449 263.748 20.6608 263.895 20.9498 264.366C21.2388 264.837 21.0915 265.452 20.6209 265.741L19.5743 264.037ZM26.0715 262.959C25.5614 263.171 24.9763 262.928 24.7648 262.418C24.5532 261.908 24.7953 261.323 25.3054 261.111L26.0715 262.959ZM31.4255 259.124C31.9626 258.996 32.5022 259.327 32.6307 259.864C32.7592 260.401 32.428 260.941 31.8908 261.069L31.4255 259.124ZM37.936 260.119C37.3854 260.161 36.9043 259.75 36.8615 259.199C36.8188 258.648 37.2305 258.167 37.7811 258.125L37.936 260.119ZM43.9871 258C44.5394 258 44.9871 258.448 44.9871 259C44.9871 259.552 44.5394 260 43.9871 260V258ZM49.9612 260C49.4089 260 48.9612 259.552 48.9612 259C48.9612 258.448 49.4089 258 49.9612 258V260ZM55.9353 258C56.4876 258 56.9353 258.448 56.9353 259C56.9353 259.552 56.4876 260 55.9353 260V258ZM61.9095 260C61.3572 260 60.9095 259.552 60.9095 259C60.9095 258.448 61.3572 258 61.9095 258V260ZM67.8836 258C68.4359 258 68.8836 258.448 68.8836 259C68.8836 259.552 68.4359 260 67.8836 260V258ZM73.8578 260C73.3055 260 72.8578 259.552 72.8578 259C72.8578 258.448 73.3055 258 73.8578 258V260ZM79.8319 258C80.3842 258 80.8319 258.448 80.8319 259C80.8319 259.552 80.3842 260 79.8319 260V258ZM85.806 260C85.2537 260 84.806 259.552 84.806 259C84.806 258.448 85.2537 258 85.806 258V260ZM91.7802 258C92.3325 258 92.7802 258.448 92.7802 259C92.7802 259.552 92.3325 260 91.7802 260V258ZM97.7543 260C97.202 260 96.7543 259.552 96.7543 259C96.7543 258.448 97.202 258 97.7543 258V260ZM103.728 258C104.281 258 104.728 258.448 104.728 259C104.728 259.552 104.281 260 103.728 260V258ZM109.703 260C109.15 260 108.703 259.552 108.703 259C108.703 258.448 109.15 258 109.703 258V260ZM115.677 258C116.229 258 116.677 258.448 116.677 259C116.677 259.552 116.229 260 115.677 260V258ZM121.651 260C121.099 260 120.651 259.552 120.651 259C120.651 258.448 121.099 258 121.651 258V260ZM127.625 258C128.177 258 128.625 258.448 128.625 259C128.625 259.552 128.177 260 127.625 260V258ZM133.599 260C133.047 260 132.599 259.552 132.599 259C132.599 258.448 133.047 258 133.599 258V260ZM139.573 258C140.126 258 140.573 258.448 140.573 259C140.573 259.552 140.126 260 139.573 260V258ZM145.547 260C144.995 260 144.547 259.552 144.547 259C144.547 258.448 144.995 258 145.547 258V260ZM151.522 258C152.074 258 152.522 258.448 152.522 259C152.522 259.552 152.074 260 151.522 260V258ZM157.496 260C156.943 260 156.496 259.552 156.496 259C156.496 258.448 156.943 258 157.496 258V260ZM163.47 258C164.022 258 164.47 258.448 164.47 259C164.47 259.552 164.022 260 163.47 260V258ZM169.444 260C168.892 260 168.444 259.552 168.444 259C168.444 258.448 168.892 258 169.444 258V260ZM175.418 258C175.97 258 176.418 258.448 176.418 259C176.418 259.552 175.97 260 175.418 260V258ZM181.392 260C180.84 260 180.392 259.552 180.392 259C180.392 258.448 180.84 258 181.392 258V260ZM187.366 258C187.919 258 188.366 258.448 188.366 259C188.366 259.552 187.919 260 187.366 260V258ZM193.34 260C192.788 260 192.34 259.552 192.34 259C192.34 258.448 192.788 258 193.34 258V260ZM199.315 258C199.867 258 200.315 258.448 200.315 259C200.315 259.552 199.867 260 199.315 260V258ZM205.289 260C204.736 260 204.289 259.552 204.289 259C204.289 258.448 204.736 258 205.289 258V260ZM211.263 258C211.815 258 212.263 258.448 212.263 259C212.263 259.552 211.815 260 211.263 260V258ZM217.237 260C216.685 260 216.237 259.552 216.237 259C216.237 258.448 216.685 258 217.237 258V260ZM223.211 258C223.763 258 224.211 258.448 224.211 259C224.211 259.552 223.763 260 223.211 260V258ZM229.185 260C228.633 260 228.185 259.552 228.185 259C228.185 258.448 228.633 258 229.185 258V260ZM235.159 258C235.712 258 236.159 258.448 236.159 259C236.159 259.552 235.712 260 235.159 260V258ZM241.134 260C240.581 260 240.134 259.552 240.134 259C240.134 258.448 240.581 258 241.134 258V260ZM247.108 258C247.66 258 248.108 258.448 248.108 259C248.108 259.552 247.66 260 247.108 260V258ZM253.082 260C252.53 260 252.082 259.552 252.082 259C252.082 258.448 252.53 258 253.082 258V260ZM259.056 258C259.608 258 260.056 258.448 260.056 259C260.056 259.552 259.608 260 259.056 260V258ZM265.03 260C264.478 260 264.03 259.552 264.03 259C264.03 258.448 264.478 258 265.03 258V260ZM271.004 258C271.557 258 272.004 258.448 272.004 259C272.004 259.552 271.557 260 271.004 260V258ZM276.978 260C276.426 260 275.978 259.552 275.978 259C275.978 258.448 276.426 258 276.978 258V260ZM282.953 258C283.505 258 283.953 258.448 283.953 259C283.953 259.552 283.505 260 282.953 260V258ZM288.927 260C288.374 260 287.927 259.552 287.927 259C287.927 258.448 288.374 258 288.927 258V260ZM294.901 258C295.453 258 295.901 258.448 295.901 259C295.901 259.552 295.453 260 294.901 260V258ZM300.875 260C300.323 260 299.875 259.552 299.875 259C299.875 258.448 300.323 258 300.875 258V260ZM306.849 258C307.401 258 307.849 258.448 307.849 259C307.849 259.552 307.401 260 306.849 260V258ZM312.823 260C312.271 260 311.823 259.552 311.823 259C311.823 258.448 312.271 258 312.823 258V260ZM318.797 258C319.35 258 319.797 258.448 319.797 259C319.797 259.552 319.35 260 318.797 260V258ZM324.772 260C324.219 260 323.772 259.552 323.772 259C323.772 258.448 324.219 258 324.772 258V260ZM330.746 258C331.298 258 331.746 258.448 331.746 259C331.746 259.552 331.298 260 330.746 260V258ZM336.72 260C336.168 260 335.72 259.552 335.72 259C335.72 258.448 336.168 258 336.72 258V260ZM342.694 258C343.246 258 343.694 258.448 343.694 259C343.694 259.552 343.246 260 342.694 260V258ZM348.668 260C348.116 260 347.668 259.552 347.668 259C347.668 258.448 348.116 258 348.668 258V260ZM354.642 258C355.195 258 355.642 258.448 355.642 259C355.642 259.552 355.195 260 354.642 260V258ZM360.616 260C360.064 260 359.616 259.552 359.616 259C359.616 258.448 360.064 258 360.616 258V260ZM366.591 258C367.143 258 367.591 258.448 367.591 259C367.591 259.552 367.143 260 366.591 260V258ZM372.565 260C372.012 260 371.565 259.552 371.565 259C371.565 258.448 372.012 258 372.565 258V260ZM378.539 258C379.091 258 379.539 258.448 379.539 259C379.539 259.552 379.091 260 378.539 260V258ZM384.513 260C383.961 260 383.513 259.552 383.513 259C383.513 258.448 383.961 258 384.513 258V260ZM0 371.5V368.479H2V371.5H0ZM0 362.438L0 356.396H2L2 362.438H0ZM0 350.354V344.313H2L2 350.354H0ZM0 338.271L0 332.229H2L2 338.271H0ZM0 326.188L0 320.146H2V326.188H0ZM0 314.104L0 308.062H2V314.104H0ZM0 302.021V299H2V302.021H0ZM0 299C0 297.917 0.0420209 296.843 0.12455 295.781L2.11854 295.936C2.04001 296.947 2 297.969 2 299H0ZM1.12421 289.425C1.62854 287.318 2.29565 285.273 3.1115 283.305L4.95895 284.072C4.18317 285.942 3.54886 287.886 3.06931 289.891L1.12421 289.425ZM6.03709 277.574C7.16374 275.74 8.43068 274.001 9.82292 272.372L11.3431 273.672C10.0184 275.221 8.8131 276.876 7.74139 278.621L6.03709 277.574ZM14.372 267.823C16.0006 266.431 17.7396 265.164 19.5743 264.037L20.6209 265.741C18.8757 266.813 17.2212 268.018 15.6716 269.343L14.372 267.823ZM25.3054 261.111C27.2728 260.296 29.3175 259.629 31.4255 259.124L31.8908 261.069C29.8865 261.549 27.9423 262.183 26.0715 262.959L25.3054 261.111ZM37.7811 258.125C38.8434 258.042 39.9169 258 41 258V260C39.9686 260 38.9468 260.04 37.936 260.119L37.7811 258.125ZM41 258H43.9871V260H41V258ZM49.9612 258H55.9353V260H49.9612V258ZM61.9095 258H67.8836V260H61.9095V258ZM73.8578 258H79.8319V260H73.8578V258ZM85.806 258H91.7802V260H85.806V258ZM97.7543 258H103.728V260H97.7543V258ZM109.703 258H115.677V260H109.703V258ZM121.651 258H127.625V260H121.651V258ZM133.599 258H139.573V260H133.599V258ZM145.547 258H151.522V260H145.547V258ZM157.496 258H163.47V260H157.496V258ZM169.444 258H175.418V260H169.444V258ZM181.392 258H187.366V260H181.392V258ZM193.34 258H199.315V260H193.34V258ZM205.289 258H211.263V260H205.289V258ZM217.237 258H223.211V260H217.237V258ZM229.185 258H235.159V260H229.185V258ZM241.134 258H247.108V260H241.134V258ZM253.082 258H259.056V260H253.082V258ZM265.03 258H271.004V260H265.03V258ZM276.978 258H282.953V260H276.978V258ZM288.927 258H294.901V260H288.927V258ZM300.875 258H306.849V260H300.875V258ZM312.823 258H318.797V260H312.823V258ZM324.772 258H330.746V260H324.772V258ZM336.72 258H342.694V260H336.72V258ZM348.668 258H354.642V260H348.668V258ZM360.616 258H366.591V260H360.616V258ZM372.565 258H378.539V260H372.565V258ZM384.513 258H387.5V260H384.513V258Z" fill="#E5E5E5"/>
<path d="M177.029 257.494C177.029 258.046 176.582 258.494 176.029 258.494C175.477 258.494 175.029 258.046 175.029 257.494L177.029 257.494ZM175.029 254.505C175.029 253.953 175.477 253.505 176.029 253.505C176.582 253.505 177.029 253.953 177.029 254.505L175.029 254.505ZM177.029 248.529C177.029 249.081 176.582 249.529 176.029 249.529C175.477 249.529 175.029 249.081 175.029 248.529L177.029 248.529ZM175.029 242.552C175.029 242 175.477 241.552 176.029 241.552C176.582 241.552 177.029 242 177.029 242.552L175.029 242.552ZM177.029 236.576C177.029 237.128 176.582 237.576 176.029 237.576C175.477 237.576 175.029 237.128 175.029 236.576L177.029 236.576ZM175.029 230.599C175.029 230.047 175.477 229.599 176.029 229.599C176.582 229.599 177.029 230.047 177.029 230.599L175.029 230.599ZM177.029 224.622C177.029 225.175 176.582 225.622 176.029 225.622C175.477 225.622 175.029 225.175 175.029 224.622L177.029 224.622ZM175.029 218.646C175.029 218.094 175.477 217.646 176.029 217.646C176.582 217.646 177.029 218.094 177.029 218.646L175.029 218.646ZM177.029 212.669C177.029 213.221 176.582 213.669 176.029 213.669C175.477 213.669 175.029 213.221 175.029 212.669L177.029 212.669ZM175.029 206.693C175.029 206.14 175.477 205.693 176.029 205.693C176.582 205.693 177.029 206.14 177.029 206.693L175.029 206.693ZM177.029 200.716C177.029 201.268 176.582 201.716 176.029 201.716C175.477 201.716 175.029 201.268 175.029 200.716L177.029 200.716ZM175.029 194.739C175.029 194.187 175.477 193.739 176.029 193.739C176.581 193.739 177.029 194.187 177.029 194.739L175.029 194.739ZM177.029 188.763C177.029 189.315 176.581 189.763 176.029 189.763C175.477 189.763 175.029 189.315 175.029 188.763L177.029 188.763ZM175.029 182.786C175.029 182.234 175.477 181.786 176.029 181.786C176.581 181.786 177.029 182.234 177.029 182.786L175.029 182.786ZM177.029 176.81C177.029 177.362 176.581 177.81 176.029 177.81C175.477 177.81 175.029 177.362 175.029 176.81L177.029 176.81ZM175.029 170.833C175.029 170.281 175.477 169.833 176.029 169.833C176.581 169.833 177.029 170.281 177.029 170.833L175.029 170.833ZM177.029 164.856C177.029 165.409 176.581 165.856 176.029 165.856C175.477 165.856 175.029 165.409 175.029 164.856L177.029 164.856ZM175.029 158.88C175.029 158.328 175.477 157.88 176.029 157.88C176.581 157.88 177.029 158.328 177.029 158.88L175.029 158.88ZM177.029 152.903C177.029 153.456 176.581 153.903 176.029 153.903C175.477 153.903 175.029 153.456 175.029 152.903L177.029 152.903ZM175.029 146.927C175.029 146.374 175.477 145.927 176.029 145.927C176.581 145.927 177.029 146.374 177.029 146.927L175.029 146.927ZM177.029 140.95C177.029 141.502 176.581 141.95 176.029 141.95C175.477 141.95 175.029 141.502 175.029 140.95L177.029 140.95ZM175.029 134.973C175.029 134.421 175.477 133.973 176.029 133.973C176.581 133.973 177.029 134.421 177.029 134.973L175.029 134.973ZM177.029 128.997C177.029 129.549 176.581 129.997 176.029 129.997C175.477 129.997 175.029 129.549 175.029 128.997L177.029 128.997ZM175.029 123.02C175.029 122.468 175.477 122.02 176.029 122.02C176.581 122.02 177.029 122.468 177.029 123.02L175.029 123.02ZM177.029 117.044C177.029 117.596 176.581 118.044 176.029 118.044C175.477 118.044 175.029 117.596 175.029 117.044L177.029 117.044ZM175.029 111.067C175.029 110.515 175.477 110.067 176.029 110.067C176.581 110.067 177.029 110.515 177.029 111.067L175.029 111.067ZM177.029 105.091C177.029 105.643 176.581 106.091 176.029 106.091C175.477 106.091 175.029 105.643 175.029 105.091L177.029 105.091ZM175.029 99.1139C175.029 98.5616 175.476 98.1139 176.029 98.1139C176.581 98.1139 177.029 98.5616 177.029 99.1139L175.029 99.1139ZM177.029 93.1373C177.029 93.6896 176.581 94.1373 176.029 94.1373C175.476 94.1373 175.029 93.6896 175.029 93.1373L177.029 93.1373ZM175.029 87.1607C175.029 86.6084 175.476 86.1607 176.029 86.1607C176.581 86.1607 177.029 86.6084 177.029 87.1607L175.029 87.1607ZM177.029 81.1841C177.029 81.7364 176.581 82.1841 176.029 82.1841C175.476 82.1841 175.029 81.7364 175.029 81.1841L177.029 81.1841ZM175.029 75.2075C175.029 74.6553 175.476 74.2075 176.029 74.2075C176.581 74.2075 177.029 74.6553 177.029 75.2075L175.029 75.2075ZM177.029 69.2309C177.029 69.7832 176.581 70.2309 176.029 70.2309C175.476 70.2309 175.029 69.7832 175.029 69.2309L177.029 69.2309ZM175.029 63.2544C175.029 62.7021 175.476 62.2544 176.029 62.2544C176.581 62.2543 177.029 62.7021 177.029 63.2544L175.029 63.2544ZM177.029 57.2778C177.029 57.83 176.581 58.2778 176.029 58.2778C175.476 58.2778 175.029 57.83 175.029 57.2778L177.029 57.2778ZM175.029 51.3012C175.029 50.7489 175.476 50.3012 176.029 50.3012C176.581 50.3011 177.029 50.7489 177.029 51.3012L175.029 51.3012ZM177.029 45.3246C177.029 45.8768 176.581 46.3246 176.029 46.3246C175.476 46.3246 175.029 45.8769 175.029 45.3246L177.029 45.3246ZM175.028 39.348C175.028 38.7957 175.476 38.348 176.028 38.348C176.581 38.348 177.028 38.7957 177.028 39.348L175.028 39.348ZM177.028 33.3714C177.028 33.9237 176.581 34.3714 176.028 34.3714C175.476 34.3714 175.028 33.9237 175.028 33.3714L177.028 33.3714ZM175.028 27.3948C175.028 26.8425 175.476 26.3948 176.028 26.3948C176.581 26.3948 177.028 26.8425 177.028 27.3948L175.028 27.3948ZM177.028 21.4182C177.028 21.9705 176.581 22.4182 176.028 22.4182C175.476 22.4182 175.028 21.9705 175.028 21.4182L177.028 21.4182ZM175.028 15.4416C175.028 14.8893 175.476 14.4416 176.028 14.4416C176.581 14.4416 177.028 14.8893 177.028 15.4416L175.028 15.4416ZM177.028 9.46499C177.028 10.0173 176.581 10.465 176.028 10.465C175.476 10.465 175.028 10.0173 175.028 9.46502L177.028 9.46499ZM175.028 3.48843C175.028 2.93613 175.476 2.48843 176.028 2.48842C176.581 2.48842 177.028 2.93612 177.028 3.48841L175.028 3.48843ZM175.029 257.494L175.029 254.505L177.029 254.505L177.029 257.494L175.029 257.494ZM175.029 248.529L175.029 242.552L177.029 242.552L177.029 248.529L175.029 248.529ZM175.029 236.576L175.029 230.599L177.029 230.599L177.029 236.576L175.029 236.576ZM175.029 224.622L175.029 218.646L177.029 218.646L177.029 224.622L175.029 224.622ZM175.029 212.669L175.029 206.693L177.029 206.693L177.029 212.669L175.029 212.669ZM175.029 200.716L175.029 194.739L177.029 194.739L177.029 200.716L175.029 200.716ZM175.029 188.763L175.029 182.786L177.029 182.786L177.029 188.763L175.029 188.763ZM175.029 176.81L175.029 170.833L177.029 170.833L177.029 176.81L175.029 176.81ZM175.029 164.856L175.029 158.88L177.029 158.88L177.029 164.856L175.029 164.856ZM175.029 152.903L175.029 146.927L177.029 146.927L177.029 152.903L175.029 152.903ZM175.029 140.95L175.029 134.973L177.029 134.973L177.029 140.95L175.029 140.95ZM175.029 128.997L175.029 123.02L177.029 123.02L177.029 128.997L175.029 128.997ZM175.029 117.044L175.029 111.067L177.029 111.067L177.029 117.044L175.029 117.044ZM175.029 105.091L175.029 99.1139L177.029 99.1139L177.029 105.091L175.029 105.091ZM175.029 93.1373L175.029 87.1607L177.029 87.1607L177.029 93.1373L175.029 93.1373ZM175.029 81.1841L175.029 75.2075L177.029 75.2075L177.029 81.1841L175.029 81.1841ZM175.029 69.2309L175.029 63.2544L177.029 63.2544L177.029 69.2309L175.029 69.2309ZM175.029 57.2778L175.029 51.3012L177.029 51.3012L177.029 57.2778L175.029 57.2778ZM175.029 45.3246L175.028 39.348L177.028 39.348L177.029 45.3246L175.029 45.3246ZM175.028 33.3714L175.028 27.3948L177.028 27.3948L177.028 33.3714L175.028 33.3714ZM175.028 21.4182L175.028 15.4416L177.028 15.4416L177.028 21.4182L175.028 21.4182ZM175.028 9.46502L175.028 3.48843L177.028 3.48841L177.028 9.46499L175.028 9.46502Z" fill="#E5E5E5"/>
<rect x="-1.00478" y="-0.995201" width="10" height="10" rx="5" transform="matrix(-0.00478731 -0.999989 -0.999989 0.00478731 180.053 263.005)" fill="white" stroke="#FF6900" stroke-width="2"/>
</svg>
