<svg width="12" height="106" viewBox="0 0 12 106" fill="none" xmlns="http://www.w3.org/2000/svg">
<path d="M6.5 1.5C6.5 0.947715 6.05228 0.5 5.5 0.5C4.94772 0.5 4.5 0.947715 4.5 1.5L6.5 1.5ZM5.5 94.1667C2.55448 94.1667 0.166667 96.5545 0.166667 99.5C0.166667 102.446 2.55448 104.833 5.5 104.833C8.44552 104.833 10.8333 102.446 10.8333 99.5C10.8333 96.5545 8.44552 94.1667 5.5 94.1667ZM4.5 4.5625C4.5 5.11478 4.94772 5.5625 5.5 5.5625C6.05228 5.5625 6.5 5.11478 6.5 4.5625H4.5ZM6.5 10.6875C6.5 10.1352 6.05228 9.6875 5.5 9.6875C4.94772 9.6875 4.5 10.1352 4.5 10.6875H6.5ZM4.5 16.8125C4.5 17.3648 4.94772 17.8125 5.5 17.8125C6.05228 17.8125 6.5 17.3648 6.5 16.8125H4.5ZM6.5 22.9375C6.5 22.3852 6.05228 21.9375 5.5 21.9375C4.94772 21.9375 4.5 22.3852 4.5 22.9375H6.5ZM4.5 29.0625C4.5 29.6148 4.94772 30.0625 5.5 30.0625C6.05228 30.0625 6.5 29.6148 6.5 29.0625H4.5ZM6.5 35.1875C6.5 34.6352 6.05228 34.1875 5.5 34.1875C4.94772 34.1875 4.5 34.6352 4.5 35.1875H6.5ZM4.5 41.3125C4.5 41.8648 4.94772 42.3125 5.5 42.3125C6.05228 42.3125 6.5 41.8648 6.5 41.3125H4.5ZM6.5 47.4375C6.5 46.8852 6.05228 46.4375 5.5 46.4375C4.94772 46.4375 4.5 46.8852 4.5 47.4375H6.5ZM4.5 53.5625C4.5 54.1148 4.94772 54.5625 5.5 54.5625C6.05228 54.5625 6.5 54.1148 6.5 53.5625H4.5ZM6.5 59.6875C6.5 59.1352 6.05228 58.6875 5.5 58.6875C4.94772 58.6875 4.5 59.1352 4.5 59.6875H6.5ZM4.5 65.8125C4.5 66.3648 4.94772 66.8125 5.5 66.8125C6.05228 66.8125 6.5 66.3648 6.5 65.8125H4.5ZM6.5 71.9375C6.5 71.3852 6.05228 70.9375 5.5 70.9375C4.94772 70.9375 4.5 71.3852 4.5 71.9375H6.5ZM4.5 78.0625C4.5 78.6148 4.94772 79.0625 5.5 79.0625C6.05228 79.0625 6.5 78.6148 6.5 78.0625H4.5ZM6.5 84.1875C6.5 83.6352 6.05228 83.1875 5.5 83.1875C4.94772 83.1875 4.5 83.6352 4.5 84.1875H6.5ZM4.5 90.3125C4.5 90.8648 4.94772 91.3125 5.5 91.3125C6.05228 91.3125 6.5 90.8648 6.5 90.3125H4.5ZM6.5 96.4375C6.5 95.8852 6.05228 95.4375 5.5 95.4375C4.94772 95.4375 4.5 95.8852 4.5 96.4375H6.5ZM4.5 1.5L4.5 4.5625H6.5L6.5 1.5L4.5 1.5ZM4.5 10.6875L4.5 16.8125H6.5L6.5 10.6875H4.5ZM4.5 22.9375L4.5 29.0625H6.5L6.5 22.9375H4.5ZM4.5 35.1875L4.5 41.3125H6.5L6.5 35.1875H4.5ZM4.5 47.4375L4.5 53.5625H6.5L6.5 47.4375H4.5ZM4.5 59.6875L4.5 65.8125H6.5L6.5 59.6875H4.5ZM4.5 71.9375L4.5 78.0625H6.5L6.5 71.9375H4.5ZM4.5 84.1875L4.5 90.3125H6.5L6.5 84.1875H4.5ZM4.5 96.4375L4.5 99.5H6.5L6.5 96.4375H4.5Z" fill="url(#paint0_linear_3898_232240)"/>
<rect x="1" y="95" width="10" height="10" rx="5" fill="white" stroke="#FF6900" stroke-width="2"/>
<defs>
<linearGradient id="paint0_linear_3898_232240" x1="5" y1="-14" x2="5" y2="99.5" gradientUnits="userSpaceOnUse">
<stop stop-color="white"/>
<stop offset="1" stop-color="#E5E5E5"/>
</linearGradient>
</defs>
</svg>
