<svg width="336" height="191" viewBox="0 0 336 191" fill="none" xmlns="http://www.w3.org/2000/svg">
<g clip-path="url(#clip0_3998_20912)">
<rect x="16" y="7.52686" width="52" height="5" rx="2.5" fill="#E5E5E5"/>
<rect x="22" y="27.5269" width="116" height="5" rx="2.5" fill="#E5E5E5"/>
<rect width="93" height="5" rx="2.5" transform="matrix(-1 0 0 1 240 27.5269)" fill="#E5E5E5"/>
<rect width="87" height="5" rx="2.5" transform="matrix(-1 0 0 1 336 27.5269)" fill="#E5E5E5"/>
<rect x="37" y="45.5269" width="71" height="5" rx="2.5" fill="#E5E5E5"/>
<rect width="57" height="5" rx="2.5" transform="matrix(-1 0 0 1 174 45.5269)" fill="#E5E5E5"/>
<rect width="53" height="5" rx="2.5" transform="matrix(-1 0 0 1 236 45.5269)" fill="#E5E5E5"/>
<rect width="57" height="5" rx="2.5" transform="matrix(-1 0 0 1 79 121.527)" fill="#E5E5E5"/>
<rect width="53" height="5" rx="2.5" transform="matrix(-1 0 0 1 141 121.527)" fill="#E5E5E5"/>
<rect x="37" y="83.5269" width="116" height="5" rx="2.5" fill="#FF6900"/>
<rect width="93" height="5" rx="2.5" transform="matrix(-1 0 0 1 255 83.5269)" fill="#FF6900"/>
<rect width="38" height="5" rx="2.5" transform="matrix(-1 0 0 1 302 83.5269)" fill="#FF6900"/>
<rect x="37" y="102.527" width="71" height="5" rx="2.5" fill="#FF6900"/>
<rect width="57" height="5" rx="2.5" transform="matrix(-1 0 0 1 174 102.527)" fill="#FF6900"/>
<rect width="53" height="5" rx="2.5" transform="matrix(-1 0 0 1 236 102.527)" fill="#FF6900"/>
<rect x="22" y="64.5269" width="181" height="5" rx="2.5" fill="#E5E5E5"/>
<rect x="22" y="140.527" width="116" height="5" rx="2.5" fill="#E5E5E5"/>
<rect x="37" y="159.527" width="71" height="5" rx="2.5" fill="#E5E5E5"/>
<rect width="57" height="5" rx="2.5" transform="matrix(-1 0 0 1 174 159.527)" fill="#E5E5E5"/>
<rect width="53" height="5" rx="2.5" transform="matrix(-1 0 0 1 236 159.527)" fill="#E5E5E5"/>
<rect x="22" y="178.527" width="181" height="5" rx="2.5" fill="#E5E5E5"/>
<rect width="119" height="5" rx="2.5" transform="matrix(-1 0 0 1 331 64.5269)" fill="#E5E5E5"/>
<path d="M0.7665 13.5269V12.8549H2.709V7.04836L0.8715 7.41586V6.88036L2.9295 6.17685H3.444V12.8549H5.4915V13.5269H0.7665ZM0.8085 32.5269V31.9599C1.5925 31.3369 2.268 30.7664 2.835 30.2484C3.409 29.7304 3.85 29.2334 4.158 28.7574C4.473 28.2744 4.6305 27.7739 4.6305 27.2559C4.6305 26.7799 4.494 26.4054 4.221 26.1324C3.955 25.8594 3.5945 25.7229 3.1395 25.7229C2.7965 25.7229 2.506 25.7964 2.268 25.9434C2.03 26.0904 1.8515 26.2864 1.7325 26.5314C1.6135 26.7694 1.554 27.0354 1.554 27.3294H0.819C0.819 26.8604 0.9205 26.4579 1.1235 26.1219C1.3265 25.7789 1.603 25.5164 1.953 25.3344C2.303 25.1454 2.6985 25.0509 3.1395 25.0509C3.8465 25.0509 4.396 25.2504 4.788 25.6494C5.187 26.0484 5.3865 26.5804 5.3865 27.2454C5.3865 27.6934 5.2885 28.1239 5.0925 28.5369C4.9035 28.9429 4.6445 29.3384 4.3155 29.7234C3.9935 30.1014 3.6295 30.4689 3.2235 30.8259C2.8245 31.1759 2.4115 31.5189 1.9845 31.8549H5.586V32.5269H0.8085ZM3.2655 51.6529C2.7965 51.6529 2.3695 51.5654 1.9845 51.3904C1.6065 51.2084 1.302 50.9494 1.071 50.6134C0.847 50.2704 0.7245 49.8574 0.7035 49.3744H1.4595C1.4665 49.6684 1.5435 49.9379 1.6905 50.1829C1.8375 50.4209 2.044 50.6134 2.31 50.7604C2.576 50.9074 2.8945 50.9809 3.2655 50.9809C3.8185 50.9809 4.2385 50.8374 4.5255 50.5504C4.8195 50.2634 4.9665 49.8749 4.9665 49.3849C4.9665 49.0489 4.8825 48.7724 4.7145 48.5554C4.5465 48.3314 4.319 48.1669 4.032 48.0619C3.752 47.9499 3.437 47.8939 3.087 47.8939H2.457V47.2219H3.0135C3.5245 47.2219 3.927 47.1099 4.221 46.8859C4.515 46.6549 4.662 46.3364 4.662 45.9304C4.662 45.5804 4.543 45.2934 4.305 45.0694C4.067 44.8384 3.7205 44.7229 3.2655 44.7229C2.8385 44.7229 2.4885 44.8454 2.2155 45.0904C1.9495 45.3284 1.799 45.6434 1.764 46.0354H1.008C1.029 45.6504 1.134 45.3109 1.323 45.0169C1.519 44.7159 1.7815 44.4814 2.1105 44.3134C2.4395 44.1384 2.8245 44.0509 3.2655 44.0509C3.7275 44.0509 4.1195 44.1349 4.4415 44.3029C4.7635 44.4709 5.005 44.6949 5.166 44.9749C5.334 45.2549 5.418 45.5594 5.418 45.8884C5.418 46.2524 5.306 46.5779 5.082 46.8649C4.858 47.1449 4.585 47.3444 4.263 47.4634V47.5264C4.69 47.6524 5.04 47.8659 5.313 48.1669C5.586 48.4609 5.7225 48.8634 5.7225 49.3744C5.7225 49.8014 5.621 50.1864 5.418 50.5294C5.222 50.8724 4.942 51.1454 4.578 51.3484C4.214 51.5514 3.7765 51.6529 3.2655 51.6529ZM4.116 70.5269V68.7524H0.567V68.1959L3.969 63.1769H4.8405V68.0804H5.964V68.7524H4.8405V70.5269H4.116ZM1.3965 68.0804H4.1475V64.0589L1.3965 68.0804ZM3.15 89.6529C2.653 89.6529 2.226 89.5584 1.869 89.3694C1.519 89.1804 1.239 88.9249 1.029 88.6029C0.826 88.2809 0.6965 87.9204 0.6405 87.5214H1.3965C1.4665 87.9484 1.659 88.2984 1.974 88.5714C2.289 88.8444 2.6845 88.9809 3.1605 88.9809C3.5385 88.9809 3.8605 88.8969 4.1265 88.7289C4.3925 88.5609 4.5955 88.3334 4.7355 88.0464C4.8825 87.7524 4.956 87.4234 4.956 87.0594C4.956 86.4784 4.795 86.0234 4.473 85.6944C4.151 85.3584 3.7275 85.1904 3.2025 85.1904C2.7825 85.1904 2.422 85.2849 2.121 85.4739C1.827 85.6629 1.589 85.9044 1.407 86.1984H0.714L1.344 82.1769H5.2185V82.8489H1.9215L1.512 85.2219H1.554C1.722 85.0399 1.953 84.8789 2.247 84.7389C2.548 84.5919 2.884 84.5184 3.255 84.5184C3.724 84.5184 4.1405 84.6199 4.5045 84.8229C4.8685 85.0189 5.152 85.3059 5.355 85.6839C5.565 86.0619 5.67 86.5169 5.67 87.0489C5.67 87.5109 5.572 87.9414 5.376 88.3404C5.187 88.7324 4.9035 89.0509 4.5255 89.2959C4.1545 89.5339 3.696 89.6529 3.15 89.6529ZM3.297 108.653C2.688 108.653 2.1805 108.506 1.7745 108.212C1.3755 107.911 1.078 107.498 0.882 106.973C0.686 106.448 0.588 105.842 0.588 105.156C0.588 104.351 0.6965 103.641 0.9135 103.025C1.1375 102.409 1.4595 101.926 1.8795 101.576C2.2995 101.226 2.807 101.051 3.402 101.051C3.857 101.051 4.249 101.142 4.578 101.324C4.907 101.499 5.166 101.737 5.355 102.038C5.544 102.332 5.656 102.664 5.691 103.035H4.9875C4.9175 102.636 4.7425 102.318 4.4625 102.08C4.1825 101.842 3.829 101.723 3.402 101.723C3.031 101.723 2.688 101.842 2.373 102.08C2.065 102.311 1.813 102.671 1.617 103.161C1.421 103.651 1.309 104.278 1.281 105.041H1.323C1.498 104.712 1.757 104.428 2.1 104.19C2.45 103.952 2.877 103.833 3.381 103.833C3.822 103.833 4.2175 103.938 4.5675 104.148C4.9245 104.358 5.2045 104.642 5.4075 104.999C5.6175 105.349 5.7225 105.748 5.7225 106.196C5.7225 106.637 5.621 107.046 5.418 107.424C5.215 107.795 4.9315 108.093 4.5675 108.317C4.2105 108.541 3.787 108.653 3.297 108.653ZM3.2445 107.981C3.5875 107.981 3.8885 107.904 4.1475 107.75C4.4065 107.596 4.606 107.389 4.746 107.13C4.893 106.864 4.9665 106.567 4.9665 106.238C4.9665 105.909 4.893 105.615 4.746 105.356C4.606 105.09 4.4065 104.883 4.1475 104.736C3.8885 104.582 3.5875 104.505 3.2445 104.505C2.9015 104.505 2.6005 104.582 2.3415 104.736C2.0825 104.883 1.8795 105.09 1.7325 105.356C1.5855 105.615 1.512 105.912 1.512 106.248C1.512 106.577 1.5855 106.875 1.7325 107.141C1.8795 107.4 2.0825 107.606 2.3415 107.76C2.6005 107.907 2.9015 107.981 3.2445 107.981ZM1.89 127.527L4.809 120.849H0.693V120.177H5.565V120.786L2.6775 127.527H1.89ZM3.15 146.653C2.674 146.653 2.254 146.562 1.89 146.38C1.526 146.198 1.2425 145.949 1.0395 145.634C0.8365 145.312 0.735 144.952 0.735 144.553C0.735 144.084 0.861 143.685 1.113 143.356C1.365 143.027 1.6555 142.796 1.9845 142.663V142.621C1.6625 142.474 1.407 142.26 1.218 141.98C1.029 141.693 0.9345 141.368 0.9345 141.004C0.9345 140.64 1.0255 140.311 1.2075 140.017C1.3965 139.723 1.6555 139.488 1.9845 139.313C2.3205 139.138 2.709 139.051 3.15 139.051C3.57 139.051 3.9445 139.138 4.2735 139.313C4.6095 139.488 4.8755 139.723 5.0715 140.017C5.2675 140.311 5.3655 140.64 5.3655 141.004C5.3655 141.368 5.271 141.693 5.082 141.98C4.893 142.26 4.6375 142.474 4.3155 142.621V142.663C4.6445 142.796 4.935 143.027 5.187 143.356C5.439 143.685 5.565 144.084 5.565 144.553C5.565 144.952 5.4635 145.312 5.2605 145.634C5.0575 145.949 4.774 146.198 4.41 146.38C4.046 146.562 3.626 146.653 3.15 146.653ZM3.15 142.327C3.612 142.327 3.9725 142.208 4.2315 141.97C4.4975 141.725 4.6305 141.41 4.6305 141.025C4.6305 140.633 4.4975 140.318 4.2315 140.08C3.9725 139.842 3.612 139.723 3.15 139.723C2.688 139.723 2.324 139.842 2.058 140.08C1.799 140.318 1.6695 140.633 1.6695 141.025C1.6695 141.41 1.799 141.725 2.058 141.97C2.324 142.208 2.688 142.327 3.15 142.327ZM3.15 145.981C3.64 145.981 4.039 145.855 4.347 145.603C4.655 145.344 4.809 144.969 4.809 144.479C4.809 143.982 4.655 143.608 4.347 143.356C4.039 143.104 3.64 142.978 3.15 142.978C2.66 142.978 2.261 143.104 1.953 143.356C1.645 143.608 1.491 143.982 1.491 144.479C1.491 144.969 1.645 145.344 1.953 145.603C2.261 145.855 2.66 145.981 3.15 145.981ZM3.024 165.653C2.59 165.653 2.2015 165.565 1.8585 165.39C1.5155 165.208 1.239 164.967 1.029 164.666C0.826 164.365 0.707 164.032 0.672 163.668H1.386C1.456 164.06 1.6345 164.379 1.9215 164.624C2.2085 164.862 2.576 164.981 3.024 164.981C3.605 164.981 4.081 164.715 4.452 164.183C4.83 163.644 5.04 162.804 5.082 161.663H5.04C4.844 162.013 4.592 162.303 4.284 162.534C3.976 162.758 3.542 162.87 2.982 162.87C2.541 162.87 2.142 162.765 1.785 162.555C1.435 162.345 1.155 162.062 0.945 161.705C0.742 161.348 0.6405 160.949 0.6405 160.508C0.6405 160.06 0.742 159.65 0.945 159.279C1.148 158.908 1.4315 158.611 1.7955 158.387C2.1595 158.163 2.583 158.051 3.066 158.051C3.969 158.051 4.6445 158.362 5.0925 158.985C5.5475 159.608 5.775 160.462 5.775 161.547C5.775 162.352 5.67 163.063 5.46 163.679C5.25 164.295 4.9385 164.778 4.5255 165.128C4.1195 165.478 3.619 165.653 3.024 165.653ZM3.1185 162.198C3.4685 162.198 3.773 162.125 4.032 161.978C4.291 161.824 4.4905 161.614 4.6305 161.348C4.7775 161.082 4.851 160.784 4.851 160.455C4.851 160.119 4.7775 159.822 4.6305 159.563C4.4905 159.304 4.291 159.101 4.032 158.954C3.773 158.8 3.4685 158.723 3.1185 158.723C2.7685 158.723 2.464 158.8 2.205 158.954C1.946 159.108 1.7465 159.318 1.6065 159.584C1.4665 159.843 1.3965 160.137 1.3965 160.466C1.3965 160.795 1.4665 161.092 1.6065 161.358C1.7465 161.617 1.946 161.824 2.205 161.978C2.464 162.125 2.7685 162.198 3.1185 162.198ZM0.7665 184.527V183.855H2.709V178.048L0.8715 178.416V177.88L2.9295 177.177H3.444V183.855H5.4915V184.527H0.7665ZM9.4459 184.653C8.8999 184.653 8.4169 184.502 7.9969 184.201C7.5769 183.893 7.2479 183.456 7.0099 182.889C6.7719 182.315 6.6529 181.636 6.6529 180.852C6.6529 180.061 6.7719 179.382 7.0099 178.815C7.2479 178.248 7.5769 177.814 7.9969 177.513C8.4169 177.205 8.8999 177.051 9.4459 177.051C9.9919 177.051 10.4749 177.205 10.8949 177.513C11.3149 177.814 11.6439 178.248 11.8819 178.815C12.1199 179.382 12.2389 180.061 12.2389 180.852C12.2389 181.636 12.1199 182.315 11.8819 182.889C11.6439 183.456 11.3149 183.893 10.8949 184.201C10.4749 184.502 9.9919 184.653 9.4459 184.653ZM7.4089 180.852C7.4089 181.384 7.4684 181.86 7.5874 182.28C7.7134 182.693 7.8849 183.036 8.1019 183.309L10.2649 177.943C10.0129 177.796 9.7399 177.723 9.4459 177.723C9.0469 177.723 8.6934 177.852 8.3854 178.111C8.0844 178.363 7.8464 178.724 7.6714 179.193C7.4964 179.655 7.4089 180.208 7.4089 180.852ZM9.4459 183.991C9.8449 183.991 10.1984 183.865 10.5064 183.613C10.8144 183.354 11.0524 182.99 11.2204 182.521C11.3954 182.045 11.4829 181.489 11.4829 180.852C11.4829 180.32 11.4199 179.847 11.2939 179.434C11.1749 179.014 11.0069 178.671 10.7899 178.405L8.6269 183.771C8.8789 183.918 9.1519 183.991 9.4459 183.991Z" fill="#A1A1A1"/>
</g>
<defs>
<clipPath id="clip0_3998_20912">
<rect width="336" height="190" fill="white" transform="translate(0 0.526855)"/>
</clipPath>
</defs>
</svg>
