<svg width="351" height="184" viewBox="0 0 351 184" fill="none" xmlns="http://www.w3.org/2000/svg">
<g clip-path="url(#clip0_3998_20883)">
<path opacity="0.36" d="M17.5 10.5269C17.5 9.14614 18.6193 8.02686 20 8.02686H38C39.3807 8.02686 40.5 9.14614 40.5 10.5269V183.027H17.5V10.5269Z" fill="#FF6900" fill-opacity="0.15" stroke="#FF6900"/>
<path opacity="0.36" d="M75.5 70.5269C75.5 69.1461 76.6193 68.0269 78 68.0269H96C97.3807 68.0269 98.5 69.1461 98.5 70.5269V183.027H75.5V70.5269Z" fill="#FF6900" fill-opacity="0.15" stroke="#FF6900"/>
<path opacity="0.36" d="M133.5 117.527C133.5 116.146 134.619 115.027 136 115.027H154C155.381 115.027 156.5 116.146 156.5 117.527V183.027H133.5V117.527Z" fill="#FF6900" fill-opacity="0.15" stroke="#FF6900"/>
<path opacity="0.36" d="M191.5 46.5269C191.5 45.1461 192.619 44.0269 194 44.0269H212C213.381 44.0269 214.5 45.1461 214.5 46.5269V183.027H191.5V46.5269Z" fill="#FF6900" fill-opacity="0.15" stroke="#FF6900"/>
<path opacity="0.36" d="M249.5 28.5269C249.5 27.1461 250.619 26.0269 252 26.0269H270C271.381 26.0269 272.5 27.1461 272.5 28.5269V183.027H249.5V28.5269Z" fill="#FF6900" fill-opacity="0.15" stroke="#FF6900"/>
<path opacity="0.36" d="M307.5 15.5269C307.5 14.1461 308.619 13.0269 310 13.0269H328C329.381 13.0269 330.5 14.1461 330.5 15.5269V183.027H307.5V15.5269Z" fill="#FF6900" fill-opacity="0.15" stroke="#FF6900"/>
<path d="M0.5 0.526855L0.5 183.527" stroke="#FF6900" stroke-opacity="0.25"/>
<path d="M0 183.027H331" stroke="url(#paint0_linear_3998_20883)"/>
<path d="M0 183.027H331" stroke="#FF6900" stroke-opacity="0.25"/>
<path d="M0.5 85.0269C1.5 69.0269 9.9 38.1269 35.5 42.5269C67.5 48.0269 82 131.527 149.5 132.527C217 133.527 233.5 116.027 252.5 90.5269C271.752 64.6887 293 29.5269 351 29.5269" stroke="#FF6900" stroke-dasharray="2 2"/>
<rect x="35.5" y="39.0269" width="9" height="9" rx="4.5" fill="white" stroke="#FF6900"/>
<rect x="70.5" y="82.0269" width="9" height="9" rx="4.5" fill="white" stroke="#FF6900"/>
<rect x="93.5" y="106.027" width="9" height="9" rx="4.5" fill="white" stroke="#FF6900"/>
<rect x="128.5" y="126.027" width="9" height="9" rx="4.5" fill="white" stroke="#FF6900"/>
<rect x="152.5" y="128.027" width="9" height="9" rx="4.5" fill="white" stroke="#FF6900"/>
<rect x="186.5" y="126.027" width="9" height="9" rx="4.5" fill="white" stroke="#FF6900"/>
<rect x="210.5" y="118.027" width="9" height="9" rx="4.5" fill="white" stroke="#FF6900"/>
<rect x="244.5" y="90.0269" width="9" height="9" rx="4.5" fill="white" stroke="#FF6900"/>
<rect x="268.5" y="60.0269" width="9" height="9" rx="4.5" fill="white" stroke="#FF6900"/>
<rect x="304.5" y="32.0269" width="9" height="9" rx="4.5" fill="white" stroke="#FF6900"/>
<rect x="326.5" y="26.0269" width="9" height="9" rx="4.5" fill="white" stroke="#FF6900"/>
</g>
<defs>
<linearGradient id="paint0_linear_3998_20883" x1="15.8667" y1="184.027" x2="335.993" y2="185.769" gradientUnits="userSpaceOnUse">
<stop stop-color="#E5E5E5"/>
<stop offset="1" stop-color="#F5F5F5" stop-opacity="0.5"/>
</linearGradient>
<clipPath id="clip0_3998_20883">
<rect width="351" height="183" fill="white" transform="translate(0 0.526855)"/>
</clipPath>
</defs>
</svg>
