<svg width="1440" height="524" viewBox="0 0 1440 524" fill="none" xmlns="http://www.w3.org/2000/svg">
    <g clip-path="url(#clip0_4000_74306)">
        <path d="M75 -14C75 -14.5523 74.5523 -15 74 -15C73.4477 -15 73 -14.5523 73 -14H75ZM703 478.667C700.054 478.667 697.667 481.054 697.667 484C697.667 486.946 700.054 489.333 703 489.333C705.946 489.333 708.333 486.946 708.333 484C708.333 481.054 705.946 478.667 703 478.667ZM73 -11.0129C73 -10.4606 73.4477 -10.0129 74 -10.0129C74.5523 -10.0129 75 -10.4606 75 -11.0129L73 -11.0129ZM75 -5.03879C75 -5.59108 74.5523 -6.03879 74 -6.03879C73.4477 -6.03879 73 -5.59108 73 -5.03879H75ZM73 0.935346C73 1.48763 73.4477 1.93535 74 1.93535C74.5523 1.93535 75 1.48763 75 0.935346H73ZM75 6.90948C75 6.3572 74.5523 5.90948 74 5.90948C73.4477 5.90948 73 6.3572 73 6.90948H75ZM73 12.8836C73 13.4359 73.4477 13.8836 74 13.8836C74.5523 13.8836 75 13.4359 75 12.8836H73ZM75 18.8578C75 18.3055 74.5523 17.8578 74 17.8578C73.4477 17.8578 73 18.3055 73 18.8578H75ZM73 24.8319C73 25.3842 73.4477 25.8319 74 25.8319C74.5523 25.8319 75 25.3842 75 24.8319H73ZM75 30.806C75 30.2537 74.5523 29.806 74 29.806C73.4477 29.806 73 30.2537 73 30.806H75ZM73 36.7802C73 37.3325 73.4477 37.7802 74 37.7802C74.5523 37.7802 75 37.3325 75 36.7802H73ZM75 42.7543C75 42.202 74.5523 41.7543 74 41.7543C73.4477 41.7543 73 42.202 73 42.7543H75ZM73 48.7284C73 49.2807 73.4477 49.7284 74 49.7284C74.5523 49.7284 75 49.2807 75 48.7284H73ZM75 54.7026C75 54.1503 74.5523 53.7026 74 53.7026C73.4477 53.7026 73 54.1503 73 54.7026H75ZM73 60.6767C73 61.229 73.4477 61.6767 74 61.6767C74.5523 61.6767 75 61.229 75 60.6767H73ZM75 66.6509C75 66.0986 74.5523 65.6509 74 65.6509C73.4477 65.6509 73 66.0986 73 66.6509H75ZM73 72.625C73 73.1773 73.4477 73.625 74 73.625C74.5523 73.625 75 73.1773 75 72.625H73ZM75 78.5991C75 78.0468 74.5523 77.5991 74 77.5991C73.4477 77.5991 73 78.0468 73 78.5991H75ZM73 84.5733C73 85.1255 73.4477 85.5733 74 85.5733C74.5523 85.5733 75 85.1255 75 84.5733H73ZM75 90.5474C75 89.9951 74.5523 89.5474 74 89.5474C73.4477 89.5474 73 89.9951 73 90.5474H75ZM73 96.5215C73 97.0738 73.4477 97.5215 74 97.5215C74.5523 97.5215 75 97.0738 75 96.5215H73ZM75 102.496C75 101.943 74.5523 101.496 74 101.496C73.4477 101.496 73 101.943 73 102.496H75ZM73 108.47C73 109.022 73.4477 109.47 74 109.47C74.5523 109.47 75 109.022 75 108.47H73ZM75 114.444C75 113.892 74.5523 113.444 74 113.444C73.4477 113.444 73 113.892 73 114.444H75ZM73 120.418C73 120.97 73.4477 121.418 74 121.418C74.5523 121.418 75 120.97 75 120.418H73ZM75 126.392C75 125.84 74.5523 125.392 74 125.392C73.4477 125.392 73 125.84 73 126.392H75ZM73 132.366C73 132.919 73.4477 133.366 74 133.366C74.5523 133.366 75 132.919 75 132.366H73ZM75 138.34C75 137.788 74.5523 137.34 74 137.34C73.4477 137.34 73 137.788 73 138.34H75ZM73 144.315C73 144.867 73.4477 145.315 74 145.315C74.5523 145.315 75 144.867 75 144.315H73ZM75 150.289C75 149.736 74.5523 149.289 74 149.289C73.4477 149.289 73 149.736 73 150.289H75ZM73 156.263C73 156.815 73.4477 157.263 74 157.263C74.5523 157.263 75 156.815 75 156.263H73ZM75 162.237C75 161.685 74.5523 161.237 74 161.237C73.4477 161.237 73 161.685 73 162.237H75ZM73 168.211C73 168.763 73.4477 169.211 74 169.211C74.5523 169.211 75 168.763 75 168.211H73ZM75 174.185C75 173.633 74.5523 173.185 74 173.185C73.4477 173.185 73 173.633 73 174.185H75ZM73 180.159C73 180.712 73.4477 181.159 74 181.159C74.5523 181.159 75 180.712 75 180.159H73ZM75 186.134C75 185.581 74.5523 185.134 74 185.134C73.4477 185.134 73 185.581 73 186.134H75ZM73 192.108C73 192.66 73.4477 193.108 74 193.108C74.5523 193.108 75 192.66 75 192.108H73ZM75 198.082C75 197.53 74.5523 197.082 74 197.082C73.4477 197.082 73 197.53 73 198.082H75ZM73 204.056C73 204.608 73.4477 205.056 74 205.056C74.5523 205.056 75 204.608 75 204.056H73ZM75 210.03C75 209.478 74.5523 209.03 74 209.03C73.4477 209.03 73 209.478 73 210.03H75ZM73 216.004C73 216.557 73.4477 217.004 74 217.004C74.5523 217.004 75 216.557 75 216.004H73ZM75 221.978C75 221.426 74.5523 220.978 74 220.978C73.4477 220.978 73 221.426 73 221.978H75ZM73 227.953C73 228.505 73.4477 228.953 74 228.953C74.5523 228.953 75 228.505 75 227.953H73ZM75 233.927C75 233.374 74.5523 232.927 74 232.927C73.4477 232.927 73 233.374 73 233.927H75ZM73 239.901C73 240.453 73.4477 240.901 74 240.901C74.5523 240.901 75 240.453 75 239.901H73ZM75 245.875C75 245.323 74.5523 244.875 74 244.875C73.4477 244.875 73 245.323 73 245.875H75ZM73 251.849C73 252.401 73.4477 252.849 74 252.849C74.5523 252.849 75 252.401 75 251.849H73ZM75 257.823C75 257.271 74.5523 256.823 74 256.823C73.4477 256.823 73 257.271 73 257.823H75ZM73 263.797C73 264.35 73.4477 264.797 74 264.797C74.5523 264.797 75 264.35 75 263.797H73ZM75 269.772C75 269.219 74.5523 268.772 74 268.772C73.4477 268.772 73 269.219 73 269.772H75ZM73 275.746C73 276.298 73.4477 276.746 74 276.746C74.5523 276.746 75 276.298 75 275.746H73ZM75 281.72C75 281.168 74.5523 280.72 74 280.72C73.4477 280.72 73 281.168 73 281.72H75ZM73 287.694C73 288.246 73.4477 288.694 74 288.694C74.5523 288.694 75 288.246 75 287.694H73ZM75 293.668C75 293.116 74.5523 292.668 74 292.668C73.4477 292.668 73 293.116 73 293.668H75ZM73 299.642C73 300.195 73.4477 300.642 74 300.642C74.5523 300.642 75 300.195 75 299.642H73ZM75 305.616C75 305.064 74.5523 304.616 74 304.616C73.4477 304.616 73 305.064 73 305.616H75ZM73 311.591C73 312.143 73.4477 312.591 74 312.591C74.5523 312.591 75 312.143 75 311.591H73ZM75 317.565C75 317.012 74.5523 316.565 74 316.565C73.4477 316.565 73 317.012 73 317.565H75ZM73 323.539C73 324.091 73.4477 324.539 74 324.539C74.5523 324.539 75 324.091 75 323.539H73ZM75 329.513C75 328.961 74.5523 328.513 74 328.513C73.4477 328.513 73 328.961 73 329.513H75ZM73.1245 335.719C73.1673 336.27 73.6484 336.681 74.199 336.638C74.7496 336.596 75.1613 336.115 75.1185 335.564L73.1245 335.719ZM76.0693 341.609C75.9408 341.072 75.4012 340.741 74.8641 340.869C74.3269 340.998 73.9957 341.537 74.1242 342.075L76.0693 341.609ZM76.1115 348.195C76.323 348.705 76.9081 348.947 77.4183 348.735C77.9284 348.524 78.1705 347.939 77.9589 347.428L76.1115 348.195ZM80.7414 352.879C80.4524 352.408 79.8366 352.261 79.3659 352.55C78.8953 352.839 78.7481 353.455 79.0371 353.926L80.7414 352.879ZM82.8229 359.128C83.1818 359.548 83.813 359.597 84.2328 359.238C84.6526 358.879 84.702 358.248 84.3431 357.828L82.8229 359.128ZM88.6716 362.157C88.2518 361.798 87.6205 361.847 87.2617 362.267C86.9028 362.687 86.9522 363.318 87.372 363.677L88.6716 362.157ZM92.5743 367.463C93.0449 367.752 93.6607 367.605 93.9498 367.134C94.2388 366.663 94.0915 366.048 93.6209 365.759L92.5743 367.463ZM99.0715 368.541C98.5614 368.33 97.9763 368.572 97.7648 369.082C97.5532 369.592 97.7953 370.177 98.3054 370.389L99.0715 368.541ZM104.425 372.376C104.963 372.504 105.502 372.173 105.631 371.636C105.759 371.099 105.428 370.559 104.891 370.431L104.425 372.376ZM110.936 371.381C110.385 371.339 109.904 371.75 109.862 372.301C109.819 372.852 110.23 373.333 110.781 373.375L110.936 371.381ZM116.984 373.5C117.536 373.5 117.984 373.052 117.984 372.5C117.984 371.948 117.536 371.5 116.984 371.5V373.5ZM122.951 371.5C122.399 371.5 121.951 371.948 121.951 372.5C121.951 373.052 122.399 373.5 122.951 373.5V371.5ZM128.918 373.5C129.471 373.5 129.918 373.052 129.918 372.5C129.918 371.948 129.471 371.5 128.918 371.5V373.5ZM134.886 371.5C134.334 371.5 133.886 371.948 133.886 372.5C133.886 373.052 134.334 373.5 134.886 373.5V371.5ZM140.853 373.5C141.406 373.5 141.853 373.052 141.853 372.5C141.853 371.948 141.406 371.5 140.853 371.5V373.5ZM146.821 371.5C146.268 371.5 145.821 371.948 145.821 372.5C145.821 373.052 146.268 373.5 146.821 373.5V371.5ZM152.788 373.5C153.34 373.5 153.788 373.052 153.788 372.5C153.788 371.948 153.34 371.5 152.788 371.5V373.5ZM158.755 371.5C158.203 371.5 157.755 371.948 157.755 372.5C157.755 373.052 158.203 373.5 158.755 373.5V371.5ZM164.723 373.5C165.275 373.5 165.723 373.052 165.723 372.5C165.723 371.948 165.275 371.5 164.723 371.5V373.5ZM170.69 371.5C170.138 371.5 169.69 371.948 169.69 372.5C169.69 373.052 170.138 373.5 170.69 373.5V371.5ZM176.658 373.5C177.21 373.5 177.658 373.052 177.658 372.5C177.658 371.948 177.21 371.5 176.658 371.5V373.5ZM182.625 371.5C182.073 371.5 181.625 371.948 181.625 372.5C181.625 373.052 182.073 373.5 182.625 373.5V371.5ZM188.592 373.5C189.145 373.5 189.592 373.052 189.592 372.5C189.592 371.948 189.145 371.5 188.592 371.5V373.5ZM194.56 371.5C194.007 371.5 193.56 371.948 193.56 372.5C193.56 373.052 194.007 373.5 194.56 373.5V371.5ZM200.527 373.5C201.079 373.5 201.527 373.052 201.527 372.5C201.527 371.948 201.079 371.5 200.527 371.5V373.5ZM206.495 371.5C205.942 371.5 205.495 371.948 205.495 372.5C205.495 373.052 205.942 373.5 206.495 373.5V371.5ZM212.462 373.5C213.014 373.5 213.462 373.052 213.462 372.5C213.462 371.948 213.014 371.5 212.462 371.5V373.5ZM218.429 371.5C217.877 371.5 217.429 371.948 217.429 372.5C217.429 373.052 217.877 373.5 218.429 373.5V371.5ZM224.397 373.5C224.949 373.5 225.397 373.052 225.397 372.5C225.397 371.948 224.949 371.5 224.397 371.5V373.5ZM230.364 371.5C229.812 371.5 229.364 371.948 229.364 372.5C229.364 373.052 229.812 373.5 230.364 373.5V371.5ZM236.332 373.5C236.884 373.5 237.332 373.052 237.332 372.5C237.332 371.948 236.884 371.5 236.332 371.5V373.5ZM242.299 371.5C241.747 371.5 241.299 371.948 241.299 372.5C241.299 373.052 241.747 373.5 242.299 373.5V371.5ZM248.266 373.5C248.819 373.5 249.266 373.052 249.266 372.5C249.266 371.948 248.819 371.5 248.266 371.5V373.5ZM254.234 371.5C253.681 371.5 253.234 371.948 253.234 372.5C253.234 373.052 253.681 373.5 254.234 373.5V371.5ZM260.201 373.5C260.753 373.5 261.201 373.052 261.201 372.5C261.201 371.948 260.753 371.5 260.201 371.5V373.5ZM266.168 371.5C265.616 371.5 265.168 371.948 265.168 372.5C265.168 373.052 265.616 373.5 266.168 373.5V371.5ZM272.136 373.5C272.688 373.5 273.136 373.052 273.136 372.5C273.136 371.948 272.688 371.5 272.136 371.5V373.5ZM278.103 371.5C277.551 371.5 277.103 371.948 277.103 372.5C277.103 373.052 277.551 373.5 278.103 373.5V371.5ZM284.071 373.5C284.623 373.5 285.071 373.052 285.071 372.5C285.071 371.948 284.623 371.5 284.071 371.5V373.5ZM290.038 371.5C289.486 371.5 289.038 371.948 289.038 372.5C289.038 373.052 289.486 373.5 290.038 373.5V371.5ZM296.005 373.5C296.558 373.5 297.005 373.052 297.005 372.5C297.005 371.948 296.558 371.5 296.005 371.5V373.5ZM301.973 371.5C301.421 371.5 300.973 371.948 300.973 372.5C300.973 373.052 301.421 373.5 301.973 373.5V371.5ZM307.94 373.5C308.493 373.5 308.94 373.052 308.94 372.5C308.94 371.948 308.493 371.5 307.94 371.5V373.5ZM313.908 371.5C313.355 371.5 312.908 371.948 312.908 372.5C312.908 373.052 313.355 373.5 313.908 373.5V371.5ZM319.875 373.5C320.427 373.5 320.875 373.052 320.875 372.5C320.875 371.948 320.427 371.5 319.875 371.5V373.5ZM325.842 371.5C325.29 371.5 324.842 371.948 324.842 372.5C324.842 373.052 325.29 373.5 325.842 373.5V371.5ZM331.81 373.5C332.362 373.5 332.81 373.052 332.81 372.5C332.81 371.948 332.362 371.5 331.81 371.5V373.5ZM337.777 371.5C337.225 371.5 336.777 371.948 336.777 372.5C336.777 373.052 337.225 373.5 337.777 373.5V371.5ZM343.745 373.5C344.297 373.5 344.745 373.052 344.745 372.5C344.745 371.948 344.297 371.5 343.745 371.5V373.5ZM349.712 371.5C349.16 371.5 348.712 371.948 348.712 372.5C348.712 373.052 349.16 373.5 349.712 373.5V371.5ZM355.679 373.5C356.232 373.5 356.679 373.052 356.679 372.5C356.679 371.948 356.232 371.5 355.679 371.5V373.5ZM361.647 371.5C361.094 371.5 360.647 371.948 360.647 372.5C360.647 373.052 361.094 373.5 361.647 373.5V371.5ZM367.614 373.5C368.166 373.5 368.614 373.052 368.614 372.5C368.614 371.948 368.166 371.5 367.614 371.5V373.5ZM373.582 371.5C373.029 371.5 372.582 371.948 372.582 372.5C372.582 373.052 373.029 373.5 373.582 373.5V371.5ZM379.549 373.5C380.101 373.5 380.549 373.052 380.549 372.5C380.549 371.948 380.101 371.5 379.549 371.5V373.5ZM385.516 371.5C384.964 371.5 384.516 371.948 384.516 372.5C384.516 373.052 384.964 373.5 385.516 373.5V371.5ZM391.484 373.5C392.036 373.5 392.484 373.052 392.484 372.5C392.484 371.948 392.036 371.5 391.484 371.5V373.5ZM397.451 371.5C396.899 371.5 396.451 371.948 396.451 372.5C396.451 373.052 396.899 373.5 397.451 373.5V371.5ZM403.418 373.5C403.971 373.5 404.418 373.052 404.418 372.5C404.418 371.948 403.971 371.5 403.418 371.5V373.5ZM409.386 371.5C408.834 371.5 408.386 371.948 408.386 372.5C408.386 373.052 408.834 373.5 409.386 373.5V371.5ZM415.353 373.5C415.905 373.5 416.353 373.052 416.353 372.5C416.353 371.948 415.905 371.5 415.353 371.5V373.5ZM421.321 371.5C420.768 371.5 420.321 371.948 420.321 372.5C420.321 373.052 420.768 373.5 421.321 373.5V371.5ZM427.288 373.5C427.84 373.5 428.288 373.052 428.288 372.5C428.288 371.948 427.84 371.5 427.288 371.5V373.5ZM433.255 371.5C432.703 371.5 432.255 371.948 432.255 372.5C432.255 373.052 432.703 373.5 433.255 373.5V371.5ZM439.223 373.5C439.775 373.5 440.223 373.052 440.223 372.5C440.223 371.948 439.775 371.5 439.223 371.5V373.5ZM445.19 371.5C444.638 371.5 444.19 371.948 444.19 372.5C444.19 373.052 444.638 373.5 445.19 373.5V371.5ZM451.157 373.5C451.71 373.5 452.157 373.052 452.157 372.5C452.157 371.948 451.71 371.5 451.157 371.5V373.5ZM457.125 371.5C456.573 371.5 456.125 371.948 456.125 372.5C456.125 373.052 456.573 373.5 457.125 373.5V371.5ZM463.092 373.5C463.644 373.5 464.092 373.052 464.092 372.5C464.092 371.948 463.644 371.5 463.092 371.5V373.5ZM469.06 371.5C468.507 371.5 468.06 371.948 468.06 372.5C468.06 373.052 468.507 373.5 469.06 373.5V371.5ZM475.027 373.5C475.579 373.5 476.027 373.052 476.027 372.5C476.027 371.948 475.579 371.5 475.027 371.5V373.5ZM480.994 371.5C480.442 371.5 479.994 371.948 479.994 372.5C479.994 373.052 480.442 373.5 480.994 373.5V371.5ZM486.962 373.5C487.514 373.5 487.962 373.052 487.962 372.5C487.962 371.948 487.514 371.5 486.962 371.5V373.5ZM492.929 371.5C492.377 371.5 491.929 371.948 491.929 372.5C491.929 373.052 492.377 373.5 492.929 373.5V371.5ZM498.896 373.5C499.449 373.5 499.896 373.052 499.896 372.5C499.896 371.948 499.449 371.5 498.896 371.5V373.5ZM504.864 371.5C504.312 371.5 503.864 371.948 503.864 372.5C503.864 373.052 504.312 373.5 504.864 373.5V371.5ZM510.831 373.5C511.383 373.5 511.831 373.052 511.831 372.5C511.831 371.948 511.383 371.5 510.831 371.5V373.5ZM516.799 371.5C516.246 371.5 515.799 371.948 515.799 372.5C515.799 373.052 516.246 373.5 516.799 373.5V371.5ZM522.766 373.5C523.318 373.5 523.766 373.052 523.766 372.5C523.766 371.948 523.318 371.5 522.766 371.5V373.5ZM528.733 371.5C528.181 371.5 527.733 371.948 527.733 372.5C527.733 373.052 528.181 373.5 528.733 373.5V371.5ZM534.701 373.5C535.253 373.5 535.701 373.052 535.701 372.5C535.701 371.948 535.253 371.5 534.701 371.5V373.5ZM540.668 371.5C540.116 371.5 539.668 371.948 539.668 372.5C539.668 373.052 540.116 373.5 540.668 373.5V371.5ZM546.635 373.5C547.188 373.5 547.635 373.052 547.635 372.5C547.635 371.948 547.188 371.5 546.635 371.5V373.5ZM552.603 371.5C552.051 371.5 551.603 371.948 551.603 372.5C551.603 373.052 552.051 373.5 552.603 373.5V371.5ZM558.57 373.5C559.123 373.5 559.57 373.052 559.57 372.5C559.57 371.948 559.123 371.5 558.57 371.5V373.5ZM564.538 371.5C563.985 371.5 563.538 371.948 563.538 372.5C563.538 373.052 563.985 373.5 564.538 373.5V371.5ZM570.505 373.5C571.057 373.5 571.505 373.052 571.505 372.5C571.505 371.948 571.057 371.5 570.505 371.5V373.5ZM576.472 371.5C575.92 371.5 575.472 371.948 575.472 372.5C575.472 373.052 575.92 373.5 576.472 373.5V371.5ZM582.44 373.5C582.992 373.5 583.44 373.052 583.44 372.5C583.44 371.948 582.992 371.5 582.44 371.5V373.5ZM588.407 371.5C587.855 371.5 587.407 371.948 587.407 372.5C587.407 373.052 587.855 373.5 588.407 373.5V371.5ZM594.374 373.5C594.927 373.5 595.374 373.052 595.374 372.5C595.374 371.948 594.927 371.5 594.374 371.5V373.5ZM600.342 371.5C599.79 371.5 599.342 371.948 599.342 372.5C599.342 373.052 599.79 373.5 600.342 373.5V371.5ZM606.309 373.5C606.861 373.5 607.309 373.052 607.309 372.5C607.309 371.948 606.861 371.5 606.309 371.5V373.5ZM612.277 371.5C611.724 371.5 611.277 371.948 611.277 372.5C611.277 373.052 611.724 373.5 612.277 373.5V371.5ZM618.244 373.5C618.796 373.5 619.244 373.052 619.244 372.5C619.244 371.948 618.796 371.5 618.244 371.5V373.5ZM624.211 371.5C623.659 371.5 623.211 371.948 623.211 372.5C623.211 373.052 623.659 373.5 624.211 373.5V371.5ZM630.179 373.5C630.731 373.5 631.179 373.052 631.179 372.5C631.179 371.948 630.731 371.5 630.179 371.5V373.5ZM636.146 371.5C635.594 371.5 635.146 371.948 635.146 372.5C635.146 373.052 635.594 373.5 636.146 373.5V371.5ZM642.114 373.5C642.666 373.5 643.114 373.052 643.114 372.5C643.114 371.948 642.666 371.5 642.114 371.5V373.5ZM648.081 371.5C647.529 371.5 647.081 371.948 647.081 372.5C647.081 373.052 647.529 373.5 648.081 373.5V371.5ZM654.048 373.5C654.601 373.5 655.048 373.052 655.048 372.5C655.048 371.948 654.601 371.5 654.048 371.5V373.5ZM660.016 371.5C659.463 371.5 659.016 371.948 659.016 372.5C659.016 373.052 659.463 373.5 660.016 373.5V371.5ZM666.064 373.619C666.615 373.661 667.096 373.25 667.138 372.699C667.181 372.148 666.77 371.667 666.219 371.625L666.064 373.619ZM672.575 372.624C672.037 372.496 671.498 372.827 671.369 373.364C671.241 373.901 671.572 374.441 672.109 374.569L672.575 372.624ZM677.928 376.459C678.439 376.671 679.024 376.428 679.235 375.918C679.447 375.408 679.205 374.823 678.695 374.611L677.928 376.459ZM684.426 377.537C683.955 377.248 683.339 377.395 683.05 377.866C682.761 378.337 682.908 378.952 683.379 379.241L684.426 377.537ZM688.328 382.843C688.748 383.202 689.379 383.153 689.738 382.733C690.097 382.313 690.048 381.682 689.628 381.323L688.328 382.843ZM694.177 385.872C693.818 385.452 693.187 385.403 692.767 385.762C692.347 386.121 692.298 386.752 692.657 387.172L694.177 385.872ZM696.259 392.121C696.548 392.592 697.163 392.739 697.634 392.45C698.105 392.161 698.252 391.545 697.963 391.074L696.259 392.121ZM700.889 396.805C700.677 396.295 700.092 396.053 699.582 396.265C699.072 396.476 698.829 397.061 699.041 397.572L700.889 396.805ZM700.931 403.391C701.059 403.928 701.599 404.259 702.136 404.131C702.673 404.002 703.004 403.463 702.876 402.925L700.931 403.391ZM703.875 409.281C703.833 408.73 703.352 408.319 702.801 408.362C702.25 408.404 701.839 408.885 701.881 409.436L703.875 409.281ZM702 415.479C702 416.031 702.448 416.479 703 416.479C703.552 416.479 704 416.031 704 415.479H702ZM704 421.437C704 420.885 703.552 420.437 703 420.437C702.448 420.437 702 420.885 702 421.437H704ZM702 427.396C702 427.948 702.448 428.396 703 428.396C703.552 428.396 704 427.948 704 427.396H702ZM704 433.354C704 432.802 703.552 432.354 703 432.354C702.448 432.354 702 432.802 702 433.354H704ZM702 439.313C702 439.865 702.448 440.313 703 440.313C703.552 440.313 704 439.865 704 439.313H702ZM704 445.271C704 444.719 703.552 444.271 703 444.271C702.448 444.271 702 444.719 702 445.271H704ZM702 451.229C702 451.781 702.448 452.229 703 452.229C703.552 452.229 704 451.781 704 451.229H702ZM704 457.187C704 456.635 703.552 456.187 703 456.187C702.448 456.187 702 456.635 702 457.187H704ZM702 463.146C702 463.698 702.448 464.146 703 464.146C703.552 464.146 704 463.698 704 463.146H702ZM704 469.104C704 468.552 703.552 468.104 703 468.104C702.448 468.104 702 468.552 702 469.104H704ZM702 475.062C702 475.615 702.448 476.062 703 476.062C703.552 476.062 704 475.615 704 475.062H702ZM704 481.021C704 480.469 703.552 480.021 703 480.021C702.448 480.021 702 480.469 702 481.021H704ZM73 -14V-11.0129L75 -11.0129V-14H73ZM73 -5.03879V0.935346H75V-5.03879H73ZM73 6.90948V12.8836H75V6.90948H73ZM73 18.8578V24.8319H75V18.8578H73ZM73 30.806V36.7802H75V30.806H73ZM73 42.7543V48.7284H75V42.7543H73ZM73 54.7026V60.6767H75V54.7026H73ZM73 66.6509V72.625H75V66.6509H73ZM73 78.5991V84.5733H75V78.5991H73ZM73 90.5474V96.5215H75V90.5474H73ZM73 102.496V108.47H75V102.496H73ZM73 114.444V120.418H75V114.444H73ZM73 126.392V132.366H75V126.392H73ZM73 138.34V144.315H75V138.34H73ZM73 150.289V156.263H75V150.289H73ZM73 162.237V168.211H75V162.237H73ZM73 174.185V180.159H75V174.185H73ZM73 186.134V192.108H75V186.134H73ZM73 198.082V204.056H75V198.082H73ZM73 210.03V216.004H75V210.03H73ZM73 221.978V227.953H75V221.978H73ZM73 233.927V239.901H75V233.927H73ZM73 245.875V251.849H75V245.875H73ZM73 257.823V263.797H75V257.823H73ZM73 269.772V275.746H75V269.772H73ZM73 281.72V287.694H75V281.72H73ZM73 293.668V299.642H75V293.668H73ZM73 305.616V311.591H75V305.616H73ZM73 317.565V323.539H75V317.565H73ZM73 329.513V332.5H75V329.513H73ZM73 332.5C73 333.583 73.042 334.657 73.1245 335.719L75.1185 335.564C75.04 334.553 75 333.531 75 332.5H73ZM74.1242 342.075C74.6285 344.182 75.2956 346.227 76.1115 348.195L77.9589 347.428C77.1832 345.558 76.5488 343.614 76.0693 341.609L74.1242 342.075ZM79.0371 353.926C80.1637 355.76 81.4307 357.499 82.8229 359.128L84.3431 357.828C83.0184 356.279 81.8131 354.624 80.7414 352.879L79.0371 353.926ZM87.372 363.677C89.0006 365.069 90.7396 366.336 92.5743 367.463L93.6209 365.759C91.8757 364.687 90.2212 363.482 88.6716 362.157L87.372 363.677ZM98.3054 370.389C100.273 371.204 102.318 371.871 104.425 372.376L104.891 370.431C102.886 369.951 100.942 369.317 99.0715 368.541L98.3054 370.389ZM110.781 373.375C111.843 373.458 112.917 373.5 114 373.5V371.5C112.969 371.5 111.947 371.46 110.936 371.381L110.781 373.375ZM114 373.5H116.984V371.5H114V373.5ZM122.951 373.5H128.918V371.5H122.951V373.5ZM134.886 373.5H140.853V371.5H134.886V373.5ZM146.821 373.5H152.788V371.5H146.821V373.5ZM158.755 373.5H164.723V371.5H158.755V373.5ZM170.69 373.5H176.658V371.5H170.69V373.5ZM182.625 373.5H188.592V371.5H182.625V373.5ZM194.56 373.5H200.527V371.5H194.56V373.5ZM206.495 373.5H212.462V371.5H206.495V373.5ZM218.429 373.5H224.397V371.5H218.429V373.5ZM230.364 373.5H236.332V371.5H230.364V373.5ZM242.299 373.5H248.266V371.5H242.299V373.5ZM254.234 373.5H260.201V371.5H254.234V373.5ZM266.168 373.5H272.136V371.5H266.168V373.5ZM278.103 373.5H284.071V371.5H278.103V373.5ZM290.038 373.5H296.005V371.5H290.038V373.5ZM301.973 373.5H307.94V371.5H301.973V373.5ZM313.908 373.5H319.875V371.5H313.908V373.5ZM325.842 373.5H331.81V371.5H325.842V373.5ZM337.777 373.5H343.745V371.5H337.777V373.5ZM349.712 373.5H355.679V371.5H349.712V373.5ZM361.647 373.5H367.614V371.5H361.647V373.5ZM373.582 373.5H379.549V371.5H373.582V373.5ZM385.516 373.5H391.484V371.5H385.516V373.5ZM397.451 373.5H403.418V371.5H397.451V373.5ZM409.386 373.5H415.353V371.5H409.386V373.5ZM421.321 373.5H427.288V371.5H421.321V373.5ZM433.255 373.5H439.223V371.5H433.255V373.5ZM445.19 373.5H451.157V371.5H445.19V373.5ZM457.125 373.5H463.092V371.5H457.125V373.5ZM469.06 373.5H475.027V371.5H469.06V373.5ZM480.994 373.5H486.962V371.5H480.994V373.5ZM492.929 373.5H498.896V371.5H492.929V373.5ZM504.864 373.5H510.831V371.5H504.864V373.5ZM516.799 373.5H522.766V371.5H516.799V373.5ZM528.733 373.5H534.701V371.5H528.733V373.5ZM540.668 373.5H546.635V371.5H540.668V373.5ZM552.603 373.5H558.57V371.5H552.603V373.5ZM564.538 373.5H570.505V371.5H564.538V373.5ZM576.472 373.5H582.44V371.5H576.472V373.5ZM588.407 373.5L594.374 373.5V371.5L588.407 371.5V373.5ZM600.342 373.5H606.309V371.5H600.342V373.5ZM612.277 373.5H618.244V371.5H612.277V373.5ZM624.211 373.5H630.179V371.5H624.211V373.5ZM636.146 373.5H642.114V371.5H636.146V373.5ZM648.081 373.5H654.048V371.5H648.081V373.5ZM660.016 373.5H663V371.5H660.016V373.5ZM663 373.5C664.031 373.5 665.053 373.54 666.064 373.619L666.219 371.625C665.157 371.542 664.083 371.5 663 371.5V373.5ZM672.109 374.569C674.113 375.049 676.058 375.683 677.928 376.459L678.695 374.611C676.727 373.796 674.682 373.129 672.575 372.624L672.109 374.569ZM683.379 379.241C685.124 380.313 686.779 381.518 688.328 382.843L689.628 381.323C687.999 379.931 686.26 378.664 684.426 377.537L683.379 379.241ZM692.657 387.172C693.982 388.721 695.187 390.376 696.259 392.121L697.963 391.074C696.836 389.24 695.569 387.501 694.177 385.872L692.657 387.172ZM699.041 397.572C699.817 399.442 700.451 401.386 700.931 403.391L702.876 402.925C702.371 400.818 701.704 398.773 700.889 396.805L699.041 397.572ZM701.881 409.436C701.96 410.447 702 411.469 702 412.5H704C704 411.417 703.958 410.343 703.875 409.281L701.881 409.436ZM702 412.5V415.479H704V412.5H702ZM702 421.437V427.396H704V421.437H702ZM702 433.354V439.313H704V433.354H702ZM702 445.271V451.229H704V445.271H702ZM702 457.187V463.146H704V457.187H702ZM702 469.104V475.062H704V469.104H702ZM702 481.021V484H704V481.021H702Z"
              fill="url(#paint0_linear_4000_74306)"/>
        <rect x="698" y="479" width="10" height="10" rx="5" fill="#262626" stroke="#FF6900" stroke-width="2"/>
    </g>
    <defs>
        <linearGradient id="paint0_linear_4000_74306" x1="167.021" y1="-103" x2="375.721" y2="264.697"
                        gradientUnits="userSpaceOnUse">
            <stop stop-color="#262626"/>
            <stop offset="1" stop-color="#262626"/>
        </linearGradient>
        <clipPath id="clip0_4000_74306">
            <rect width="1440" height="524" fill="262626"/>
        </clipPath>
    </defs>
</svg>
