<svg width="396" height="371" viewBox="0 0 396 371" fill="none" xmlns="http://www.w3.org/2000/svg">
  <path
    d="M238 156.333C235.054 156.333 232.667 153.946 232.667 151C232.667 148.054 235.054 145.667 238 145.667C240.946 145.667 243.333 148.054 243.333 151C243.333 153.946 240.946 156.333 238 156.333ZM235.054 152C234.501 152 234.054 151.552 234.054 151C234.054 150.448 234.501 150 235.054 150L235.054 152ZM229.161 150C229.713 150 230.161 150.448 230.161 151C230.161 151.552 229.713 152 229.161 152V150ZM223.268 152C222.716 152 222.268 151.552 222.268 151C222.268 150.448 222.716 150 223.268 150V152ZM217.375 150C217.927 150 218.375 150.448 218.375 151C218.375 151.552 217.927 152 217.375 152V150ZM211.482 152C210.93 152 210.482 151.552 210.482 151C210.482 150.448 210.93 150 211.482 150V152ZM205.589 150C206.142 150 206.589 150.448 206.589 151C206.589 151.552 206.142 152 205.589 152V150ZM199.696 152C199.144 152 198.696 151.552 198.696 151C198.696 150.448 199.144 150 199.696 150V152ZM193.804 150C194.356 150 194.804 150.448 194.804 151C194.804 151.552 194.356 152 193.804 152V150ZM187.911 152C187.358 152 186.911 151.552 186.911 151C186.911 150.448 187.358 150 187.911 150V152ZM182.018 150C182.57 150 183.018 150.448 183.018 151C183.018 151.552 182.57 152 182.018 152V150ZM176.125 152C175.573 152 175.125 151.552 175.125 151C175.125 150.448 175.573 150 176.125 150V152ZM170.232 150C170.784 150 171.232 150.448 171.232 151C171.232 151.552 170.784 152 170.232 152V150ZM164.339 152C163.787 152 163.339 151.552 163.339 151C163.339 150.448 163.787 150 164.339 150V152ZM158.446 150C158.999 150 159.446 150.448 159.446 151C159.446 151.552 158.999 152 158.446 152V150ZM152.554 152C152.001 152 151.554 151.552 151.554 151C151.554 150.448 152.001 150 152.554 150V152ZM146.661 150C147.213 150 147.661 150.448 147.661 151C147.661 151.552 147.213 152 146.661 152V150ZM140.768 152C140.216 152 139.768 151.552 139.768 151C139.768 150.448 140.216 150 140.768 150V152ZM134.875 150C135.427 150 135.875 150.448 135.875 151C135.875 151.552 135.427 152 134.875 152V150ZM128.982 152C128.43 152 127.982 151.552 127.982 151C127.982 150.448 128.43 150 128.982 150V152ZM123.089 150C123.642 150 124.089 150.448 124.089 151C124.089 151.552 123.642 152 123.089 152V150ZM117.196 152C116.644 152 116.196 151.552 116.196 151C116.196 150.448 116.644 150 117.196 150V152ZM111.304 150C111.856 150 112.304 150.448 112.304 151C112.304 151.552 111.856 152 111.304 152V150ZM105.411 152C104.858 152 104.411 151.552 104.411 151C104.411 150.448 104.858 150 105.411 150V152ZM99.5178 150C100.07 150 100.518 150.448 100.518 151C100.518 151.552 100.07 152 99.5178 152V150ZM93.625 152C93.0727 152 92.625 151.552 92.625 151C92.625 150.448 93.0727 150 93.625 150V152ZM87.7321 150C88.2844 150 88.7321 150.448 88.7321 151C88.7321 151.552 88.2844 152 87.7321 152V150ZM81.8393 152C81.287 152 80.8393 151.552 80.8393 151C80.8393 150.448 81.287 150 81.8393 150V152ZM75.9464 150C76.4987 150 76.9464 150.448 76.9464 151C76.9464 151.552 76.4987 152 75.9464 152V150ZM69.7811 151.875C69.2305 151.833 68.8188 151.352 68.8615 150.801C68.9043 150.25 69.3854 149.839 69.936 149.881L69.7811 151.875ZM63.8908 148.931C64.428 149.059 64.7592 149.599 64.6307 150.136C64.5022 150.673 63.9626 151.004 63.4255 150.876L63.8908 148.931ZM57.3054 148.889C56.7953 148.677 56.5532 148.092 56.7648 147.582C56.9763 147.072 57.5614 146.829 58.0715 147.041L57.3054 148.889ZM52.6209 144.259C53.0915 144.548 53.2388 145.163 52.9498 145.634C52.6608 146.105 52.0449 146.252 51.5743 145.963L52.6209 144.259ZM46.372 142.177C45.9522 141.818 45.9028 141.187 46.2617 140.767C46.6206 140.347 47.2518 140.298 47.6716 140.657L46.372 142.177ZM43.3431 136.328C43.702 136.748 43.6526 137.379 43.2328 137.738C42.813 138.097 42.1818 138.048 41.8229 137.628L43.3431 136.328ZM38.0371 132.426C37.7481 131.955 37.8953 131.339 38.3659 131.05C38.8366 130.761 39.4524 130.908 39.7414 131.379L38.0371 132.426ZM36.9589 125.928C37.1705 126.439 36.9284 127.024 36.4183 127.235C35.9081 127.447 35.323 127.205 35.1115 126.695L36.9589 125.928ZM33.1242 120.575C32.9957 120.037 33.3269 119.498 33.8641 119.369C34.4012 119.241 34.9408 119.572 35.0693 120.109L33.1242 120.575ZM34.1185 114.064C34.1613 114.615 33.7496 115.096 33.199 115.138C32.6484 115.181 32.1673 114.77 32.1245 114.219L34.1185 114.064ZM32 108.079C32 107.527 32.4477 107.079 33 107.079C33.5523 107.079 34 107.527 34 108.079H32ZM34 102.237C34 102.789 33.5523 103.237 33 103.237C32.4477 103.237 32 102.789 32 102.237H34ZM32 96.3947C32 95.8425 32.4477 95.3947 33 95.3947C33.5523 95.3947 34 95.8425 34 96.3947H32ZM34 90.5526C34 91.1049 33.5523 91.5526 33 91.5526C32.4477 91.5526 32 91.1049 32 90.5526H34ZM32 84.7105C32 84.1582 32.4477 83.7105 33 83.7105C33.5523 83.7105 34 84.1582 34 84.7105H32ZM34 78.8684C34 79.4207 33.5523 79.8684 33 79.8684C32.4477 79.8684 32 79.4207 32 78.8684H34ZM32 73.0263C32 72.474 32.4477 72.0263 33 72.0263C33.5523 72.0263 34 72.474 34 73.0263H32ZM34 67.1842C34 67.7365 33.5523 68.1842 33 68.1842C32.4477 68.1842 32 67.7365 32 67.1842H34ZM32 61.3421C32 60.7898 32.4477 60.3421 33 60.3421C33.5523 60.3421 34 60.7898 34 61.3421H32ZM34 55.5C34 56.0523 33.5523 56.5 33 56.5C32.4477 56.5 32 56.0523 32 55.5H34ZM32 49.6579C32 49.1056 32.4477 48.6579 33 48.6579C33.5523 48.6579 34 49.1056 34 49.6579H32ZM34 43.8158C34 44.3681 33.5523 44.8158 33 44.8158C32.4477 44.8158 32 44.3681 32 43.8158H34ZM32 37.9737C32 37.4214 32.4477 36.9737 33 36.9737C33.5523 36.9737 34 37.4214 34 37.9737H32ZM34 32.1316C34 32.6839 33.5523 33.1316 33 33.1316C32.4477 33.1316 32 32.6839 32 32.1316H34ZM32 26.2895C32 25.7372 32.4477 25.2895 33 25.2895C33.5523 25.2895 34 25.7372 34 26.2895H32ZM34 20.4474C34 20.9997 33.5523 21.4474 33 21.4474C32.4477 21.4474 32 20.9997 32 20.4474H34ZM32 14.6053C32 14.053 32.4477 13.6053 33 13.6053C33.5523 13.6053 34 14.053 34 14.6053H32ZM34 8.76318C34 9.31546 33.5523 9.76318 33 9.76318C32.4477 9.76318 32 9.31546 32 8.76318H34ZM32 2.92107C32 2.36879 32.4477 1.92107 33 1.92107C33.5523 1.92107 34 2.36879 34 2.92107H32ZM238 152H235.054L235.054 150H238V152ZM229.161 152H223.268V150H229.161V152ZM217.375 152H211.482V150H217.375V152ZM205.589 152H199.696V150H205.589V152ZM193.804 152H187.911V150H193.804V152ZM182.018 152L176.125 152V150H182.018V152ZM170.232 152H164.339V150H170.232V152ZM158.446 152H152.554V150H158.446V152ZM146.661 152H140.768V150H146.661V152ZM134.875 152H128.982V150H134.875V152ZM123.089 152H117.196V150H123.089V152ZM111.304 152H105.411V150H111.304V152ZM99.5178 152H93.625V150H99.5178V152ZM87.7321 152H81.8393V150H87.7321V152ZM75.9464 152H73V150H75.9464V152ZM73 152C71.9169 152 70.8434 151.958 69.7811 151.875L69.936 149.881C70.9468 149.96 71.9686 150 73 150V152ZM63.4255 150.876C61.3175 150.371 59.2728 149.704 57.3054 148.889L58.0715 147.041C59.9423 147.817 61.8865 148.451 63.8908 148.931L63.4255 150.876ZM51.5743 145.963C49.7396 144.836 48.0006 143.569 46.372 142.177L47.6716 140.657C49.2212 141.982 50.8757 143.187 52.6209 144.259L51.5743 145.963ZM41.8229 137.628C40.4307 135.999 39.1637 134.26 38.0371 132.426L39.7414 131.379C40.8131 133.124 42.0184 134.779 43.3431 136.328L41.8229 137.628ZM35.1115 126.695C34.2957 124.727 33.6285 122.682 33.1242 120.575L35.0693 120.109C35.5489 122.113 36.1832 124.058 36.9589 125.928L35.1115 126.695ZM32.1245 114.219C32.042 113.157 32 112.083 32 111H34C34 112.031 34.04 113.053 34.1185 114.064L32.1245 114.219ZM32 111V108.079H34V111H32ZM32 102.237V96.3947H34V102.237H32ZM32 90.5526V84.7105H34V90.5526H32ZM32 78.8684V73.0263H34V78.8684H32ZM32 67.1842V61.3421H34V67.1842H32ZM32 55.5V49.6579H34V55.5H32ZM32 43.8158V37.9737H34V43.8158H32ZM32 32.1316V26.2895H34V32.1316H32ZM32 20.4474V14.6053H34V20.4474H32ZM32 8.76318V2.92107H34V8.76318H32Z"
    fill="#262626"/>
  <rect x="233" y="146" width="10" height="10" rx="5" fill="#171717" stroke="#FF8904" stroke-width="2"/>
</svg>
