<svg xmlns="http://www.w3.org/2000/svg" fill="none" viewBox="0 0 139 22"><g fill="#fff" clip-path="url(#a)"><path d="M.428569 21.2773 6.59782 7.75451c.03701-.05976.08686-.11054.14593-.14865.05907-.03811.12588-.06259.19559-.07168h.2038c.06971.00909.13652.03357.19559.07168.05907.03811.10891.08889.14592.14865L13.6098 21.2773c.0301.056.0444.1191.0415.1826-.0029.0635-.0229.125-.0579.1781-.035.0531-.0836.0957-.1409.1233-.0572.0277-.1209.0393-.1842.0338h-1.2669c-.0988.0064-.197-.019-.2803-.0725-.0833-.0536-.1472-.1324-.1824-.225l-1.2338-2.7706H3.72802c-.40211.9254-.82624 1.8287-1.22834 2.7541-.04031.0889-.10541.1642-.18748.217-.08208.0527-.17764.0807-.27522.0804H.770081c-.063318.0056-.126962-.0061-.184194-.0337-.057232-.0277-.105924-.0703-.140921-.1233-.034997-.0531-.054997-.1146-.057883-.1781-.002887-.0635.011447-.1266.041486-.1826m9.099651-4.2414-2.47321-5.5083h-.09915l-2.45118 5.5083h5.02354ZM19 8.11933c0-.1008.04-.19748.1113-.26875.0713-.07128.168-.11132.2688-.11132h4.5828c1.1877 0 2.3268.47181 3.1666 1.31164.8398.83983 1.3117 1.9789 1.3117 3.1666 0 1.1877-.4719 2.3267-1.3117 3.1666-.8398.8398-1.9789 1.3116-3.1666 1.3116h-2.8918v4.7151c-.0028.0999-.0437.195-.1144.2656-.0707.0707-.1657.1117-.2657.1144h-1.3054c-.1008 0-.1975-.04-.2688-.1113-.0712-.0713-.1113-.1679-.1113-.2687L19 8.11933Zm4.8418 6.60987c.3365-.0007.6696-.0679.9802-.1977.3105-.1298.5923-.3196.8293-.5586s.4244-.5225.5515-.8341c.1271-.3117.1915-.6454.1893-.9819-.0086-.3258-.0814-.6467-.2144-.9442-.1329-.2975-.3234-.5659-.5604-.7895-.237-.2237-.5158-.3984-.8206-.51393-.3047-.11557-.6292-.16977-.9549-.1595h-2.7542v4.95743l2.7542.022ZM34.957 8.11933c0-.1008.0401-.19748.1114-.26875.0712-.07128.1679-.11132.2687-.11132h4.5774c1.1877 0 2.3267.47181 3.1665 1.31164.8399.83983 1.3117 1.9789 1.3117 3.1666 0 1.1877-.4718 2.3267-1.3117 3.1666-.8398.8398-1.9788 1.3116-3.1665 1.3116h-2.8919v4.7151c-.004.0995-.0454.1938-.1158.2642-.0704.0704-.1647.1118-.2642.1158h-1.3055c-.1008 0-.1975-.04-.2687-.1113-.0713-.0713-.1114-.1679-.1114-.2687V8.11933Zm4.8418 6.60987c.3364-.0014.6691-.0691.9793-.1991.3102-.1301.5918-.32.8286-.5588.2368-.2389.4243-.5221.5517-.8334.1274-.3113.1922-.6447.1907-.981-.0085-.3258-.0814-.6467-.2143-.9442-.133-.2975-.3235-.5659-.5604-.7895-.237-.2237-.5159-.3984-.8206-.51393-.3047-.11557-.6293-.16977-.955-.1595h-2.7541v4.95743l2.7541.022ZM50.9134 8.11933c0-.1008.04-.19748.1113-.26875.0713-.07128.1679-.11132.2687-.11132h1.3275c.0999.00278.195.04371.2657.11439.0707.07069.1116.16575.1144.26568V19.929h5.4422c.0503 0 .1002.01.1467.0295.0465.0194.0886.0479.124.0838.0353.0359.0632.0784.082.1252.0188.0467.0281.0967.0273.1471v1.1017c0 .1008-.04.1974-.1113.2687s-.1679.1113-.2687.1113h-7.1608c-.1008 0-.1975-.04-.2687-.1113-.0713-.0713-.1114-.1679-.1114-.2687l.0111-13.29697ZM63.3231 21.2757l6.1637-13.51728c.0371-.05977.0869-.11054.146-.14865.059-.03811.1259-.0626.1956-.07168h.2038c.0697.00908.1365.03357.1955.07168.0591.03811.109.08888.146.14865l6.1252 13.51728c.03.056.0443.1191.0414.1826-.0028.0635-.0228.125-.0578.1781-.035.0531-.0837.0957-.141.1233-.0572.0277-.1208.0393-.1842.0338h-1.2669c-.0989.0073-.1976-.0177-.281-.0714-.0835-.0536-.1472-.133-.1816-.2261l-1.2449-2.7541h-6.5604c-.4021.9254-.8262 1.8287-1.2283 2.7541-.0403.0889-.1054.1642-.1875.217-.082.0527-.1776.0807-.2752.0805h-1.2669c-.0633.0055-.127-.0061-.1842-.0338-.0572-.0276-.1059-.0702-.1409-.1233-.035-.0531-.055-.1146-.0579-.1781-.0029-.0635.0115-.1266.0415-.1826Zm9.0996-4.2579-2.4677-5.5083h-.0991l-2.4512 5.5083h5.018ZM81.2805 8.11937c.0028-.09993.0438-.19499.1144-.26568.0707-.07068.1658-.11162.2657-.11439h1.344c.1008 0 .1975.04004.2688.11132.0713.07127.1113.16795.1113.26875v8.29543c0 2.005 1.2834 3.5749 3.3325 3.5749s3.3711-1.5478 3.3711-3.5308V8.11937c0-.05038.01-.10026.0294-.14673.0195-.04648.0479-.08862.0838-.12399.0359-.03536.0784-.06324.1252-.08202.0467-.01877.0968-.02806.1471-.02733h1.3441c.0994.00406.1938.04541.2642.11583.0704.07041.1118.16474.1158.26424V16.558c0 1.4492-.5757 2.8391-1.6004 3.8638-1.0247 1.0247-2.4146 1.6004-3.8638 1.6004-1.4492 0-2.839-.5757-3.8638-1.6004-1.0247-1.0247-1.6004-2.4146-1.6004-3.8638l.011-8.43863ZM99.0519 19.7664c.1818-.2589.3415-.5508.5233-.8262.0294-.0605.0718-.1136.1243-.1556.0525-.0419.1137-.0717.1792-.087.0654-.0153.1333-.0158.1993-.0014.065.0143.127.0431.18.0842.121.0992 1.653 1.3881 3.217 1.3881 1.388 0 2.269-.8427 2.269-1.8673 0-1.2063-1.046-1.9664-3.035-2.7927-1.988-.8262-3.6516-1.9278-3.6516-4.2578 0-1.56439 1.2006-3.71261 4.4066-3.71261 1.329.02386 2.622.43758 3.718 1.18978.054.03534.1.0813.136.13506.035.05376.059.11419.071.17761.011.06342.009.12848-.005.19121-.015.06273-.042.12182-.081.17364l-.501.76561c-.028.0642-.07.1213-.123.1673-.053.046-.115.0797-.183.0986-.067.019-.138.0228-.207.0111-.069-.0117-.135-.0386-.192-.0787-.143-.0771-1.548-1.00247-2.71-1.00247-1.686 0-2.269 1.06857-2.269 1.81217 0 1.1403.881 1.8508 2.55 2.5283 2.33.942 4.318 2.0491 4.318 4.5003 0 2.0876-1.867 3.7952-4.478 3.7952-1.584.0143-3.12-.5497-4.3184-1.5864-.1817-.1652-.325-.3029-.1212-.6445M114.773 8.11933c0-.1008.04-.19748.112-.26875.071-.07128.168-.11132.269-.11132h8.036c.101 0 .198.04004.269.11132.071.07127.111.16795.111.26875v1.10165c0 .1008-.04.19747-.111.26875-.071.07128-.168.11132-.269.11132h-6.345v4.09815h5.365c.099.0041.193.0454.264.1158.07.0704.112.1648.116.2643v1.1016c0 .0504-.009.1004-.028.1472-.018.0467-.046.0893-.082.1251-.035.0359-.077.0644-.124.0839-.046.0194-.096.0294-.146.0294h-5.365v4.313h6.345c.05 0 .1.01.147.0294.046.0195.088.048.124.0838.035.0359.063.0785.082.1252.019.0468.028.0968.027.1471v1.1017c0 .1008-.04.1975-.111.2688-.071.0712-.168.1113-.269.1113h-8.036c-.101 0-.198-.0401-.269-.1113-.072-.0713-.112-.168-.112-.2688V8.11933ZM133.968 1.81675c.589 0 1.166.17477 1.656.50222.49.32744.872.79285 1.097 1.33737.226.54451.285 1.14369.17 1.72174-.115.57806-.399 1.10904-.816 1.5258-.417.41675-.948.70057-1.526.81555-.578.11498-1.177.05597-1.721-.16958-.545-.22554-1.01-.60749-1.338-1.09755-.327-.49005-.502-1.0662-.502-1.65558 0-.79034.314-1.5483.873-2.10716.559-.55885 1.317-.87281 2.107-.87281Zm0-1.81772656c-.948 0-1.874.28105656-2.662.80762956-.788.526577-1.403 1.275007-1.765 2.150667-.363.87566-.458 1.83921-.273 2.7688.185.92959.641 1.78348 1.311 2.45368.671.6702 1.524 1.12661 2.454 1.31152.93.18491 1.893.09001 2.769-.2727.876-.36271 1.624-.97694 2.151-1.76501.526-.78807.807-1.71459.807-2.6624 0-1.27097-.505-2.48988-1.403-3.38859-.899-.898707-2.118-1.40359656-3.389-1.40359656Z"/></g><defs><clipPath id="a"><path fill="#fff" d="M.375 0h138.39v22H.375z"/></clipPath></defs></svg>
