<svg xmlns="http://www.w3.org/2000/svg" fill="none" viewBox="0 0 185 97"><path fill="#fff" d="M112.977 66.9053c.123.7346.338 1.4386.675 2.112v6.1218h-.092c-.184.1224-.368.2754-.552.3979v.6734h-9.909v-.0613c-.122-.2142-.245-.3979-.399-.5815l-3.2512-.3367c-.7056.7346-1.5338 1.2855-2.4848 1.6528h-.1534c-2.4848 0-3.8652.1225-5.2763.1225-1.2271.5509-2.4848.9794-3.8039 1.2243h-.092v-.0612c-.4295-.4591-.6749-1.0713-.6749-1.6835 0-.4897.092-.8876.092-1.1019v-2.6017l.0921-.0612c.2147-.1225.4294-.2755.6135-.4898.1534-.2142.2147-.4897.184-.7652-.0613-.4591-.184-.8876-.3374-1.2855v-.1837l.1534-.0918c.5215-.2449.9203-.6428 1.227-1.1325.0921-.2449.1534-.5204.1227-.7653 0-.4285-.0613-.857-.1533-1.2855v-.1837l.1533-.0918c.2148-.1224.4295-.2755.5829-.4591.1227-.2143.184-.4592.1534-.704-.0307-.3979-.092-.7958-.2148-1.1938v-.1836c0-.3673.4909-1.0101.6749-1.6529.1534-.6428.2454-1.2855.2148-1.9589 0-.9183-.0921-1.8365-.2455-2.7548-.092-.551-.3067-1.0407-.6442-1.4998-.4908-1.4999-.7362-3.0609-.7055-4.6525.0307-2.1426.2454-4.2853.6442-6.3972l3.8959-10.3764c-.2454-.2142-.4601-.4591-.6442-.7346-.0307-.1224-.0307-.2449 0-.3673v-.7652l.0613-.0612c.5215-.5204.8283-1.1938.9203-1.9284v-1.1019c.1534-.7652 1.7793-2.7241 1.9633-4.5301V23.1962c1.043-3.0915 2.5768-5.9687 4.5404-8.5704v-2.4181h.092c.245-.153.46-.3673.552-.6428 0-.1836 0 0-.337-.4591h-3.4669v-.1224c-.1227-.2755-.3068-.4898-.5215-.704-.2761-.2449-.6442-.36735-1.0124-.33674-.7362.09184-1.5031.24484-2.2087.42854-.5215.2755-.8896.7652-1.043 1.3468-.5828 1.3774-.9509 2.7853-1.1657 4.2546-.6135 3.8873-1.2577 4.4382-2.086 4.53h-.3374c-.3681 0-.7362.2143-.8589.5816l-.1534.1837-.1534-.2143c-.2761-.2449-.6749-.6122-.7976-.6734l-.1534-.0918v-.1837c.2148-.4897.3068-.9794.3068-1.4998 0-.704-.3068-1.0407-.3375-1.8059.1228-.6122.4909-1.1631.9817-1.5304V3.20876h22.4863v.12244c.398.64278.429.61217.429.61217h.736v.79583c-.583.67338-.797 2.99964-2.699 4.86677.061.39793.092.82643.092 1.22433 0 .3367-.031.704-.092 1.0407-.307 1.1019-.982 2.0508-1.933 2.663.061.3979.092.8264.092 1.2243 0 .3673-.031.704-.123 1.0407-.46 1.1325-1.257.6122-1.288 1.9283 0 0-.368 2.4793-.706 4.071-.337 1.5916-1.135 2.4793-1.135 3.673-.03.2143-.03.3979 0 .6122l-.184 6.3972h-.092c-.951.5816-.797 4.224-2.515 6.0299v2.265c-.522 1.3774-1.5033 1.3162-1.9328 3.0915v7.4991l-1.9633 5.632c0 .2143.0614 1.0101.0614 1.8978 0 .4897-.0307 1.01-.092 1.4998-.3988 1.7447-1.0737 3.4281-2.0247 4.9586l-.2761.4591v.153c-.092.7347-.3067 1.4693-.6135 2.1733-.1227.5203-.3068 1.0407-.5828 1.4998.1227.1836.3067.3061.5215.3367.184-.1531.3374-.3367.4294-.5816l.1227-.2142.2148.0918c.3374.1836.7362.2449 1.135.2449.7362 0 1.5031-.2755 2.4541-.2755.2454 0 .3068-.2143.3681-.7346.0307-.6122.2454-1.1938.6442-1.6529.982-1.0407 3.16-1.255 3.651-1.6223 2.668-1.8365 3.742-.9794 5.491-3.7954l.153-.2449.215.2143c.214.2142.429.4285.613.6427h3.283v.1225c.552.4591.951 1.1019 1.135 1.8059-.43.5815-.675 1.2549-.706 1.9283Zm16.627-13.1923c.061 2.663-.031 5.3259-.276 7.9583v.0918h-.062c-.613 1.0101-1.073 2.112-1.319 3.2445-.337 1.4692-.981 2.8466-1.871 4.0403v3.7343l-.092.0612c-.767.4591-.89 3.3363-1.871 4.5301v2.3262l-.092.0613c-.184.1224-.369.2754-.553.4285v2.9996l-.092.0612c-.276.3673-.674.6428-1.135.7653-.153 0-.276-.0613-.337-.1837-.123.0306-.245.0918-.368.153l-.368.2143v-4.0709l-1.964-6.4279v-1.8365c.123-1.4998-3.221-2.5711-3.251-5.6626v-.0918c2.485-2.8466 3.988-6.4278 4.233-10.1927.092-.3979-1.687-1.6834-3.589-2.6629-1.503-.7346-2.914-1.5917-4.264-2.5405h-1.196l.552 1.6528v3.5812c.889.2143 1.441 1.2856 1.963 1.3774.184.0306.337.1837.337.3673-.368.6122-.705 1.2244-1.012 1.8672v.2142h-.245s-1.994-.1224-3.651-.1224c-.613-.0306-1.227.0306-1.84.1224-3.099 1.0407-6.657 2.3569-6.657 2.3569h-.184l-.092-.1531c-.8592-1.408-.123-1.01-.9206-2.1426l-.092-.153.092-.1224c.6446-.9795 1.4416-1.8672 2.3316-2.663 0-.9182.215-1.8059.613-2.6629.675-1.0101 2.148-1.2856 1.994-1.6529-.122-.2143-.306-.3979-.552-.4898l-.123-.0918v-.153s.246-2.0814.461-3.2139c.03-.2143.061-.3979.122-.6122-.184-.5816-.306-1.1937-.306-1.8059-.031-.4897.122-.9489.398-1.3468.184-.1836.368-.3367.583-.4897v-2.816h.092c.338-.1225.583-.4898.552-.8571 0-.2142 0-.0918-.184-.2448-.337-.1531-.552-.5204-.49-.9183-.031-.1836-.031-.3367 0-.5203.061-.3061.092-.6428.092-.9489 0-.6428-.154-1.0407-.154-1.6223 0-.306.031-.5815.123-.857.368-.7958.828-1.561 1.35-2.265.49-1.1632.736-2.4181.736-3.6731v-.153h.123c1.503-.7652.613-4.071 1.748-6.7033.399-1.1631 1.012-2.2344 1.81-3.1833v-.2143c0-.4591-.215-.857-.245-1.3774 0-.2754.092-.5203.245-.7346.184-.2142.399-.3673.644-.5203.368-1.255.829-2.5099 1.411-3.673.276-.7347.706-1.3774 1.289-1.9284V8.19797l.092-.06122c.215-.12243.399-.30608.491-.55095.184-.3673.49-.67339.889-.85704.614 0 .675-.61217.706-1.49982v-.73461c0-.91826.153-2.02017 1.411-2.02017 2.178.09182 1.933 3.67303 2.178 4.00973 1.748 3.82611 2.239 3.2139 2.301 4.16281v1.9283c0 1.6529 2.362 7.8052 2.392 7.8358l2.056 8.0807c.214.1836.368.3367.583.4591h.092v2.8772c.398.3061.675.7653.705 1.255 0 .2755-.092.4591-.061.5816.061.306.276.5815.583.704h.092v3.826h-.184v.1837c.122 2.3569.429 4.6831.889 7.0094v.1224c.276 1.2549.338 4.7443.338 8.2031Zm-16.32-9.7335c.031.3979 0 .7652-.092 1.1325v.0918c.399-.0306.797-.0306 1.196 0 .644 0 1.289.0612 1.933.1837 1.902.3979 3.006 1.7447 4.202 2.112h.553c0-.9183.092-4.1934.092-6.8258 0-1.4998 0-2.7241-.092-3.1833-.368-.7346-.553-1.561-.522-2.3568.031-.8877-.245-1.7753-.736-2.5099-.767-.7346-1.779-.3367-2.7-1.2856-.521-.6734-.92-1.408-1.196-2.2038l-.092 2.9996v.1225h-.092c-.399.3673-.644.8264-.736 1.3467-.123.551-.583 1.0101-1.135 1.1326.03 1.4386-.184 2.8772-.644 4.2546-.031.306-.031.6427 0 .9488-.154 1.1938.061 2.8466.061 4.0404ZM86.1659 55.672l-.2761.0612c-1.0123.2142-.5522 1.0407-1.3804 1.9283-.1841.9489-.2454 1.9284-.1841 2.8772 0 2.9079.2148 6.8564.2148 6.8564v.2754h-.2455c-.9203.1837-1.7485.6428-2.3927 1.2856l-.0614.1224h-7.485l-.0614-.1224c-.4294-.6734-.4294-.6734-.4601-.6428-.0307.0306-.3375 0-.7976 0-.4908-.0612-.9817.1837-1.2577.6122-.2148.4897-.7056.7958-1.2271.8264-.7976-.153-1.5645-.5203-2.178-1.0407h-5.123v-.1224c-.3681-.3061-.6135-.7346-.7055-1.1937.092-.2449.2454-.4592.4601-.6428l.4602-.4897v-4.3159h.092c.6135-.4591.5522-.3979.5828-.5203.0307-.1225 0-.2449 0-.4898v-.0612l-.092-.2448c-.092-.2143-.2147-.4898-.3374-.7653-.1841-.4285-.4295-.8264-.7363-1.1631l-.2147-.153.1534-.1837c.2454-.3367.3988-.7346.3988-1.1631 0-.4591-.1534-.8877-.4295-1.2243-.0307-.3367-.0307-.704 0-1.0407 0-2.0508.7362-4.5301.7362-5.7239v-.3367l.0921-.0612c.6442-.3673.4294-2.5099 1.227-4.1321.6442-1.1326 1.4111-2.1733 2.3008-3.1527.276-2.0814 1.2577-4.0098 2.7915-5.479.1534-.7346 1.3191-6.5502 2.4848-8.2949.2761-.2449.5828-.4897.8896-.704l.7363-.5204c0-.3673.4601-1.4998 2.6074-3.4281-.2147-.7346-.3067-1.5305-.3067-2.2957-.0307-.6734.1227-1.3467.3681-1.9589 1.4111-1.0101 2.2394-3.3058 4.5401-5.3871V8.81014l-7.2396-.06121c-1.0737 1.01008-3.8959 1.10191-3.9266 4.86677v.2449h-.3068c-.4908.0612-.9816.2448-1.4111.5203-.4908.2143-.8283.6428-.951 1.1631v5.2647c-.276.9489-.7362 1.8365-1.3497 2.6018l-.1534.2448-.2147-.2142c-.3682-.2755-.6136-.704-.6136-1.1632v-.5509c-.0306-.3367-.2454-.6122-.5521-.7346h-.0921v-.1531s-.184-1.3467-.3374-2.2038c0-.3367-.0614-.6734-.1841-.9795l-.1533-.0918v-.1836c.3374-.9795.5521-1.9896.6135-2.9997.0613-.6428-.1534-1.2855-.5522-1.7753-.1841-.1836-.3988-.3673-.6135-.4897h-.0921V5.74928c.3375-.42852.5215-.94886.6136-1.49982v-.39791h19.6942v3.67303c0 .55096.6136.64278.6442 1.59165V21.0536l-.092.0612c-.5828.5816-.8589 1.408-.7976 2.2344 0 .5816.0921 1.1632.2148 1.7447v.1531l-.1534.0918c-1.902 1.3162-2.8836 6.6115-4.0186 7.9583v2.9996h-.1534s-2.6382 1.1325-3.129 2.5099c-.1227.3673-.1841.7652-.1534 1.1631 0 .551.0614 1.1325.1841 1.6835v.2143l-.1841.0612c-2.1473.8264-5.6445 10.56-5.5831 11.0497v1.7753h-.2761l.1227.1224c-.0613.0919-.092.1531-.1227.2449-.092.2143-.2147.551-.3988.9489-.3068.8264-.7055 1.8977-1.1043 2.9996-.4909 1.8365-1.1044 3.6118-1.8713 5.3259.3374.5204.3681.5204.3988.5204h.5828c.5829 0 .8283-.3367 3.3131-1.4999 1.0737-.0306 2.1473-.2754 3.0983-.704.7669-.8876 1.4418-1.8671 2.0247-2.8772.7669-1.408 2.1473-2.418 3.7425-2.7547.1534-1.0101.5522-1.959 1.1964-2.7548l.2147-.2143.1534.2755c.092.1836.2147.3673.3374.5203 2.086-.9488 1.1351-1.9589 2.2394-3.2751v-.0918h1.8406V52.4274c0 1.0101.1534 1.9896.4601 2.9385l-.092.3061Zm-55.8618 4.377c0 .7958.4602 2.3875.4602 3.8567 0 .3367-.0307.704-.092 1.0407-.2761 1.1325-.6442 2.2344-1.1351 3.2751-.7362 1.0407-1.3497 2.1426-1.9019 3.2751-.4602 1.4692-.7669 2.9691-.9203 4.5301v.153h-.1227c-1.4418.6734-2.8222 1.4387-4.1413 2.3263-1.1964.6734-2.2394 1.5917-3.0063 2.7548v.153h-.1534c-1.4111.1837-2.7916.4591-4.1413.8264-.0614 0-.1227.0307-.1841.0613-.1534.2142-.3681.3673-.6442.3979-.7669-.1224-.9203-1.0101-1.4418-.9489-.3681.0612-.7362.2449-.9509.551-.3682.7346-1.3191.7346-2.42347.7346-1.31909-.0306-2.66885-.1531-3.95726-.3673-.24541.0918-.5215.153-.79759.1224-.70556 0-1.62585-.153-2.11667-.153H2.3886l-.12271.3979-.21474-.2143c-.27608-.2448-.67488-.6122-.79758-.6734l-.429473-.2754.460143-.1531c.70556-.2755 1.34977-.6122 1.96329-1.0407v-.0918c0-.0918.09203-.2755.15339-.4591.06135-.1837.27609-.9183.42947-1.4999.30676-1.1937.6442-2.6629.85894-3.7954 0-3.8261.21473-5.7851.21473-7.7746 0-1.1019-.06135-2.2038-.21473-3.3058 0-.4591-.27609-3.9791-.58285-6.5502 0-4.1322.24541-8.3562.24541-10.8661v-1.5916h.24541c.33744-.0306.6442-.2449.79758-.5816l-.1227-3.3363-.49082-1.0407v-4.775c.09202-.5203.30676-.9794.61352-1.408.09203-.3367.12271-.6734.09203-.9794 0-.6428 0-1.3162-.06135-1.4999l-.67488-1.1325V13.432h.09203c.61353-.4591.61353-.4591.61353-.5509v-1.6223c-.15338-.153-.27609-.3367-.3988-.5203h-.55217c-.03068.0918-.12271.153-.21474.153-.09203 0-.21473 0-.27608-.0612h-.21474c-.1227-.0306-.21473-.1224-.18406-.2449 0-.0612.03068-.153.09203-.1836l-.33744-.3979-2.17802-2.0508c-.12271-.24487-.276092-.42852-.490827-.61217C.548011 7.2491.45598 7.06545.486657 6.91241v-.67339c-.061353-.33669-.030676-.704.122706-1.01008.214735-.21427.398797-.42853.552177-.704V4.4025h3.58914c.82826-.33669 1.71788-.55096 2.6075-.58156 1.22705-.15305 2.48479-.24487 2.91422-.24487l3.4051.09182c3.4971 0 4.7855-.33669 6.5955-.33669 1.0123 0 2.0246.09182 3.0062.27548h.1534v.15304c.3681.82643 1.0123 1.49982 1.8099 1.89773h.3681c.6136 0 1.1964.15305 1.7179.48974 2.0247 1.7447 3.2517 4.22401 3.3744 6.88691 0 1.8672.4295 3.6425.4295 5.0199.0614.7346-.1534 1.4692-.6442 2.0201l-2.4234 4.5301c-1.1351 1.8365-2.4235 3.5812-3.8346 5.2035.1841.2754.4295.5203.7362.6734.7056.3979 1.4725.6121 2.2701.6733.4908.0613.8589.4898.8589 1.0101-.092.704-.3374 1.3468-.7669 1.9284-.0306.0612-.0306.1224 0 .1836 0 .2143.0614.4285.1534.6122.0307.1224.1227.2143.2454.2449l.092-.0919.1534-.2448.1534.153c.5522.3673.951.8877 1.1657 1.4998 0 .0919-.184-.0918.6135.5204l.1227.0918v.1531c-.3374 1.4692-.5214 2.9996-.5521 4.53-.0307 1.0713.1534 2.1426.5215 3.1221.184.551 1.2884.8265 1.3804 1.6529 0 .1836-.092.3673-.2147.4897v2.9997c0 2.0507.3681 4.0097.3681 5.8156.092 1.3774-.3068 2.7242-1.1044 3.8567-.092.1224-.1227.2755-.092.4285h-.0307v-.0612ZM21.408 15.0237c-.0307-.1224.0307-.2449.1227-.3061l.951-.6734c-1.0737-.3673-2.0247.2755-2.9143-1.4998h-.3068l-2.8836.4285.1841-.3979c.0614-.0918.092-.2143.092-.3061l-.2454.1225c-.092.306-.1534.6121-.1534.9182-.0306.3979-.2761.704-.6442.8571V26.655c.2148-.0612.4295-.1225.6749-.1225.2454 0 .4908.0613.7056.2143 1.2884-.3979.7669-3.5812 4.5401-4.0097v-1.4998c0-1.4999 0-3.2752.6442-3.9792-.3375-.7652-.5829-1.4692-.7669-2.2344Zm.5215 44.4743c0-.4285.2454-.8264.2147-1.1019 0-.1836-.1227-.3673-.2761-.4591l-.3067-.1837.3067-.2142c.1841-.1224.2761-.3061.2454-.5204 0-.7652-.8589-2.112-.8896-3.3975-.0307-.6428.2761-1.2244.7976-1.6223.1534-.704-.0307-1.408-.4601-1.9589-.5215-.551-.7363-1.2856-.6136-2.0202 0-.7346.6442-2.0202.6442-2.7854.0307-.1836-.0306-.3367-.184-.4591l-.2148-.1224.0921-.2143c.1227-.2143.1534-.4591.1534-.704-.0307-.551-.2455-1.0713-.6136-1.4998l-.3681-.3979H21.1319c-.2147-.3367-.3988-.7347-.5215-1.102 0-.153.0613-.2754.184-.3673.0614-.0612.0921-.153.0921-.2448-.2148-.5816-.5522-1.1019-1.0123-1.4998-.9817-.5816-1.8713-1.2856-2.6996-2.0814l-1.6258-1.6835v6.4278c-.3068.4591-.4602 1.0101-.4295 1.5916.0307 1.0101.1534 2.0202.3988 2.9997l-.7056 3.367h-.092c-.3067.0918-.4908.3673-.4908.6733v.0613c0 .3367.1841.6121.4908.7346h.1534v12.3658c-.2761.1837-.4908.4592-.5829.7653 0 .2142 0 .3979-.092.4897 0 .0918-.0613.1531-.092.2143v5.2034s0 1.6223.092 2.2651c.0307.0612.0307.1224 0 .153-.184.5204-.4601 1.0407-.7362 1.4998l-.4602.8571c.5829-.0612 1.1964-.1837 1.7486-.3673l1.5031-1.3774h.0921c1.1043 0 2.4848-2.3263 3.405-2.9997.9203-.6733.5215-3.4281.9203-5.6013v.0612-.1225c0-.0918.0921-.2754.1534-.4591.0614-.1836.2761-.8876.4295-1.3774.2454-.7958.3988-1.6222.5215-2.4487.0307-.0918.092-.2448.1534-.3367ZM156.906 70.6702c.153.2755.245.6122.245.9489 0 .4285-.092.8264-.276 1.1937-.368.8264-.123 1.0407-1.687 8.6316v.2755l-.246-.0612c-1.043-.2755-2.086-.704-3.006-1.255-3.466-3.3669-4.387-3.5812-5.859-3.5812h-1.196v-.4285c0-1.1631 1.963-5.6014 2.3-7.5297.215-2.112.307-4.224.276-6.3666.031-.704.031-1.408 0-2.112-.214-1.959-.582-3.8873-1.043-5.8157-.582-2.6935-1.625-5.3565-2.331-5.4177h-.215v-.2142c.184-1.4999.614-3.6731.614-4.5301.03-.0918.03-.1531 0-.2449-.951-1.8365-2.884-5.4483-4.019-6.0299.031.3061.062.5816.062.8877-.062.8876-.338 1.714-.767 2.4793-.307.4591-.522.9794-.645 1.4998v.0918c0 1.7141 1.688 15.3962 1.688 16.6817v.1837l-.338.2754c-.061.0613-.092.1225-.123.1837-.122.153-.184.3367-.184.5203.246.3673.43.7347.583 1.1632 0 .7958.123 1.7447.123 2.7241.061 1.3468-.153 2.663-.583 3.9179.092 1.4999.675 5.0199.675 6.7339.031.2143.031.398 0 .6122-.153.2143-.337.3979-.583.5204.061.4285.092.857.092 1.2855-.031 1.4386-.245 2.8772-.613 4.2852l-.184.8265-.277-.7959c-1.104-3.0608-3.006-5.7544-5.583-7.7745-1.902-1.5917-3.435-2.0508-3.558-2.9997 0 0 2.301-8.0807 3.282-9.0295.123-.3061.154-.6122.123-.9489 0-.6122-.061-1.2243-.153-1.8059-.184-.0918-.399-.1837-.583-.2449l-.123-.0612V41.1023c-.123-.4286-.184-.8571-.245-1.3162h-.092l-.307-2.7854c-.276-.3979-.43-1.1325-.552-1.1631h-.092V33.3583c-.123-.2755-.184-.5816-.215-.8877-.031-.3367-.092-.6428-.184-.9489l-.123-.0612V31.0932c.031-.6428-.092-1.3161-.307-1.9283-.214-.4591-.306-.9795-.245-1.4998 0-.4286-.061-.8877-.123-1.3162h-.061v-3.367c-.368-.2754-.614-.6733-.675-1.1325v-.2142c-.123-.2143-.307-.398-.552-.5204h-.092v-.1224c-.123-1.0101-.154-2.0202-.154-2.9997 0-1.0101.031-2.0201.154-2.9996v-.1224c1.074-1.0407 4.08-2.5712 6.043-5.32595-.491-.18365-1.779-.58156-1.994-.64278l-.092.12243c-.123.18366-.276.30609-.491.39792-.214.09182-.46.15304-.705.18365-.246-.03061-.491-.09183-.706-.24487h-.123v-.15304c-.398-1.37739-1.257-2.57113-2.423-3.36695-1.135-1.01009-2.147-1.59165-2.515-1.89774l-2.393-.52035v-.48973l9.479-.24487c.491-.30609 1.073-.45913 1.656-.42852.491-.03061.921.24486 1.105.70399h3.589l.705.36731 1.81.58156 2.577.76522h.614c.276-.03061.521-.03061.797 0 1.135.21426 2.178.7346 3.006 1.49982.461.45913.982.88765 1.504 1.25496h.153l3.344 7.03994c.122.4898.153 1.0101.122 1.4999 0 1.1937-.092 2.6935-.092 2.6935v.1225h-.092c-.092.2142-.184.4285-.245.6427-.061.2755-.184.551-.307.8265v2.816c-1.227 4.8055-3.497 8.6622-7.669 8.8153v1.1937c.031.3367-.123.6734-.399.8876h.154c.491 0 .92-.1836 1.503-.1836.767 0 1.626.4285 3.006 2.1426.614.4897.92 1.2549.859 2.0202 0 .153 0 .1836.123.1836.337.1224.644.2449.951.3979.184.0919.307.2755.307.4898v.2142c0 .2755.092.5204.214.7652.123.7346.276 1.4693.522 2.1733.276 1.1631.368 2.3874.337 3.5812 0 1.0713.092 2.1426.276 3.2139.123.1224.184.3061.184.4591 0 .2143.062.4591.123.704 0 .3367.153.6428.399.8264.092 0 .184-.0612.276-.0918l.215-.153.122.2448c.338.6428 1.135 7.1318 1.227 7.6522v.1836c-.214.7653-.368 1.5917-.398 2.3875.184.1225.429.2143.675.2449h.092v.0918c.429.7346.736 1.5611.889 2.3875v.1836c-.153.1837-.245.4286-.245.6734.122.7346.214 1.4386.245 2.1732-.031 1.1326-.153 2.2957-.399 3.3976l.062.3367Zm-11.933-46.8006c0-.4897.061-.9489.153-1.4386v-.3061h.153l.092-.2143c.062-.1836.123-.3673.246-.5203v-1.3162c.061-.2448.092-.4897.061-.7652 0-.8876-.245-1.7753-.705-2.5711 0 0-.982-1.408-2.178-2.816-1.166-1.408-2.577-2.7854-3.129-2.7548h-.553v19.2834h.767c.246.0307.491.0307.737 0 .92-.1836 1.779-.6427 2.454-1.3161.767-1.5917 1.38-3.2139 1.902-4.8974v-.3673Zm36.842 7.8052c.061 1.0713-.031 2.1732-.245 3.2445-.184 0-.491 1.1937-.89 1.6835v.4897c0 .7958.092 1.7141.092 2.6018.031.7652-.092 1.4998-.429 2.1732-.338.8264-.859 1.5916-1.504 2.2344l-.644 3.3363c-.245.7653-.399 1.5611-.491 2.3569 0 .6122.368 5.5096.368 9.1826.062 1.2549-.03 2.5099-.245 3.7649-.399 1.0713-.552 2.2038-.491 3.3669v.9795c.062 1.2855-.122 2.5405-.552 3.7648l-.675 3.6731c-.245 1.0407-.705 2.0202-1.35 2.8772-.153.3979-.368.7652-.705 1.0713-.215.1224-.399.2755-.552.4591-.276.7652-1.626.9489-3.16 1.4998-1.503.3367-2.976.7959-4.417 1.408h-.184c-.706 0-1.596-.8264-1.933-.7958-.491.4898-1.166.7958-1.871.8265-.859.1836-1.749.2754-2.639.2754-.245.0306-.46 0-.674-.0918l-.307-.153.184-.3061c1.196-1.2244 1.933-2.816 2.086-4.5301v-.3367c-.092-1.2243-.338-2.4181-.767-3.5812l-.092-.2143.215-.0918c.951-.3367 2.914-1.255 2.761-1.6223.03-.0918.03-.1836 0-.2754h-.092c-.215.0306-.43-.0919-.522-.2755l-.767-1.8977-1.319-2.9997 1.196-11.9374c-1.38-2.0813-2.392-4.377-2.944-6.7951V45.112c0-.551-.583-.6428-.645-1.4998 0 0-.153-2.3569-.153-4.1322-.031-.6122.031-1.2244.123-1.8059-.154-.1531-.338-.2755-.491-.3979l-.123-.1225.276-4.53c-.123-.3367-.215-.6734-.245-1.0101-.062-.3979-.123-.7958-.215-1.1938l-.031-.1836v-13.376l.123-.0612c.184-.1224.368-.2755.552-.4285v-5.1423h.123c.184-.153.368-.3061.552-.4897V7.03484c-.675-.64278-5.552-5.35651-5.828-5.60138l-.338-.39791h3.773v.12244c.123.21426.246.39791.399.58156h2.209v.18365c0 .64278 3.098 1.01009 4.54 2.63235h2.147v.12243c.215.33669.46.64278.737.94887h2.147l.061.12243c.123.21426.246.39791.399.58156h2.822v.12244c.123.21426.246.39791.399.58156h3.006l.062.12244c.951 1.59165 2.883 2.63234 3.282 3.36692 2.209 4.6525 1.779 5.0505 2.546 5.5402h.092l-.184 6.7339c.154.3367.276.704.368 1.0713.092.3673.215.7652.368 1.1019h.062v.1224c0 .0306.613 3.7343.644 6.5809Zm-9.908 11.0803c-.093-1.1019.398-2.1426 1.288-2.816.123-.6734.583-3.8261 1.503-4.7137v-6.4278c-.491-.6428-.828-1.3774-.92-2.1732-.123-.6734-.307-1.3468-.491-2.0202-.767-1.1019-2.331-1.4998-2.485-3.2445-1.503-.1531-1.779-1.4998-2.393-1.3774-1.227 0-1.902-.0918-2.822-.0918h-1.012l-.246 2.4487.184.857s.277 7.1012.277 9.7642v.5815c0 .1225.153.2755.214.4285l.276.6428v.0919c.092 1.4079.491 2.7853 1.166 4.0097h.123l-.092 31.1596c1.779-2.0202 2.883-4.5607 3.129-7.2237v-.3979c.736-2.5099 1.503-3.3363 1.779-4.7749 0-.7959 0-12.7944.46-14.3861.031-.1224.031-.2449.062-.3367ZM60.8272 69.6907l-.3988-.1836c-.3068-.1225-.6442-.2143-.951-.2143h-.7055c-.3375.0306-.7056.153-.9817.3367h-.1227l-.1227-.0918c-.8283-.2449-1.6872-.3367-2.5768-.2755-1.7179-.0306-3.4051.153-5.0616.5509-.3681.551-.8896.9795-1.5032 1.1938-.092 0-.2147-.0612-.2761-.1225-.3374-.2142-.6442-.4591-.9203-.7346l-.2147-.153.1534-.2143c1.9019-2.3568.8283-1.6528 3.0063-3.0914.4295-2.7854.6442-5.632.5522-8.448v-.6428h.092c.5828-.4591.5522-.4591.5828-.6122v-.6121c-.3067-.6734-.5215-1.408-.6442-2.112-.0306-1.0101.2454-2.0202.8283-2.8466l-.1534-27.8539h.092c.1534-.1224.3068-.2449.4602-.3367h.092v-.0612c-.1227-.2449-.3681-.4285-.6442-.4897v-.0919l-.8896-14.20237c-.2454-.55096-.7669-.94887-1.3804-1.01009-.5829-.03061-1.1044-.39791-1.3805-.91826-.3681.09183-.7669 0-1.0737-.24487-.2147-.33669-.4908-.61217-.8282-.82643l-.2147-.15304.1533-.21426c.2454-.30609.5522-.704.6442-.85705l.0921-.18365h.184c2.1781.27548 4.3561.3673 6.5341.30609 1.9019.06121 3.8039-.03061 5.7058-.27548l.1841-.06122.092.18365c.2454.36731.5215.704.7976 1.01009v1.408h-.1841c-1.5951.42852-3.313 1.89773-3.2823 3.09147 0 .94882.1227.91822.184.94882.3988.2449.5829.704.4602 1.1632.0306.4591-.2148.8876-.5829 1.1631-.2454.1224-.3988.3367-.3988.6122 0 2.0814.3068 7.744.3068 12.5189.0307 1.959-.0614 3.9485-.2761 5.8769.184.2754.2761.5815.2761.8876.0307.3367.1227.704.2147 1.0101h.092l.3682 2.0508-.1227.0918c-.2148.153-.4295.3061-.6136.4897-.3681.4592-.5215 1.0101-.4908 1.5917 0 .6122.1227 1.1937.1227 1.4998-.0307.2449-.0307.4897 0 .7652 0 .6734.0614 1.3162.2147 1.959.0614.4285 0 1.2855.0921 1.7753-.0307.0612-.0307.1224 0 .1836h.092v.1225c.0614.4285.092.857.092 1.2549 0 .4898-.0306 1.0101-.092 1.4998v.0919h-.0613c-.2148.153-.4295.3061-.6136.4897-.3374.2755-.5521.704-.5521 1.1631.3067 1.255.5214 2.5099.6441 3.7955v.2449c.2148.857.5216 1.6834.8897 2.4487l.092.0612-.2761 4.8974h-.092c-.2148.1224-.4295.2754-.5829.4897-.184.2143-.2761.4897-.2761.7652.0614.5204.1534 1.0101.3068 1.4998.5522 2.2345.3681.9795 4.4481 3.9179h.092l.3068 2.7242Zm23.1607 14.233h-9.1416v-.1224c-.1227-.1837-.2454-.3979-.3988-.5816h-2.2087v-.1224c-.092-.3061-.3374-.551-.6749-.6122h-.3988c-.4601-.0612-.8896-.3061-1.135-.704h-6.35c-.6442.0306-1.2577-.3367-1.5032-.9488-1.2884-.0919-9.479-.1225-13.7737-.1225H45.581l-.0614-.1224c-.5521-.4898-1.1963-.7958-1.9019-.9489h-2.3928c-.3987.3979-3.8038 2.5099-4.0799 3.3976l-.0614.1836h-.184c-1.2884-.2142-2.5768-.3061-3.8653-.3367-.6748-.0612-1.3804.0613-1.9939.3061l-.2148.1225-.1227-.3061c-.1227-.2449-.3374-.4592-.5828-.6122l-.2148-.1531.1534-.2142c.3681-.2755.5829-.6734.6136-1.1019v-.0918l1.9326-1.0101c.7669-.7346.6442-.4285 2.3007-1.9284v-2.9996h.092c.2761-.1225.4909-.3673.5522-.6734-.0613-.3061-.2454-.551-.5522-.6734l-.1534-.153v-5.3872h.1841c.1841-.1224.3681-.2754.5522-.4285v-2.3874h.092c.6135-.4592.5522-.398.5522-.5204v-.4897c-.0614-.7653-.5215-1.408-1.1964-1.7447l-.1841-.1225v-9.0295h.1534c.2454-.0612.4602-.2449.5215-.4897-.092-.7653-.1534-1.5611-.1534-2.3263 0-.7958.0614-1.6223.1534-2.4181v-.0918h.0921c.184-.1224.3681-.2755.5521-.4285v-7.0706h.0921c.3988-.3979.6748-.9489.7362-1.4999v-.0918c-.0307-.5509-.2454-1.0713-.6442-1.4692h-.092v-9.9784c-.1534-.153-.3375-.3061-.5522-.4285h-.092v-5.4484h.092c.4295-.3367.8283-.7346 1.1964-1.1325 0-.3673.1227-1.7753.1227-2.9996 0-.551-.0307-1.1325-.1227-1.6835-.1841-.153-.3682-.3061-.5829-.4591l-.2147-.1531.2147-.2755c.5522-.9794.9203-2.0201 1.0737-3.122-.1534-1.255-.5522-2.50994-1.135-3.64246-.3375-.3367-.8283-.45913-1.2884-.36731h-.3375v.09183l-.2761-.18365c-.7669-.58156.2454-.94887-3.2823-3.5506l-.2148-.15305.1534-.21426c.3681-.27547.5829-.67339.6135-1.13252v-.18365h1.1657l.0614.12243c.1227.21426.2454.39792.3988.58157h5.2456v.12243c.2148.67339.7976 1.19374 1.5032 1.34679.2147 0 .3988-.09183.7055-.09183.1534 0 .2761.06122.3988.15304.8897 1.10191 1.8406 2.17321 2.8836 3.12208h.0921v6.61146l-.0921.0612c-.3681.1225-.5828.4898-.5521.8571.2147.5815.6442 1.0713 1.1963 1.3161h.0921V19.8905c-.1841.1224-.3682.2754-.5522.4285v13.8963c.5215.3061.951.7346 1.2884 1.2244.3681 1.4692.4908 2.9996.3681 4.53 0 4.1934-.3374 9.7642-.3374 9.7642v.1224h-.0921c-.184.1225-.3681.2755-.5521.4285v4.7138c.184.153.3681.3061.5521.4285h.0921v.0918c.0306.4285.0306.8571 0 1.2856v2.6629l-.1227.1531c-.7976.1224-.7363.6428-1.0737 1.6528.3988.2755.6135.7346.6135 1.2244v.2142c.092.551-.1534 1.102-.6442 1.3468v2.9997l-.092.0612c-.1841.1224-.3681.2755-.5522.4285v4.4383l-.092.0612c-.3068.2142-.5215.5509-.5522.9182v.2143c.5829.4591.8283 1.1937.7056 1.9283 1.1963 0 2.086.1531 3.1903.1531.6442 0 1.2884-.0612 1.9326-.1531.4602-.704 1.135-1.2549 1.902-1.5916h.3067c1.1044 0 3.129 1.0101 5.3377 1.0101 1.1351.0306 2.2394-.2755 3.1904-.8877.2147-.3367.5522-.5509.9509-.5815.7976-.1531 1.6259-.2449 2.4542-.2755 1.9939-.1224 4.7241-.1837 7.4543-.1837 5.8285 0 11.8411.2143 11.8411.2143h.2454v8.3562l.0614.1836.3068.6122c.276.5203.5521 1.0101.8896 1.4998l.2454.4591ZM184.607 5.35137c0 .82643-.399 1.92834-3.099 1.92834-2.73 0-3.129-1.10191-3.129-1.92834V2.74963c0-.79582.43-1.928341 3.129-1.928341 2.7 0 3.099 1.101911 3.099 1.928341v2.60174Zm-.522-2.66295c0-.61218-.429-1.34678-2.577-1.34678-2.147 0-2.577.7346-2.577 1.34678v2.69356c0 .61217.43 1.37739 2.577 1.37739 2.148 0 2.577-.73461 2.577-1.34679V2.68842Zm-3.405 1.89773v1.31617c.031.06122 0 .12244-.061.12244h-.369c-.061 0-.122-.06122-.122-.12244V2.22929c-.031-.06122 0-.12243.061-.12243H181.662c1.135 0 1.411.55095 1.411 1.04069v.3673c0 .45913-.307.85704-.767.94887l.613 1.40799c.031.06122 0 .12244-.061.12244h-.399c-.061 0-.123-.06122-.123-.12244l-.552-1.31616h-1.104v.0306Zm0-1.98956v1.49983h.92c.399.09182.798-.15305.89-.55096v-.3367c-.061-.39791-.43-.70399-.828-.64278h-.092l-.89.03061ZM12.9091 96.5658H7.41797v-7.4379h5.42973v1.3774l-3.55847-.0306v1.561h3.40507v1.3774H9.28923v1.7753h3.61987v1.3774ZM26.5277 96.4127h-1.4725L21.19 91.9132v4.4995h-1.7486v-7.0094h1.5952l3.7425 4.2852v-4.2546h1.7486v6.9788ZM41.868 90.475h-2.6996v6.0912h-1.8405V90.475h-2.7302v-1.3773h7.2703v1.3773ZM53.6479 96.5655l-5.4604-.0306v-7.3767h5.3684v1.3774h-3.5278v1.5304h3.3744v1.3774h-3.3744v1.7447l3.6198.0306v1.3468ZM64.9654 89.0666c1.2271-.1224 2.2701.7959 2.3928 1.9896v.1224c0 .7958-.4909 1.5305-1.2578 1.8059.7669.3673.9817 1.2856 1.994 3.4282h-2.0553c-.7976-1.4998-1.0737-2.9997-2.0553-2.9997h-.5215v2.9997h-1.81v-7.3461h3.3131Zm-1.5031 3.0303h.9509c.4602.0612.9203-.2449.9817-.704v-.1225c0-.4591-.3681-.857-.8283-.857-.0613 0-.1227 0-.2147.0306h-.9203v1.6529h.0307ZM81.133 90.5356h-2.6995v6.0605h-1.8713V90.505H73.832v-1.3468h7.301v1.3774ZM93.9562 96.596h-1.9326l-.5828-1.4998h-3.2211l-.6135 1.4998h-1.8406l2.8836-7.1624h2.086l3.221 7.1624Zm-4.2026-5.4483-1.043 2.7854h2.2087l-1.1657-2.7854ZM102.298 96.4437h-1.38v-7.346h1.38v7.346ZM117.238 96.596h-1.503l-4.019-4.6525v4.6525h-1.81v-7.2542h1.657l3.865 4.4382v-4.4076h1.81v7.2236ZM131.227 89.1279h1.626v7.4991h-1.871v-4.6831l-2.025 2.3569h-.276l-2.025-2.3569v4.6831h-1.871v-7.4991h1.626l2.393 2.7854 2.423-2.7854ZM146.597 96.5049l-5.277-.0307V89.373h5.215v1.3162H143.1v1.4692h3.282v1.3162H143.1v1.7141h3.497v1.3162ZM161.013 96.5964h-1.534l-4.08-4.7137v4.7137h-1.84v-7.3767h1.687l3.926 4.5301v-4.4995h1.841v7.3461ZM174.666 90.4747h-2.7v6.0299h-1.84v-6.0299h-2.669v-1.3468h7.209v1.3468Z"/></svg>
