<svg xmlns="http://www.w3.org/2000/svg" fill="none" viewBox="0 0 67 22"><g clip-path="url(#a)"><path fill="#fff" fill-rule="evenodd" d="M66.7284 19.9751c0 1.0484-.886 1.9301-2.0064 1.9301H2.90773c-1.05305 0-1.989761-.8817-1.989761-1.9301V2.02325c0-1.064491.936711-1.9295 1.989761-1.9295H64.722c1.1204 0 2.0064.865009 2.0064 1.9295V19.9751Z" clip-rule="evenodd"/><path stroke="#000" stroke-width=".0608555" d="M66.7284 19.9751c0 1.0484-.886 1.9301-2.0064 1.9301H2.90773c-1.05305 0-1.989761-.8817-1.989761-1.9301V2.02325c0-1.064491.936711-1.9295 1.989761-1.9295H64.722c1.1204 0 2.0064.865009 2.0064 1.9295V19.9751Z"/><path fill="#000" fill-rule="evenodd" d="M19.1755 8.49598c.3848-.33247.5853-.84837.5853-1.34766 0-1.14817-.9702-2.07968-2.2076-2.07968h-4.8655L9.84591 14.868c-.13423.4162-.51847.7154-.98681.7154-.5519 0-.97013-.4328-.97013-.9814L10.899 4.10391c.167-.46604.602-.81573 1.1539-.81573l6.1023-.0333c2.0399 0 3.6956 1.68071 3.6956 3.7604 0 1.56376-1.4546 3.04442-2.2905 3.54372.8019.6323 1.3037 1.6469 1.3037 2.7452 0 .7985-.4678 1.7638-.6355 2.063h-.0334c-.9863 1.5306-2.7589 2.4959-5.0159 2.4959l-9.0289-.0338c-.51847 0-.98624-.3824-.98624-.8983 0-.5491.46777-.9647.98624-.9647l9.2962.0333c1.6055 0 2.7928-.7985 3.2104-1.8137l.0835-.2161c.0501-.1663.1003-.2998.1003-.5492 0-1.0478-.9362-1.9467-2.1235-1.9467h-2.8083c-.5018 0-.9368-.4654-.9368-.9481 0-.54915.435-.98192.9368-.98192h3.0929c.9027-.0832 1.6551-.44886 2.1234-.96477l.0503-.08313ZM29.7128 15.749c0 .1329-.1336.266-.2673.266h-5.8022l1.4212-4.5583c0-.133.1342-.266.2678-.266h5.7683l-1.3878 4.5583Zm1.7726-6.38865H25.466c-.9862 0-1.8227.56579-2.09 1.36425l-1.6885 5.3735v.2161c0 .7991.6683 1.4646 1.5548 1.5477h6.2533c1.0196 0 1.8561-.6156 2.1234-1.4141l1.6049-5.5403c0-.8816-.7522-1.54715-1.7385-1.54715ZM41.2748 15.6995c0 .1835-.1336.266-.2679.266h-5.7682l1.3878-4.5084c0-.1329.1342-.266.2678-.266h5.7516l-1.3711 4.5084Zm3.9963-9.83257c-.5352-.13292-1.0197.08319-1.1539.53253l-.8526 2.87819v.08319h-6.2372c-.9862 0-1.8222.5658-2.0895 1.36426l-1.6383 5.3408c-.034.0832-.034.1663-.034.2161 0 .7985.6527 1.4474 1.5387 1.5472h6.2534c1.0197 0 1.8561-.5818 2.1234-1.4136l1.605-5.5076.5185-1.76324.6354-2.21268c.1169-.4494-.1839-.93215-.6689-1.06515ZM48.5175 11.4723c0-.1329.1336-.2659.2506-.2659h5.7688l-.4349 1.5471-5.986-.0499.4015-1.2313Zm7.0898 2.8616 1.0196-3.4606c0-.8484-.7529-1.54713-1.7391-1.54713h-6.0195c-.9862 0-1.8221.56576-2.1234 1.36423l-1.6551 5.3242v.2161c0 .7985.6689 1.464 1.522 1.5472h6.2863c1.0202 0 1.8561-.6157 2.1234-1.4142l.1003-.3491h-8.0755l.4511-1.6308 8.1099-.0499ZM61.4124 17.83c.5185 0 .92-.399.92-.8816 0-.4993-.4015-.8817-.92-.8817h-2.8089l1.4211-4.8254h1.8228c.5345 0 .9361-.4156.9361-.9481 0-.53256-.4016-.93154-.9361-.93154h-1.2375l.0335-.18343.6354-2.19606c.1336-.44883-.1837-.93148-.7189-1.06446-.4851-.13292-1.0197.08319-1.1038.53253l-.8526 2.86156-2.0733 7.104c-.0836.7986.6187 1.4142 1.3711 1.4142h3.5111Z" clip-rule="evenodd"/></g><defs><clipPath id="a"><path fill="#fff" d="M.816406 0h66v22h-66z"/></clipPath></defs></svg>
