<svg xmlns="http://www.w3.org/2000/svg" fill="none" viewBox="0 0 61 14"><g fill="#fff" clip-path="url(#a)"><path fill-rule="evenodd" d="M25.789 6.77516c.363-.14045.6744-.38842.8926-.71073.2182-.3223.3327-.70356.3282-1.09274 0-1.62312-1.1514-2.42774-2.7329-2.42774h-4.148v8.82585h4.5087c1.3873 0 2.7468-.9711 2.7468-2.45545 0-1.76462-1.5954-2.12254-1.5954-2.13919Zm-3.4959-2.4h1.6092c.1031-.00639.2064.00761.304.04119.0976.03358.1877.08608.265.15451.0773.06842.1404.15142.1856.24424.0452.09282.0716.19365.0778.29671v.09572c-.0044.21698-.0943.42343-.2502.5744-.1559.15097-.3652.23422-.5822.23161h-1.6231l.0139-1.63838Zm1.6231 5.14682h-1.6093v-1.7341h1.5677c.7907 0 1.1653.34682 1.1653.86011 0 .64093-.4717.87399-1.1237.87399ZM32.1563 2.32129c-2.5526 0-4.0508 2.03931-4.0508 4.61965 0 2.58035 1.4982 4.61966 4.0508 4.61966s4.0509-2.02544 4.0509-4.61966c0-2.59422-1.4844-4.61965-4.0509-4.61965Zm0 7.13064c-1.2485 0-1.8728-1.1237-1.8728-2.51099 0-1.38728.6243-2.49711 1.8728-2.49711 1.2486 0 1.8867 1.1237 1.8867 2.49711 0 1.40116-.6381 2.51099-1.8867 2.51099ZM40.9121 6.01166l-.3052-.06936c-.7491-.1526-1.3457-.34682-1.3457-.88786 0-.58266.5688-.8185 1.0682-.8185.3408.00508.6768.08038.9871.22122.3103.14083.5883.34416.8164.59728l1.3734-1.35954c-.6243-.70751-1.637-1.38728-3.2185-1.38728-1.8589 0-3.274 1.04046-3.274 2.77456 0 1.58151 1.1376 2.35839 2.5249 2.64971l.3052.06937c1.1514.23584 1.5815.41618 1.5815.9711 0 .52717-.4717.87399-1.1931.87399-.8601 0-1.637-.37457-2.2335-1.13758l-1.4011 1.38729c.7768.92944 1.7618 1.65084 3.6624 1.65084 1.6509 0 3.4127-.9433 3.4127-2.87165.0277-2.01156-1.4983-2.4-2.7607-2.66359ZM48.6115 9.45172c-.9711 0-1.9838-.80462-1.9838-2.56647 0-1.56763.9433-2.44162 1.9283-2.44162.7769 0 1.2347.36069 1.5954.98497l1.7757-1.17919c-.8879-1.34566-1.9422-1.91445-3.3989-1.91445-2.6635 0-4.1063 2.06705-4.1063 4.56416 0 2.62197 1.5953 4.67518 4.0786 4.67518 1.748 0 2.5803-.6104 3.4821-1.91448L50.193 8.45565c-.3607.57989-.7492.99607-1.5815.99607ZM57.8497 2.54395v3.24624h-2.6775V2.54395h-2.3167v8.82315h2.3167V7.88499h2.6775v3.48211h2.3168V2.54395h-2.3168Z" clip-rule="evenodd"/><path d="M6.78436.295898c-1.3225 0-2.61531.392169-3.71493 1.126912-1.09962.73475-1.95667 1.77907-2.462776 3.0009-.506101 1.22184-.6385196 2.56631-.380512 3.8634C.48415 9.58421 1.121 10.7757 2.05615 11.7108c.93515.9352 2.12661 1.572 3.4237 1.83 1.2971.258 2.64157.1256 3.86341-.3805 1.22184-.5061 2.26614-1.3631 3.00094-2.4628.7347-1.09959 1.1269-2.39239 1.1269-3.7149 0-1.77342-.7045-3.47421-1.9585-4.72821S8.55779.295898 6.78436.295898Zm0 12.749102c-1.19903 0-2.37114-.3555-3.3681-1.0217-.99696-.6661-1.774-1.6129-2.23285-2.72071C.724561 8.19483.604504 6.97588.838425 5.79988c.233915-1.17599.811305-2.25621 1.659155-3.10406.84785-.84785 1.92807-1.42524 3.10406-1.65916 1.176-.233916 2.39495-.11386 3.50271.34499 1.10775.45885 2.05455 1.23589 2.72075 2.23285.6661.99696 1.0217 2.16907 1.0217 3.3681-.0004 1.60775-.6392 3.1495-1.7761 4.2864-1.1368 1.1368-2.67859 1.7757-4.28634 1.776Z"/><path d="M9.5465 2.80664h-.4578v2.28902H4.49679V2.80664h-.47168c-.69085.45577-1.25783 1.07582-1.65012 1.80459-.3923.72877-.59765 1.54349-.59765 2.37113 0 .82765.20535 1.64237.59765 2.37114.39229.7288.95927 1.3488 1.65012 1.8046h.47168V8.87184H9.0887v2.28906h.4578c.6912-.4556 1.2584-1.0756 1.6509-1.80436.3925-.7288.598-1.54363.598-2.3714 0-.82778-.2055-1.64261-.598-2.37141-.3925-.7288-.9597-1.34877-1.6509-1.80432v-.00277ZM3.85864 10.2591c-.43025-.38226-.78098-.84556-1.03217-1.3634-.25118-.51784-.39791-1.08009-.43179-1.65465-.03388-.57455.04575-1.15015.23433-1.69392.18859-.54378.48244-1.04508.86477-1.47529.1146-.128.23642-.24936.36486-.36347v6.55073ZM9.0887 8.23369H4.49679V5.71994H9.0887v2.51375Zm.62427 2.01161V3.70837c.42923.3854.77823.85159 1.02723 1.37193.2489.52034.3929 1.08464.4237 1.66065.0308.57601-.0522 1.15244-.2443 1.69636-.192.54391-.4894 1.04466-.8751 1.47361-.10487.11598-.21553.22668-.33153.33158v.0028Z"/></g><defs><clipPath id="a"><path fill="#fff" d="M.09375.271484h60.0694v13.4566H.09375z"/></clipPath></defs></svg>
