<svg xmlns="http://www.w3.org/2000/svg" fill="none" viewBox="0 0 43 10"><g fill="#fff" clip-path="url(#a)"><path fill-rule="evenodd" d="M7.18345.892015C6.35036.402589 5.51696.21953 4.43473.288397c-.88505.056311-2.1377.526511-2.58002.968363-.24258.24231-.23531.25585.48681.92048l.73303.67456.54848-.2744c.51688-.25869 1.89591-.32501 2.11913-.10202.20242.20218-.2679.44127-.83613.42477-.62353-.01795-1.22143.17943-1.27878.42214-.0708.2993.35503.52964.6962.37662.18945-.08507.55273-.09752.80718-.02758.44722.12263.48653.1032 1.17536-.58371.82936-.82709.81227-.88987-.35868-1.31632-.7774-.28312-1.67541-.2737-2.40678.02541-.30238.12371-.52.11821-.65464-.01629-.16273-.16255-.14653-.23171.08348-.35807 1.07842-.592235 2.78487-.532786 3.86957.13479.51255.3156.65613.34385.83548.16472.30189-.30157.24522-.39722-.49097-.829845ZM8.37042 1.91913c-.05932 0-.40384.29568-.76563.65708l-.65769.657.26919.60146c.2524.56348.31425 1.95495.09663 2.17235-.18099.1808-.48022-.27978-.41649-.64108.0808-.45883-.07543-1.22136-.29592-1.44317-.27823-.28009-.65651.21749-.49455.65022.07491.2.07768.5724.00638.82748-.12728.45498-.11589.47675.58461 1.12374l.71447.65974.25985-.32903c.55371-.70103.72646-2.03884.38115-2.9504-.14722-.3886-.15576-.63884-.02621-.76825.15969-.15951.22704-.13557.39833.14167.55202.89301.48996 2.46853-.14642 3.71638-.26842.5263-.31211.75911-.17659.94177.23983.32296.56018.00276 1.03156-1.03105.41858-.91802.51099-2.48992.19877-3.37823-.23607-.67159-.79587-1.60768-.96144-1.60768ZM.8623 2.32596C-.196185 3.78591-.17507 6.21991.909342 7.7438l.306018.4301.73322-.73243c.72781-.72705.73165-.73498.51274-1.07666-.37388-.58362-.45618-2.11205-.1315-2.44204.17815-.18129.45303.35325.37466.72899-.07238.34717.14988 1.41362.33273 1.59631.02918.02913.17853-.0724.33183-.22553.20055-.20034.24219-.37673.1481-.62806-.07198-.19218-.09211-.53544-.04467-.76275.07935-.38023.02898-.4706-.62874-1.12757l-.71485-.71408-.24689.39103c-.13582.21495-.31397.60204-.39597.86016-.17766.55946-.09654 1.90345.13876 2.29585.11618.19396.09517.35172-.06874.51545-.23423.23395-.23796.2316-.44744-.27823-.47768-1.16191-.370434-2.62167.27174-3.69813.26291-.44077.27312-.56104.06521-.76872-.23324-.23299-.26427-.22142-.58325.21847Zm4.29188 3.98566c-.22755.04739-.57116.02728-.76355-.04462-.32487-.12126-.40118-.07937-1.07067.5894-.65907.65834-.70366.73703-.52119.9193.57953.57889 2.21764.80533 3.1836.44017.37064-.14008.63942-.15294.75649-.036.23845.2382.1204.33768-.73271.61656-1.11242.36387-2.40599.19927-3.3594-.42742-.37378-.24564-.49841-.25456-.75169-.05434-.29521.23347-.29148.24879.13533.55153.66948.47509 1.91546.86839 2.75099.86839.89056 0 2.03488-.34808 2.68109-.81561l.46511-.3365-.74914-.74831c-.65651-.65583-.77103-.72644-.92627-.57134-.28294.28263-1.56613.50179-2.09725.35815l-.48653-.13163.2476-.24734c.14328-.14312.36906-.2107.53572-.16019.30669.09272 1.28799-.09191 1.47361-.27733.21712-.21691-.3513-.58028-.77114-.49287Z" clip-rule="evenodd"/><path d="M4.84422 5.85115c.40093 0 .62674-.19565.7627-.43503l-.4447-.25089c-.06683.1197-.1521.20255-.30417.20255-.17743 0-.30184-.14731-.30184-.35676v-.00459c0-.19336.11981-.35216.30184-.35216.14747 0 .23273.08055.29264.19563l.4447-.26009c-.13594-.24627-.37557-.41891-.73044-.41891-.48157 0-.85714.35908-.85714.84012v.0046c0 .49946.38941.83553.83641.83553ZM16.1073 3.98239c-.2501-1.01414-1.0456-1.60446-2.1972-1.60446-1.3258 0-2.5078.93845-2.5078 2.7094 0 1.77093 1.182 2.70938 2.5078 2.70938 1.1516 0 1.9471-.59032 2.1972-1.60443l-.8865-.22706c-.2045.53735-.5758.92333-1.3107.92333-.8182 0-1.5077-.5752-1.5077-1.80122 0-1.22604.6895-1.80124 1.5077-1.80124.7349 0 1.1062.38598 1.3107.92333l.8865-.22703ZM16.6914 2.37793v5.35824h.9395V6.12415c0-1.02926.4621-1.46065.894-1.46065.3864 0 .5682.21948.5682.68113v2.39154h.9395V5.01163c0-.7795-.4698-1.15034-1.1895-1.15034-.5531 0-.9698.28759-1.2122.67356V2.37793h-.9395ZM24.0574 7.7362V3.92188h-.9394v1.52117c0 1.00656-.4167 1.55147-.8713 1.55147-.3182 0-.5455-.17407-.5455-.62814v-2.4445h-.9395v2.72451c0 .76439.4925 1.15036 1.1744 1.15036.4924 0 .9015-.27245 1.1819-.67355v.613h.9394ZM25.7832 7.7362V6.38151c0-1.23362.4773-1.68014 1.0228-1.68014.1591 0 .2804.03787.394.10597l.1743-.87033c-.1516-.04542-.2955-.07568-.4622-.07568-.4319 0-.8561.23461-1.1289.68113v-.62058h-.9394V7.7362h.9394ZM27.8125 3.92188V7.7362h.9395V6.21503c0-1.00659.4166-1.5515.8712-1.5515.3183 0 .5454.17407.5454.62817v2.4445h.9395V5.01166c0-.76436-.4925-1.15033-1.1742-1.15033-.4925 0-.9017.27245-1.1819.67355v-.613h-.9395ZM31.8398 2.37793v5.35824h.9395V5.93496l1.3487 1.80121h1.1515l-1.6289-2.05854 1.5305-1.75579H34.022l-1.2427 1.49847V2.37793h-.9395ZM38.9107 5.7458c0-.8325-.5075-1.88447-1.7803-1.88447-1.3109 0-1.8335 1.0671-1.8335 1.9677 0 .90062.5226 1.96772 1.8335 1.96772.9241 0 1.4393-.43894 1.7348-1.11252l-.7576-.28001c-.2273.39353-.4924.5903-.9244.5903-.5831 0-.8787-.43894-.9014-.86275h2.6289V5.7458Zm-1.7803-1.08227c.4998 0 .7348.34814.8181.72656h-1.6439c.0682-.36327.3484-.72656.8258-.72656ZM38.9492 3.92188l1.3865 3.57216-.6593 1.78608h.9094l1.9696-5.35824h-.9395l-.8332 2.39151-.8866-2.39151h-.9469Z"/></g><defs><clipPath id="a"><path fill="#fff" d="M.0820312.0751953h42.7283v9.84971h-42.7283z"/></clipPath></defs></svg>
