<svg xmlns="http://www.w3.org/2000/svg" fill="none" viewBox="0 0 115 22"><g clip-path="url(#a)"><mask id="b" width="115" height="22" x="0" y="0" maskUnits="userSpaceOnUse" style="mask-type:luminance"><path fill="#fff" d="M.902344 0H114.514v21.272H.902344V0Z"/></mask><g mask="url(#b)"><path fill="#fff" fill-rule="evenodd" d="M58.8727 0h5.4856l2.5897 11.2237h.1165L69.7189 0h5.3296v15.3768H71.785V3.7662h-.1484l-2.8748 11.6106h-3.6665l-2.809-11.6106h-.1485v11.6106h-3.2651V0ZM.898438 0H11.1014v2.86506H4.36901v3.18755h6.42949v2.78122H4.36901v3.67327h6.73239v2.8697H.898438V0ZM15.7632 15.3768l3.4953-4.4596 2.181 2.19-4.9896 6.2011h3.904l3.1946-4.1087 6.0127 6.0724h4.7115l-8.641-8.6235 6.8048-8.53422H28.532l-5.0297 6.40822-2.1772-2.17007 5.5945-6.99446h-3.8955l-3.8196 4.87985-2.0754-2.12354h-4.6469l4.681 4.69035-5.29 6.57217h3.89Zm78.4697 0 .0351-.8666c.2344.1757 1.2733 1.1243 3.4495 1.1243 2.8605 0 5.5155-2.5438 5.5155-5.88751 0-3.35025-2.492-5.89403-5.4776-5.89403-2.2824 0-3.3271 1.0384-3.4874 1.1542V0h-3.2254v15.3768h3.1903Zm5.5936-5.63788c0 1.58798-1.2269 2.82198-2.8338 2.82198-1.6245 0-2.8446-1.2298-2.8446-2.81391 0-1.60348 1.2364-2.82039 2.8483-2.82039 1.62 0 2.8301 1.22791 2.8301 2.81232ZM111.147 0h3.363V15.3768h-3.363V0Zm-5.956 2.86541h3.362V0h-3.362v2.86541Zm0 1.24887h3.362V15.3768h-3.362V4.11428ZM31.4311 9.74665c0 3.24875 2.6226 5.88735 6.0544 5.88735 3.4325 0 6.0544-2.6386 6.0544-5.88735 0-3.24854-2.6219-5.89335-6.0544-5.89335-3.4318 0-6.0544 2.64481-6.0544 5.89335Zm3.2748-.00017c0-1.55727 1.1717-2.83603 2.8007-2.83603 1.6296 0 2.8016 1.27876 2.8016 2.83603 0 1.55672-1.172 2.83622-2.8016 2.83622-1.629 0-2.8007-1.2795-2.8007-2.83622Zm42.2854-.00104c0 3.24886 2.6226 5.88716 6.0542 5.88716 3.4327 0 6.0548-2.6386 6.0548-5.88716 0-3.24853-2.6221-5.89334-6.0548-5.89334-3.4316 0-6.0542 2.64481-6.0542 5.89334Zm3.2747-.00034c0-1.55744 1.1717-2.83586 2.8008-2.83586 1.6296 0 2.8018 1.27842 2.8018 2.83586 0 1.5568-1.1722 2.8362-2.8018 2.8362-1.6291 0-2.8008-1.2794-2.8008-2.8362ZM45.3924 4.11428h3.1413v1.06503c.3374-.29224 1.4261-1.32738 3.4375-1.32738 2.3666 0 4.2461 1.73543 4.2461 4.45858v7.06629h-3.3186V9.18535c0-1.51775-.7445-2.41802-2.0945-2.41802-1.3088 0-2.0953.84839-2.0953 2.41802v6.19145h-3.3165V4.11428Z" clip-rule="evenodd"/></g></g><defs><clipPath id="a"><path fill="#fff" d="M.867188 0h113.612v22H.867188z"/></clipPath></defs></svg>
