<svg xmlns="http://www.w3.org/2000/svg" fill="none" viewBox="0 0 61 22"><g clip-path="url(#a)"><path fill="#A5A5A5" d="M46.0848 22H.445312L4.14409 8.15803C5.42918 3.34574 9.78264 0 14.7566 0h45.6395l-3.6987 13.842c-1.2851 4.8112-5.6386 8.1569-10.6137 8.1569l.0011.0011Z"/><path fill="#3C3C3C" d="M6.37849 8.76943 3.47656 19.631H46.1337c3.9038 0 7.3193-2.6264 8.3278-6.4013l2.9019-10.86154H14.7062c-3.9037 0-7.31928 2.62628-8.32771 6.40127Z"/><path fill="#fff" fill-rule="evenodd" d="M43.0072 15.9698c.4562.4028 1.0922.6036 1.9044.6036.5842 0 1.1143-.1192 1.5893-.3564.4684-.2307.8354-.5297 1.0977-.8971.0078-.0111.0254-.0056.0254.0077v1.067c0 .0155.0121.0276.0275.0276h1.7678c.0155 0 .0276-.0121.0276-.0276v-4.5275c0-.9424-.2964-1.6784-.8905-2.20919-.5941-.53081-1.4394-.79561-2.5349-.79561-.831 0-1.5309.15999-2.0963.47997-.2524.14129-.486.30128-.702.48003-.0122.00996-.0133.02762-.0033.03862l1.0492 1.24578c.0099.0122.0275.0133.0397.0034.3174-.2781.6326-.447.9257-.5452.2249-.0827.4828-.1246.7737-.1246.539 0 .9413.1235 1.2058.3707.2645.2472.3979.5716.3979.9744v.0684c0 .0155-.0121.0276-.0276.0276h-1.9188c-1.0327 0-1.845.2196-2.439.6588-.5941.4392-.8906 1.0472-.8906 1.8251 0 .6588.2237 1.194.6713 1.6056v-.0011Zm3.1245-1.056c-.2194.064-.4431.096-.6712.096-.7671 0-1.1506-.2693-1.1506-.81 0-.2924.119-.5208.3559-.6864.2469-.1644.6536-.2471 1.2201-.2471h1.7061c.0177 0 .0309.0165.0265.033-.0596.2693-.1466.5728-.3439.8431-.13.1777-.3339.3763-.5257.4955-.1918.1191-.3979.2107-.6172.2748v.0011ZM35.4275 16.3101c.4331.1755.8795.2626 1.3391.2626.4882 0 .9291-.1015 1.3258-.3046.3924-.2052.7197-.4844.9832-.8364.0076-.011.0253-.0055.0253.0078v.9534c0 .0154.0121.0275.0276.0275h1.8229c.0154 0 .0275-.0121.0275-.0275V5.54126c0-.01545-.0121-.02759-.0275-.02759h-1.8229c-.0155 0-.0276.01214-.0276.02759v4.32676c0 .0132-.0166.01876-.0253.0088-.2535-.33434-.5721-.5948-.9556-.78235-.3868-.19311-.8288-.29021-1.3259-.29021-.4971 0-.939.09264-1.3809.27695-.4332.17545-.8145.43365-1.1463.77465-.3317.34094-.5984.75144-.8013 1.23034-.1928.4789-.2898 1.0141-.2898 1.6034 0 .5892.1014 1.1388.3042 1.6176.2028.4702.4695.8751.8012 1.2161.3318.341.7131.6036 1.1463.7879v-.0011Zm1.7182-1.5316c1.1638 0 2.1073-.9446 2.1073-2.1099 0-1.1653-.9435-2.1109-2.1073-2.1109-1.1639 0-2.1073.9445-2.1073 2.1109 0 1.1664.9434 2.1099 2.1073 2.1099Z" clip-rule="evenodd"/><path fill="#fff" d="M24.9336 8.98454c0-.01546.0121-.02756.0276-.02756h1.8504c.0155 0 .0276.0121.0276.02756v.86845c0 .01326.0177.01876.0254.0077.2358-.32438.5301-.57934.8861-.76579.3769-.19311.8012-.29021 1.2707-.29021.884 0 1.5838.27695 2.0985.82983.5247.54398.7869 1.30428.7869 2.28088v4.479c0 .0154-.0121.0276-.0275.0276h-1.8869c-.0154 0-.0275-.0122-.0275-.0276v-4.3322c0-.8608-.6966-1.5581-1.5562-1.5581-.8597 0-1.5563.6973-1.5563 1.5581v4.3322c0 .0154-.0121.0276-.0275.0276h-1.8626c-.0155 0-.0276-.0122-.0276-.0276V8.98454h-.0011ZM18.308 8.98418c0-.01546-.0121-.02762-.0275-.02762h-1.8858c-.0154 0-.0275.01216-.0275.02762v4.45142c0 .9865.2535 1.7556.7593 2.3084.5059.5529 1.2201.8299 2.1404.8299.4607 0 .874-.0971 1.2421-.2902.3549-.1866.6503-.4425.8861-.7658.0078-.0111.0254-.0056.0254.0077v.8684c0 .0155.0121.0276.0275.0276l1.8506-.0133c.0153 0 .0275-.0121.0275-.0275V8.97092c0-.01546-.0122-.02756-.0275-.02756l-1.877.0132c-.0154 0-.0276.01216-.0276.02762v4.36092c0 .853-.691 1.5449-1.5429 1.5449-.852 0-1.5431-.6919-1.5431-1.5449V8.98418ZM15.5105 5.56155c.0044-.01766-.0089-.03421-.0265-.03421h-.9093c-.6072 0-1.1186.05076-1.533.15228-.4045.10152-.7318.27697-.9798.52526-.2392.23943-.4145.56167-.5246.96775-.1015.40499-.1521.91257-.1521 1.52057v.23503c0 .01546-.0122.02762-.0276.02762h-1.1738c-.0154 0-.0276.0121-.0276.02757V10.642c0 .0154.0122.0275.0276.0275h1.1738c.0154 0 .0276.0122.0276.0277v5.6961c0 .0154.0121.0276.0275.0276h1.8362c.0154 0 .0275-.0122.0275-.0276v-5.6961c0-.0155.0121-.0277.0276-.0277h1.7403c.0154 0 .0275-.0121.0275-.0275V8.98342c0-.01547-.0121-.02757-.0275-.02757H13.304c-.0155 0-.0276-.01216-.0276-.02762v-.33214c0-.28575.0132-.51199.0419-.67754.0276-.17545.0915-.30897.1929-.40052.1102-.10156.2623-.16555.4552-.19311.1928-.03642.4552-.05518.7869-.05518h.2965c.0121 0 .0231-.00886.0264-.02096l.4332-1.68613.0011-.0011Z"/></g><defs><clipPath id="a"><path fill="#fff" d="M.441406 0h60.4267v22H.441406z"/></clipPath></defs></svg>
