<svg xmlns="http://www.w3.org/2000/svg" fill="none" viewBox="0 0 33 22"><g fill="#fff" clip-path="url(#a)"><path d="M19.0615 14.2199c-.6678-.1744-1.3059-.3414-1.9403-.5083-.167-.0445-.3339-.0853-.5009-.1336-.204-.0593-.2857-.1632-.2894-.3747-.0037-.3635 0-.7308 0-1.0944 0-.2597-.0964-.3525-.3598-.3599-.5862-.0148-.6196.0186-.6196.601v1.5211c0 .3265.0482.3896.3673.4749.7457.1966 1.4914.4007 2.2371.5899.4378.1113.7531.3673.8755.7939.1113.3933.1967.8088.2115 1.2169.0297.9015.0186 1.803.0074 2.7082-.0037.2709-.0445.5417-.1001.8088-.1744.8681-.6864 1.343-1.5731 1.458-.2485.0334-.5045.0519-.7568.0519-.9349.0075-1.8661.0038-2.801.0038-.7383 0-1.202-.4675-1.202-1.2058v-4.0179c.1335.0334.2448.0594.3561.0891.6752.1781 1.3505.3524 2.022.5305.2819.0742.3524.1632.3524.4563v1.4098c0 .282.1002.3821.3747.3859.575.0074.6047-.0223.6047-.6011v-1.9848c0-.2597-.0593-.3376-.3116-.4044-.7568-.204-1.5137-.4118-2.2742-.601-.5046-.1261-.8236-.4378-.9386-.92-.1002-.4193-.167-.8496-.1781-1.28-.0186-.7976 0-1.5953.026-2.3892.0074-.2448.063-.4897.1261-.7271.2152-.80881.7902-1.18722 1.5842-1.28739.2263-.02968.4563-.04081.6826-.04081.9571-.00371 1.918-.00371 2.8752 0 .6455 0 1.1389.48971 1.1389 1.1352v3.5059c.0038.0483.0038.1039.0038.1893ZM11.7828 10.1172v11.8533h-.2078c-.7679 0-1.5322-.0037-2.30016.0037-.15952 0-.23743-.0445-.3005-.1929-.35987-.8533-.73457-1.6992-1.10186-2.5488-.02226-.0556-.04823-.1113-.1113-.1595v2.8863H5.01953v-9.0708c0-.5416.25599-.8829.77538-1.0351.52681-.1558 1.05363-.3042 1.60641-.4637.54165 1.7066 1.08331 3.4094 1.62125 5.1086h.04081v-.204c0-1.7326 0-3.4614-.00371-5.194 0-.141.0371-.204.17807-.2448.84216-.2412 1.68066-.486 2.54506-.7383ZM22.6333 13.4041v2.137h2.3187v2.4077h-2.315v1.5916h2.4411v2.4189h-5.1679V9.89453c.1298.03339.2559.06307.3784.10017 1.3504.3895 2.7008.7828 4.0549 1.1723.5231.1522.7495.4527.7495 1.0017v1.944c-.8348-.2411-1.6398-.4748-2.4597-.7086ZM25.9453 11.627c.2003.0556.3933.1113.5899.1669 1.4803.4341 2.9605.8644 4.4408 1.3022.141.0408.2782.1039.4155.1595.6381.2523.9498.7346.9572 1.4061.0148 1.2317.0222 2.4597.0148 3.6914-.0037.4637-.2485.8162-.6826.9646-.3858.1298-.7976.2189-1.2057.256-.5269.0482-1.0611.0296-1.5916.0371h-.2226v2.3447h-2.712c-.0037-3.4355-.0037-6.8709-.0037-10.3285Zm2.7194 5.9915c.2411 0 .4563.0074.6715-.0037.1929-.0074.3005-.1261.3042-.3265.0037-.8347.0074-1.6694-.0074-2.5042 0-.0964-.0816-.2485-.1595-.2819-.2523-.1039-.5231-.1633-.8088-.2486v3.3649ZM4.18058 21.9623h-2.7231v-.2412c0-2.1184-.01113-4.2404.00742-6.3588.00371-.5899-.21889-1.0388-.638112-1.4172-.185497-.1707-.396963-.3117-.61585-.4823 1.324452-.3821 2.637772-.7606 3.969642-1.1464v9.6459ZM13.6641 6.82521c1.9254 0 3.35-2.02934 2.4485-3.94738.9053-.19663 2.2.7828 2.5302 1.91433.4007 1.37268-.3376 2.8344-1.6806 3.31299-1.4172.50455-2.8047-.24857-3.2981-1.27994Z"/><path d="M14.0813.0292969c.5936.3301851 1.1761.6900501 1.8402.8755481-.0112-.233727-.0223-.456324-.0371-.73457.1892.181788.3227.333895.4823.452614.2522.185497.5045.385831.7865.515681.7939.35616 1.1426.99427 1.2428 1.81417.0223.17436.0334.34873.0594.58246-.4675-.51939-1.0054-.83103-1.6139-.99427-.5045-.13356-1.0239-.2263-1.5433-.27824-1.3133-.12985-2.315-.71602-2.9568-1.888368-.0371-.066779-.0668-.140978-.1187-.255987.7382.356156 1.4394.652952 2.2296.690051-.1409-.252276-.2782-.497133-.4155-.7419896.0149-.0111299.0297-.0259697.0445-.0370995ZM10.9141 5.89824c.486-.58246 1.0387-1.07217 1.8104-1.23541.4452-.09275.8719-.02226 1.2688.20034.4007.22259.7198.53794 1.0017.92006-.2745.31535-.6307.46746-1.0314.51569-.1892.02226-.3858.02226-.5713 0-.7346-.08904-1.2651.23372-1.6769.80135-.1187.16323-.1966.35244-.2857.51939-.23-.7086.0705-1.56189.6975-1.88095-.4415-.10758-.8347-.05564-1.2131.15953Z"/></g><defs><clipPath id="a"><path fill="#fff" d="M.171875 0h32.2024v22H.171875z"/></clipPath></defs></svg>
