<svg xmlns="http://www.w3.org/2000/svg" fill="none" viewBox="0 0 45 8"><g clip-path="url(#a)"><path fill="#fff" d="M.808594 1.65017H2.15411V6.4266H.808594V1.65017Zm6.828436 0V6.4266H6.52939l-2.0998-2.5452v2.5452h-1.3183V1.65017h1.10764l2.0998 2.545v-2.5449l1.3183-.0001Zm2.62077 4.87204c-.3851 0-.75888-.0478-1.12133-.14329-.36249-.09559-.6569-.22294-.88331-.38215l.44161-.99629c.21298.14107.4599.25482.74074.34121.2808.08652.55716.12967.82899.12967.5166 0 .7746-.12975.7746-.38899 0-.13642-.0746-.23654-.2241-.30017-.145-.06826-.3806-.13885-.7067-.21152-.35786-.07736-.65693-.15933-.89701-.24573-.23838-.08974-.45085-.23742-.61844-.42983-.1721-.19562-.25816-.45948-.25816-.79161 0-.29109.07924-.55264.23779-.78464.15864-.23655.39411-.42308.70667-.5595.31719-.13653.70451-.20468 1.16205-.20468.3126 0 .6207.03629.9242.10909.3035.06827.5708.17061.8018.30702l-.4145 1.00315c-.453-.24573-.8924-.36853-1.3183-.36853-.2673 0-.46206.04094-.58441.1228-.12232.07734-.18345.17968-.18345.30703 0 .12745.07248.22293.21748.28665.14498.06373.37828.12967.69988.19793.3625.07734.6615.16143.8969.25247.2401.0864.4464.22738.6186.42308.1766.19095.2649.45262.2649.78465 0 .28653-.0793.54589-.2379.77789-.1586.232-.3963.41854-.7135.5595-.3171.13651-.7021.20479-1.1551.20479Zm3.6741-3.80074h-1.461v-1.0713h4.2607v1.0713h-1.4542V6.4266h-1.3455V2.72147Zm6.2491 2.77712h-2.0114l-.3737.92801h-1.3726l2.0996-4.77643h1.3252l2.1065 4.77643h-1.3999l-.3737-.92801Zm-.394-.9962-.6117-1.52844-.6116 1.52844h1.2233Z"/><path fill="#9E9E9E" d="M25.422 6.74324c0 .17483.1416.31822.3147.30037 1.5349-.15814 2.7323-1.46038 2.7323-3.04349 0-1.58312-1.1974-2.88537-2.7323-3.043524-.1731-.017936-.3147.125554-.3147.300374v.84405c0 .17482.1425.31324.3132.34773.7203.14592 1.2628.78497 1.2628 1.55137 0 .76636-.5425 1.40544-1.2628 1.55134-.1707.0345-.3132.17302-.3132.34774v.84404Zm-.9456-5.21639c0-.21523-.2099-.36695-.402-.27167-1.0069.49935-1.6994 1.5409-1.6994 2.74494 0 1.20402.6925 2.24557 1.6994 2.74493.1921.09525.402-.05646.402-.27169V1.52685Z"/><path fill="#fff" d="M32.6562 5.49881h-2.0115l-.3736.92801h-1.3727l2.0997-4.77643h1.3252l2.1066 4.77643h-1.3998l-.3739-.92801Zm-.394-.99617-.6116-1.52857-.6116 1.52857h1.2232Zm4.7235-2.85225c.4305 0 .8043.0728 1.1215.2184.317.14095.5615.34564.7338.61404.1722.26377.2582.57543.2582.93478 0 .35945-.086.67102-.2582.93477-.1723.26398-.4168.46865-.7338.61426-.3172.14096-.691.21152-1.1215.21152h-.8289v1.24866h-1.3456V1.65039h2.1745Zm-.0815 2.46323c.2763 0 .4847-.05907.6252-.17735.1406-.12282.2108-.29573.2108-.51866 0-.22283-.0702-.39565-.2108-.51856-.1405-.12281-.3489-.18421-.6252-.18421h-.7474v1.39878h.7474Zm5.0256-2.46323c.4305 0 .804.0728 1.1212.2184.3169.14095.5618.34564.7338.61404.1722.26377.2582.57543.2582.93478 0 .35945-.086.67102-.2582.93477-.172.26398-.4169.46865-.7338.61426-.3172.14096-.6907.21152-1.1212.21152h-.8292v1.24866h-1.3453V1.65039h2.1745Zm-.0815 2.46323c.2763 0 .4847-.05907.6252-.17735.1402-.12282.2105-.29573.2105-.51866 0-.22283-.0703-.39565-.2105-.51856-.1405-.12281-.3489-.18421-.6252-.18421h-.7477v1.39878h.7477Z"/></g><defs><clipPath id="a"><path fill="#fff" d="M.808594.740234h43.2832v6.52023H.808594z"/></clipPath></defs></svg>
