<svg xmlns="http://www.w3.org/2000/svg" fill="none" viewBox="0 0 59 24"><path fill="#fff" d="M40.6103 10.5482c-.0002-1.92769.7645-3.77636 2.1254-5.13944 1.361-1.36307 3.2069-2.12891 5.1318-2.12902V.279297c-2.7195 0-5.3277 1.081893-7.2508 3.007663-1.9231 1.92577-3.0034 4.53768-3.0034 7.26124h2.997ZM47.8633 17.8165c.9531.0001 1.897-.1878 2.7778-.553.8806-.3653 1.6807-.9006 2.3548-1.5757.6741-.6749 1.2087-1.4762 1.5734-2.3582.3647-.882.5524-1.8271.5522-2.7817h2.9968c0 1.3485-.2653 2.684-.7807 3.9298-.5154 1.246-1.2708 2.3779-2.2231 3.3315-.9522.9535-2.0828 1.7099-3.3269 2.2258-1.2441.516-2.5777.7815-3.9243.7814v-2.9999Z"/><path fill="#fff" d="M52.341 0s-1.6126 12.3107-9.5186 12.968c0 0-1.0157.0896-1.0157-.508 0-.5975 1.2244-1.1652 3.0442-1.1652 1.8199 0 3.9686 1.2772 6.5056 1.2772 2.5349 0 2.8637-1.0982 2.8637-1.0982-.6247.2581-1.2939.3901-1.9696.3883-3.1036 0-5.2824-1.6132-7.7587-1.6132s-3.7888 1.3446-3.7888 2.301c0 .9565 1.6714 1.4043 2.508 1.4043 2.566 0 9.0695-2.9286 9.1299-13.9542ZM7.11578 15.4452v1.2187H1.26172v-6.1493h2.14777v4.9306h3.70629ZM9.60871 10.5146H7.46094v6.1489h2.14777v-6.1489ZM12.2022 11.707v1.246h3.4925v1.1561h-3.4925v1.3626h4.4316v1.1922h-6.5791v-6.1493h6.5791v1.1923l-4.4316.0001ZM20.6434 14.5214v-1.1466h3.7871v3.2891h-.98l-.3095-.7081c-.685.5561-1.4365.7977-2.5102.7977-2.7 0-3.8144-1.4967-3.8144-3.11 0-1.6669 1.2223-3.2187 4.002-3.2187 1.9859 0 3.3303.8075 3.6116 2.1069l-2.0401.1882c-.0943-.6189-.5905-1.1386-1.6246-1.1386-1.5175 0-1.7452 1.3175-1.7452 2.0798 0 .7978.3362 1.9274 1.8388 1.9274.9409 0 1.5851-.4397 1.5314-1.0673l-1.7469.0002ZM27.5041 11.707v1.246h3.4909v1.1561h-3.4909v1.3626h4.431v1.1922h-6.5796v-6.1493h6.5796v1.1923l-4.431.0001ZM4.99494 21.6171l-.87866-2.0742-.87839 2.0742h1.75705Zm3.0307 2.2975H5.9445l-.50486-1.2133H2.76869l-.51726 1.2133H.554688L3.2021 18.0107h2.23754l2.586 5.9039ZM10.3041 18.0107H8.37891v5.9037h1.92519v-5.9037ZM13.0549 20.5671h1.0583c.3969 0 .8301.0252 1.1799-.1205.1365-.0534.2546-.1453.3399-.2646.0854-.1191.1344-.2607.141-.4073 0-.2319-.1927-.4819-.4693-.6024-.3249-.1464-.8784-.1116-1.2391-.1116h-1.0107v1.5064Zm0 3.3472h-1.926v-5.9036h3.4773c.7337 0 1.4797.0086 2.1173.3007.6738.319 1.0469.8954 1.0469 1.4723 0 .6709-.5411 1.291-1.4319 1.5238l1.5282 2.6071H15.725l-1.2632-2.3317h-1.4069v2.3314ZM21.3121 20.6526c.4568 0 .8425 0 1.1787-.258.0811-.0615.1472-.1408.193-.2319.0457-.091.0701-.1914.0712-.2933-.004-.1293-.043-.2552-.1126-.3642-.0698-.109-.1677-.1971-.2835-.2547-.3006-.1639-.6982-.1639-1.0583-.1639h-1.0708v1.566h1.0823Zm-1.0823 3.262h-1.9251v-5.9039h3.1035c.8061 0 1.5401 0 2.226.3358.6975.3532 1.0707.8603 1.0707 1.4722-.003.3062-.087.6061-.2435.8692-.1564.263-.3799.4799-.6473.6283-.7094.4209-1.468.4136-2.3457.4136h-1.2391l.0005 2.1848ZM27.2908 19.722c-.1816.3844-.2724.8056-.2651 1.2308 0 .7401.156 1.919 1.5145 1.919.6619 0 1.0236-.2315 1.2391-.6709.1786-.3882.2653-.8124.2532-1.2395 0-.4305-.0599-.9376-.3008-1.3341-.241-.3966-.5894-.5759-1.1912-.5759-.6617 0-1.0224.2404-1.2499.6706m-1.4208 3.3482c-.2762-.2787-.4948-.609-.6435-.9723-.1486-.3633-.2242-.7524-.2224-1.1451 0-1.5657 1.0951-3.029 3.5367-3.029 1.0948 0 1.9614.2577 2.6229.9034.5508.5482.8694 1.2879.8895 2.0654.0201.7774-.2598 1.5326-.7816 2.1086-.637.6716-1.6118.9984-2.7308.9984s-2.0206-.2758-2.6709-.9296M34.9014 20.5671h1.0584c.3972 0 .8306.0252 1.1786-.1205.1367-.0531.2551-.1449.3406-.2642.0857-.1192.1347-.261.1413-.4077 0-.2319-.1928-.4819-.4699-.6024-.324-.1464-.8771-.1116-1.238-.1116h-1.0108l-.0002 1.5064Zm0 3.3472h-1.9248v-5.9036h3.4765c.7336 0 1.4796.0086 2.1172.3007.6746.319 1.047.8954 1.047 1.4723 0 .6709-.5416 1.291-1.4318 1.5238l1.5282 2.6068h-2.1421l-1.262-2.3316h-1.4082v2.3316ZM45.7777 19.1805h-2.0683v4.7338h-1.9253v-4.7338h-2.0927v-1.1698h6.0866l-.0003 1.1698Z"/></svg>
