<svg xmlns="http://www.w3.org/2000/svg" fill="none" viewBox="0 0 133 20"><g clip-path="url(#a)"><path fill="#fff" d="M65.2474 11.5337c.334 1.7003 1.8811 3.1201 3.3226 4.1017h.0528c1.1954-.7712 2.4788-1.9457 3.0765-3.2252.8263-1.6477.5626-3.89136.2637-5.69679l-.0352-.08764-6.5397.01753-.0176.01753c-.2637 1.5425-.4747 3.31288-.1231 4.87287Zm2.6722 1.2095.0351.0175.9318 2.2437c-.0352.0701-.1055.1052-.1758.1577l-.0352-.0525-.9493-2.2612c.0352-.0701.1231-.0701.1934-.1052Zm-.5274-1.262c.0879.1227.1406.2804.1934.4206-.0528.0702-.1407.0877-.211.1052l-.1758-.4207c.0352-.0701.1406-.0701.1934-.1051Zm-.6856-1.75289.1758.40319c-.0352.0701-.1407.0701-.211.1227-.0879-.1227-.1231-.28049-.1934-.42072.0703-.03506.1407-.10517.2286-.10517Zm-.5099-1.24452c.0176.14023.0528.26293.0704.42068l-.1407.08764c-.1055-.10517-.1934-.22787-.2813-.36809-.0175-.22787-.0703-.47327-.0879-.70114l.4395.56091Zm2.303-7.484666c0-.105171.0879-.192814.1934-.192814.1055 0 .1934.087643.1934.192814 0 .105166-.0879.192816-.1934.192816-.1055 0-.1934-.08765-.1934-.192816ZM82.8451 2.71692l.1934-1.893081-2.18-.245399-.2285 2.36635c.0176.01752-.0528.24539-.1231.38562-.0879.28046.0528.50833.0352.52586 0 0-.0528.52585-.0528.54338-.0879.22787-.123.35057-.2461.57844-.0527.1227-.1055.2454-.1582.3681-.1406-.1227-.2989-.21034-.4571-.29799-.2988-.21034-.5625-.49079-.8262-.77125-.211-.22787-.4747-.33304-.7736-.3681 0-.1227-.0351-.2454-.0879-.35057-.1933-.38562-.1054-.89395-.2988-1.29711l.123-.71866-.0175-.01753c-.0879.05258-.1231.19281-.2462.17528-.0703-.01753-.1406-.03505-.1934-.10517-.0351-.03505-.0351-.1227-.0879-.1227-.0527.08765-.1054.17529-.2109.22787-.2813.05259-.6681.17529-.879-.08764-.0352.03506-.0352.08764-.0528.14023-.0527.14023-.2109.17528-.334.17528-.0703 0-.123-.10517-.1934-.08764.0704.33304.3165.59597.2462.9816-.0879.31551.2109.50832.123.82384.0879.19281-.0351.36809-.0703.54338-.3692-.10517-.6505.08764-.879.35057-.545.47327-.8438 1.06924-1.3009 1.57756-.5099.01753-.9669-.1227-1.424-.2454l-.0879-.07011-.3692-.94654h-.2813s-.1582-.38563-.2461-.57844V2.41893s0-.35057-.0879-.54338c-.1231-.28046-.5977-.52586-.5977-.52586s-.4747.26293-.5977.56092c-.0704.19281-.0528.56091-.0528.52585v.54338h-.6153V2.4014s-.0176-.38562-.1406-.59597c-.1055-.22787-.4747-.43821-.4747-.43821-.0703.05259-.3516.22787-.4747.45574-.1054.19282-.1054.57844-.123.57844-.0176.19282 0 .59597 0 .59597h-.6681v-.52585s.0176-.33304-.0527-.52586c-.1231-.31551-.6153-.59597-.6153-.59597s-.4571.26293-.5977.56092c-.0879.21034-.0703.57844-.0703.57844v1.84049l-.2286.57844c-.0176.01753-.2461 0-.2461 0-.4571.80631-.5274 1.82296-1.4416 2.36634-.0351-.15775-.0351-.29798-.0527-.45574.0703-.15775.1582-.31551.1406-.50832-.2637-.42069-.5274-.8589-.9317-1.19194-.3692-.19281-.6153-.57844-.9669-.80631-.2637-.19282-.6505-.01753-.8966-.21034.1055-.21035.211-.47327.1231-.7362l.0879-.3681c.1054-.28045-.0879-.66608.0175-.84137-.0879-.22787-.3867-.33304-.5625-.52585-.1934-.07011-.4044-.07011-.6153-.03506-.2637.1227-.5802-.01753-.8087.17529-.0703.10517-.3164.31551-.3516.33304-.0176.03506.0703.31551.0527.35057l-.123.45574s.0176.40315.1582.50833c.1406.08764.1582.26292.334.35056.1407.2454-.2109.10518-.2988.21035-.1055.22787-.3692.17528-.5802.19281-.3868.01753-.6856.31551-.9493.57844-.6505.29798-.7384 1.01665-1.2834 1.41981-.0879-.4908-.1758-1.12183-.2637-1.68274l.0176-.01753c.1582 0 .2989-.03505.4395-.08764.1934-.08764.3165-.29798.2989-.52585l-.1934-1.3497-.3164-1.840487-.0528-.210342c-.0351 0-.0703.017528-.0527.052585l.0527 2.313764.0176.98159-.2813.03506-.6504-2.38388-.211-.771249c-.0176-.017528-.0352 0-.0527.017529l.0879 1.27958.1933 1.92813-.0175.05259-.3516.05258-.0176-.01752-.1582-.56092-.4747-1.71779-.3164-.876423c-.0176 0-.0352 0-.0528.017529l.0176.262924.4395 2.97985c.0352.1227.0703.28045.1934.40315.2461.22787.5977.08764.8966.07012l.0175.01752.3165 2.08589c-.3165.71867-.211 1.66521-.1231 2.45399.0528.17529-.0351.38563.0528.54339.1582.21034.4043.49077.6153.63107l.1758 1.1218c-.0704.1227-.2286.1928-.2813.333-.2461.7888-.8263 1.4549-.9493 2.2962-.1055.4908.123.8765.2988 1.2796.1758.4558-.5801.6135-.3867 1.0693.0703.1577.1758.4206.4043.4206.3164-.0175.5801-.1051.8614-.2103.211.2279.545.1753.8439.1578.0703.1402.0351.333.123.4732.1407-.0175.2813-.035.4219-.0526l.0528-.0525-.0528-.4207.0176-.0176c.0528.0526.1055.0877.1758.0877.5802-.0351 1.1427-.0877 1.7229-.1052l2.1623.0175c.1407 0 .2461-.0525.3165-.1752.0175-.0701.0175-.1578 0-.2279l-.211-3.1727c.0176-.1402.1055-.7011.1406-.8238.0879.2454.0879.5434.1055.8063.0528.8414.4395 1.4724.9318 2.121.2461.3155-.1231.631.0351.9816.1055.2103.3516.2629.5626.333.3164.1052.4747.5083.7911.596.2461.035.5274.035.668-.1929.0704-.1577.0176-.3505-.0879-.4557-.4746-.298-.9493-.7712-1.1427-1.2796-.1758-.8063-.3867-1.858-.5274-2.6292-.0351-.1929-.0527-.4032-.0351-.7187 0-.5259-.3165-.8414-.7208-1.0868-.0528-.0876-.1231-.1753-.1934-.2454-.1934.0175-.1758-.2103-.334-.2629-.2637.0351-.1758-.31552-.4219-.31552-.1583-.01753-.1055-.19281-.1407-.29798.0703-.07012.1055-.14023.1055-.2454.0176-.07012.0879-.01753.1406-.03506.0528-.01753.1055-.07011.1231-.1227.0703-.33304.211-.64855.211-1.01665.1582-.22787.4043-.31551.6153-.47327.0703.29798.1406.59597.1934.89395.2461.57844.0351 1.48993.7911 1.71783.1054.6485.2109 1.3146.4219 1.9281-.1231.0526-.2461.1402-.334.2454-.1055.1753-.1758.4382-.0704.6486l1.7405 2.2261.1758.1402c.2285.1402.5449.0526.7383-.1052.545.4733 1.09.8765 1.6701 1.2445l.0879.0176c.5626-.3856 1.1076-.8063 1.6526-1.2621l.0703-.035c.0879.0701.1758.1227.2637.1577.2109.0351.4219.0176.5801-.1227l1.5646-1.9632c.1934-.2103.3341-.4557.3165-.7537-.0176-.2279-.1934-.4382-.4044-.5434.1583-.6135.3341-1.2094.3868-1.8755l.0176-.0175c.1934-.0526.4043-.1929.4747-.38568l.4219-1.92813.1582-.68361c.0176-.10517.0352-.22787-.0352-.31551.4571-.47327.879-.9816 1.2658-1.48992-.0527.31551-.1582.78878.1582 1.03418.1407.57844.2286 1.22699.1582 1.87554-.0527.21035-.2988.26293-.4219.40316-.3692.2454-.334.64855-.5098.98159-.1231.21038-.3516.29798-.5274.43818-.2637.1929-.4922.3857-.6153.7012-.1055.5083-.5802 4.8904-.5802 4.8904l.0352.3155c.0879.2104.1055.1578.2989.2104.1055.0876.4395-.0701.3692.1928.0175.0701.0879.1052.1406.1402.4922.1227 1.1603.1578 1.6174-.0876.1582-.0526.2637-.0351.457-.0176.5626.0351 1.0548.0176 1.5998.1052.545.0701 1.0724.2104 1.6526.1928.4219-.1227.9317-.0526 1.3712-.0701.1934-.0526.4395-.035.5626-.2454.1054-.2278-.0528-.4557-.1934-.631-.1758-.2279-.0176-.5259-.0879-.7888-.1582-.2103-.0352-.5258-.1758-.7362-.0703-.035-.1407-.0701-.2286-.0526 0 0-.3691-.8238-.4746-1.0341l.2988-2.752.1583-1.70029.2285-2.68185c.2637-.64856.4395-1.33217.545-2.05084.0703-.21034.2461-.40315.1758-.64855-.1582-.17529-.1758-.33304-.3516-.50833.0176-.10517.0351-.42068.0351-.42068l1.7405.15776ZM82.1243.893953l.7384.070114-.0704.736193-.7383-.05258.0703-.753727Zm.668.946537-.0703.7362-.7383-.07012.0703-.73619.7383.07011ZM81.2804.80631l.7384.070114-.0703.736196-.7384-.07011.0703-.7362Zm.6505.92901-.0703.7362-.7384-.07012.0703-.73619.7384.07011Zm-1.8283 3.85627c.0176-.03506.0703 0 .0879-.01753.1055-.14023.1055-.31551.1934-.45574 0-.01753.0175-.01753.0175-.03506l-.1054 1.227c-.1231-.05259-.2462-.1227-.3516-.22787.0351-.17529.1054-.31552.1582-.4908Zm-.7032 4.96051.2109-2.33124c.1055-.59597.1407-1.20946.2462-1.7879.1933.05258.1933.17528.4043.17528l-.5977 6.50306c-.1582-.2629-.1055-.5083-.1582-.8063l.0527-.2103c-.0352-.5434-.0879-1.0518-.1582-1.5426Zm.2109-5.27603c.1055.05259.2286.1227.3165.21035-.2637.66608-.334 1.40228-.4219 2.12094-.0879.66609-.2286 1.31464-.4923 1.92814-.2109.33304-.5801.4733-.8966.6661-.4922.2804-1.1075.0876-1.6349 0 .5801-.1402 1.2482-.0877 1.7404-.45576.6329-.29799.6329-.9816.7735-1.56004.1758-.85889.1758-1.77037.4571-2.57668.0703-.10517.0879-.22787.1582-.33305Zm-1.4415 1.87555.3516-1.80543c.2109.19281.4395.38563.6504.54338-.1933 1.01665-.2637 2.10342-.5449 3.08502-.0176.03505-.0176.10517-.0704.10517-.1582-.19282-.334-.38563-.4219-.6135.0703-.42068 0-.8589.0352-1.31464Zm.0703 1.82297.211.33304-.3165.26292-.4746.2454.5801-.84136Zm-.668.45574c-.3517.59597-.8263.52585-1.301.63107-.2813.0525-.5625-.0176-.8262-.07016.4922-.10517 1.0723-.05259 1.4591-.38563.2989-.35057.5802-.78878.6856-1.22699l.3868-1.71779v-.03506c.0176.94654.1406 2.0333-.4043 2.80456Zm.6504 1.01667c.2989-.0877.5274-.2629.7735-.45576.1758.50836.3165 1.03416.3165 1.61266-.4571-.3681-.9142-.7538-1.4416-.9466-.0351.0701.0703.1052.1055.1578.4747.3505.9493.7186 1.3712 1.1393 0 .0351.0176.0701 0 .1227-.2637-.0526-.6328-.1928-.8965-.2629-1.2834-.2629-1.7229-.894-2.4613-1.4899.6505.1052 1.5823.333 2.2327.1227Zm1.1955-5.31115.0175.03505c-.0703.17529-.1054.35057-.1933.50833-.2813-.17528-.5274-.42068-.7736-.64855-.0527-.01753-.0527.03505-.0703.07011-.0879.47327-.1934.92901-.2637 1.41981l-.0351-.54339.2109-1.77037c.4219.21034.7384.63102 1.1076.92901Zm-1.5822-1.20947c-.1407.2454-.2462.4908-.3868.7362-.0352-.05259 0-.19282-.0176-.28046-.0527-.28045-.1406-.56091-.2989-.82384.0704-.40315.0352-.80631-.1582-1.15688.1407-.01753.2989-.03505.4571-.05258l.0879.10517c.0879.50832.1407 1.01665.3165 1.47239Zm-1.8987-1.56003c-.0703-.05259-.0879-.15776-.1231-.22787.1231-.07012.3165-.08765.3692-.26293.2637.17528.6153.03506.8966 0l.1231-.10517c.0703.08764.1934.14023.3164.14023-.0176.08764 0 .19281-.0703.24539-.5098.03506-1.0197.1227-1.5119.21035Zm-4.2895 2.73444c.123.2454.2109.4908.2988.7362-.3692-.10517-.6856.10517-.9141.36809-.4747.01753-.9669.01753-1.4592 0 .1407-.36809.2989-.73619.4747-1.10429.0176.03506 1.5998.01753 1.5998 0Zm-1.5471-2.55916h.879v1.78791h-.879V2.54163Zm-1.8459 0h.8263v.43821h-.8263v-.43821Zm-.8614.87643h2.5315v.91148h-2.5315v-.91148Zm-1.1427-.87643h.879v1.78791h-.879V2.54163Zm0 1.94566h2.4964l2.3381.01753c.0703.1227.1055.2454.1582.3681l-.0351.01753h-1.301c-.1406.26293-.2461.54338-.3691.82384l-.0352.01753h-1.7756c-.1231-.26293-.2461-.54339-.3516-.80631l-.0352-.03506h-1.2657c.0527-.1227.1582-.38563.1758-.40316Zm-.5098.63103h1.5118c.1758.35057.2989.7362.4571 1.08676l-2.426.01753c.123-.3681.2988-.73619.4571-1.10429Zm-.545 1.27958h6.9441l.0703.26293c.2989 1.94566.5274 4.34707-.4043 6.08237-.6681 1.3146-1.9866 2.3839-3.182 3.2077-1.3361-.9115-2.8656-2.191-3.3754-3.716-.6153-1.7353-.3692-3.82123-.0879-5.64419 0-.07011 0-.14023.0352-.19281ZM59.7624 3.383c-.0879.01753-.1933-.03506-.2637-.10517-.0703-.08765-.123-.33304-.123-.33304s.1582-.40316.1582-.42069c.0176 0 0-.33304 0-.33304s.1758-.14023.2285-.22787l.2286-.08764c.1934-.01753.3692 0 .5625-.05259.1583-.05258.2989-.01753.4747-.01753.0879.05259.1934.08765.2461.17529.0879.1227.211.10517.2813.22787.0352.15776-.0352.45574.0352.59597l-.0176.03506c-.0703-.01753-.0703-.21035-.1582-.1227.0175.1227 0 .26292.0527.36809v.05259c-.0879-.01753-.211-.07011-.2989-.01753-.1758.19281.0176.42068 0 .63103-.0703.08764-.2812-.08765-.2285.08764.0879.07011.2461.08764.3516.03506.1055-.15776-.0176-.33305-.0176-.4908l.1582.01753c.1055.21034.0528.40315-.0175.59597.0175-.07012-.1055.19281-.1055.24539-.2813.17529-.1934.17529-.4747.07012-.0351.01753.0352.1227.0528.14023.0175.01752-.0176.08764.2812.07011l.1583-.05259c.0351.07012.0351.1227-.0176.21035-.0352.1227-.0879.2454-.1055.22787 0 .01753-.2813-.03506-.2989-.03506 0 .01753-.2637-.03506-.2461-.03506-.1055-.01753-.1758-.07011-.2109-.17528-.0704-.17529-.1758-.28046-.2813-.43821-.1407-.1227-.211-.28046-.2286-.43822-.0175-.10517.1231.07012.1231-.03505 0-.05259-.1055-.38563-.1055-.43822.0879-.21034.1582-.49079.3868-.59596.3164 0 .6504.05258.9317-.07012.0176-.05258-.0527-.05258-.0703-.07011-.2989-.01753-.6153-.01753-.9142-.01753-.3691.07011-.4922.56091-.5274.82384Zm-.2461.87642c.0352-.14023.211-.08764.3165-.14023l.1758 2.45399c.0351.75373.4043 1.45487 1.0899 1.85802.2461.15776.4747.35057.7384.47327.123.14023.123.3681.0879.52586-.545-.22787-1.1076-.38563-1.5646-.82384-.1934-.21034-.2462-.4908-.3341-.7362-.1933-.7362-.3867-1.45486-.3867-2.26117-.0176-.03506 0-.08765-.0352-.10517-.0351-.01753-.0527.03505-.0527.05258l-.0703.77125-.1231 2.29624-.0352.70114c0 .03505.0528.03505.0704 0 .2637-.70114.1758-1.54251.2461-2.31376.0879.38562.1582.78878.2813 1.15688l.0351 1.77037c0 .05259.0176.10515-.0176.14025l-1.1778-.08766c.1406-.22787.0527-.54339-.0352-.78878l.0176-.26293.4219-2.24365.3516-2.43646ZM57.354 9.69325c-.0352-.10517-.1407-.21034-.2286-.26292-.1055-.56092-.1758-1.12183-.2637-1.68274.0879-.21034.1407-.43821.1934-.66608.2989-.21034.6153-.33304.8966-.57844.1934-.14023.3867-.26293.5625-.45574.1055.31551.1759.63102.3692.89395-.1054.66608-.2461 1.33217-.3692 1.99825-.0175.2454.0001.47327.1055.68361.0176.14023-.1055.22787-.1582.35057-.3868.10519-.5274.52589-.7559.80629l-.3516.2454c-.0879-.3155-.0704-.4557-.1407-.7888.1934-.1051.1582-.40312.1407-.54335Zm1.1954.45575c.668.0526 1.3713.0701 2.0041.1928-.5449.2805-1.1602.5259-1.7228.7888-.334-.0351-.5977-.2104-.8966-.3506.1758-.2279.2989-.5959.6153-.631Zm1.5295-1.38476c.123.43822.7208.82384 1.1954.77126-.3692.15775-.7383.31551-1.1427.43821l-.0527-1.20947Zm.2109 1.34966c.4571-.14019.8966-.333 1.3537-.50829.0703.03506.211-.01753.211.10517-.0176.08764.0703.19282-.0176.22787-.2461.08765-.4923.19285-.7384.28045l-.8087-.1052Zm-2.5491-5.01311c.4395-.15776.6856-.77125 1.1955-.7362.123.01753.2285-.01753.3516-.01753l-.2813 1.89308-.0527.35057c-.0704-.07011-.1231-.19281-.1583-.31551l-.1582-.57844c-.0176-.03506-.0527-.05259-.0879-.01753-.4395.56091-1.0548.89395-1.6349 1.20947-.0879.14022-.0879.31551-.1231.45574-.0352-.29799-.1231-.63103-.1406-.96407.5274-.31551.6504-.87642 1.0899-1.27958Zm-2.3557-.64855c-.1406 0-.2637 0-.3516-.1227l-.1055-.21035-.3164-1.89307-.0703-.3681c.1758.7362.3867 1.56004.5977 2.29623l.0527.03506.6681-.08764.0175-.01753c-.0703-.78878-.1758-1.64768-.2637-2.41893.1407.73619.3341 1.61262.5099 2.36634l.0351.01753.545-.07011.0352-.05259c-.0176-.7362-.0528-1.56003-.1055-2.29623.0703.75372.2109 1.56003.2813 2.29623-.0176.14023-.1231.29799-.2637.33304l-1.2658.19282Zm.6329.08764.1582-.01753.7735 4.85539s-.1406-.05258-.1934-.05258l-.0351-.05259-.5098-3.40053-.1934-1.33216Zm.2988 5.1709c-.123-.14023-.0351-.43821-.0879-.61349-.1054-.64856-.1406-1.40228 0-2.03331l.2637 1.87555c.0352.31551.0528.42068.1583.52585.1758.07012.4395.07012.5449.22787.0704.1227.0176.36815-.0703.43825-.2988.1051-.6153-.24543-.8087-.42072Zm.3516 5.87202-.1758.929c-.1933.0351-.3691.1578-.5801.0877-.1406-.0877-.1582-.2279-.211-.3681.1055-.2629.4395-.4382.4571-.7362.1758-.9466.2813-1.9281.4219-2.9097-.0175-.0176-.0175-.0176-.0351-.0176-.1758.3681-.2461.9816-.334 1.3672l-.1231.9816c0-.035-.3164-.964.0703-1.7703.211-.4207.4044-.8414.5802-1.2621.0351-.0526.2109-.333.1933-.0876l.1407 1.0692-.4044 2.7169Zm.3516.9466c-.0879-.0877-.0703-.2279-.0703-.3681-.0176-.9641.1407-1.8405.2286-2.752l.457 3.1376c-.1933.0876-.4395.0701-.6153-.0175Zm.8966.5083-.0351-.0526-.3165-2.0859-.4746-3.2252-.211-1.3672c.0703-.0176.1934.0876.1934.0876l.9845 6.5907c-.0352.0701-.0879.0526-.1407.0526Zm.2637-.5609-.0176-.0526c-.0703-.5609-.1758-1.0868-.2461-1.6477l.5977 1.0693c-.0527.2454-.2812.4031-.334.631Zm4.1665-4.1017-.2813 1.8405c-.0879.4557.0176.7713.1231 1.2621.0703.3505.1758.631.2637.8939 0 .0526-.0528.1052-.1055.1052-.3868.035-.7911.035-1.1954.0175-.1934-.0351-.422-.0175-.6329-.0175l.0703-.2279.9317-2.8396c0-.0526.0528-.1402.0176-.1753l-.0527.0526-.3692.8238-.7032 1.7704-.0352.0877c-.1054-.3156-.5977-.298-.5449-.6837.2812-.7887.9669-1.4022 1.3185-2.156v-.0525h-.0528c-.5801.7011-1.1427 1.3847-1.5119 2.1735-.1582.1577-.3867.2629-.5098.4557.0527.0701.1231 0 .1758 0 .3516-.0876.6153.0701.8614.2805.0528.0526.0879.1227.1055.1928-.1055.1928-.334.2279-.5274.298-.334.0701-.6856.1051-1.0372.1051-.0879-.1577.0703-.3155.1055-.4557.0351-.1753-.0352-.3155-.1055-.4557-.2813-.5084-.5802-1.0167-.8263-1.5425-.0176-.3331-.0879-.6311-.1406-.9466.3164.3856.7032.6661 1.0724.9816.2461.1753.5977.2279.8614.0526.8263-.5434 1.5119-1.3847 2.1799-2.1209.2461-.2279.5098-.4207.7735-.6311l-.2285.9115Zm.7032-1.3672c.1582.0526.2813.1753.4219.298.2286.2454.1407.8589.1934 1.1919.1406.8414.3692 1.6302.5626 2.8046.0351.298.2637.4382.4219.6836.2285.2454.4571.4557.7208.6135.0703.0701.1055.1402.0879.2278-.0703.1227-.211.1753-.3516.1753-.3868-.0175-.4923-.5258-.8614-.6135-.1758-.0701-.422-.0876-.4923-.3155-.0176-.2278.1055-.4207.0352-.7537-.211-.3155-.4395-.7362-.5977-1.0692-.3165-.596-.4044-.9466-.422-1.6302-.0351-.2103-.0527-.4207-.2109-.5784.1582-.3506.0527-.8589.4922-1.0342Zm-.3164-.3155c.0879 0 .123.1051.1758.1577-.7032.6311-2.6722 2.454-3.2348 2.9098-.3691.2979-.9141 0-1.3361-.2805-.334-.2804-.7559-.4557-.7735-.8764l-.1934-1.3322c.1583-.0876.2813-.2629.4747-.2804.5801.2629 1.1603.5433 1.8283.5784.4395.0351.9142.0175 1.3185-.0175-.3516.1577-1.0196.6135-1.4239.6661-.6505.0876-1.09-.2454-1.09-.2279.2461.298.4571.7362 1.0372.5784l.9142-.4732 1.7756-1.1043.5274-.298Zm-.5274-.4558c-.422.263-.8439.5785-1.3537.6836-.1055.0351-.211.0351-.2989.1052 0 .0175.0176.0351.0352.0351.6505.035 1.1603-.298 1.6877-.5785.0703-.0175.1406-.0876.2109-.0175l.0528.0526-.0528.0526-1.1954.7186c-.5977.1227-1.2482.1227-1.8811.0526.7736-.4732 1.5471-.929 2.3909-1.1919.1407-.0526.334-.0701.4044.0876Zm-.3341-1.54247c-.0879-.03506-.2109-.08764-.2461-.19281.0176-.6135.0352-1.227.211-1.78791.2285-.2454.2461-.57844.3516-.87642.2461.31551.5801.50832.879.70114-.3868.43821-.5977.92901-.9493 1.38475-.2637.14022-.2813.47327-.2462.77125Zm.6681-.70114c-.1582.10517-.1407.31551-.1582.47327-.0879.22787-.0879.4908-.1758.71867-.0352.01753-.0704.05258-.1055.03505-.0879-.22787-.0352-.52585-.0703-.77125 0-.21034.1406-.33304.2812-.47327.3165-.47327.5978-.96406.9494-1.41981l-.0176-.08764c-.3692-.28045-.8439-.47327-1.0548-.91148 0-.05258-.0176-.10517-.0528-.14023l-.0527.05259c-.1055.3681-.1582.75372-.334 1.08676-.2286.17529-.545.08765-.8087.03506-.0703-.01753-.1406-.08764-.1934-.03506.0528.14023.211.19282.334.22787.1583.03506.2462.19282.422.17529-.1055.50833-.0528.91148-.0704 1.45486-.6328-.31551-1.1954-.96406-1.2306-1.68273-.0879-.78878-.123-1.59509-.1758-2.38388.1231.15776.2462.35057.5099.6135.1054.03506.457.08764.457.08764s.1583.07012.2637.03506c.1231-.05258.0879-.17528.1583-.29798.0175 0 .1406-.28046.0879-.42069.1758.03506.3691.03506.5625.05259.4747.07011.7032.64855 1.1427.82384.3868.33304.7032.71867.8966 1.15688 0 .21034-.1406.35057-.2461.52585-.4395.42069-.8614.77126-1.3185 1.06924Zm1.213 1.33217c-.1406-.56092-.2637-1.13936-.3692-1.70027l.5802-.57844c.0703.64856.1406 1.29711.1758 1.96319-.1407.07012-.2989.17529-.3868.31552Zm9.5812.61349c-.1055.14025-.211.17525-.3692.19285l-.0176.0175c-.0527.7362-.211 1.4373-.4395 2.1034v.0351c.1934.0876.4219.2454.4395.4908 0 .1402-.0352.2454-.0879.3505l-1.3888 1.7529c-.0176-.1753-.1231-.3331-.2813-.4382h-.0528c-.7735.8063-1.6349 1.4548-2.4788 2.0683-.8614-.5609-1.7052-1.2094-2.4787-1.9807-.1231-.0175-.1583.1402-.2286.2104-.0351.0701-.0527.1402-.0703.2278l-1.4591-1.8229c-.0704-.0877-.0879-.2104-.0528-.3155.0528-.1753.2286-.3331.4044-.3681.0879-.0351.0703-.1403.0527-.1929-.2285-.6485-.3516-1.3321-.4395-2.0333-.1758-.035-.3692-.1051-.4747-.28042-.0527-.10517-.0703-.2454-.0527-.3681.0527-.15775.1934-.33304.3868-.35057.0351 0 .0527 0 .0703-.03505l-.1055-1.66521c.2637-.17529.5274-.38563.7208-.64855-.3692 2.36634-.545 5.206 1.0724 7.064.7735.9115 1.6876 1.6301 2.6194 2.2436h.0527c1.5822-1.0517 3.3227-2.5942 3.7622-4.4347.3516-1.4899.2637-3.27781.0175-4.7502.1758.24539.4044.47326.6681.63102l.0176.03506-.1231 1.48992c.1582.05258.334.14023.4219.31551.0176.03506-.0175.31551-.1054.45574Zm-.9494-3.41805.756.31551.0176.03506c0 .17528-.0176.33304-.0528.49079-.2988-.21034-.545-.52585-.7208-.84136Zm1.1779 2.75197c-.1055-.1227-.2461-.22787-.3868-.29798l.1758-2.03331h.0176c.1934.07011.3692.17529.5977.17529l.0528.07011-.4571 2.08589Zm2.0041-2.99737c-.1934-.40316.1582-.87643-.123-1.26205-.0879.01753-.0176.14023-.0528.21034l-1.3712 1.61262c-.1055.1227-.2461.01753-.3692-.01753l-1.5295-.6135h-.8262c.1582-.15775.3691-.28045.6328-.21034.5978.1227 1.1955.33304 1.8284.31552l.0703-.03506c.4747-.63103.8966-1.27958 1.5295-1.82296.2812-.26293.6153.08764.9317-.08765.1231.07012.2637.1227.4043.08765.1583-.05259.3165-.21035.3692-.3681 0-.01753.0176-.05259-.0176-.07012h-.0351c-.1407.14023-.2813.31552-.4923.28046-.1054-.01753-.1758-.1227-.2285-.21034l-.211-.42069v-.35057c.0352-.01752.0704-.01752.1055-.03505.0352.15775-.0703.38562.0879.47327.1055 0 .211-.01753.2813-.10517-.0352-.10518-.1406 0-.211-.01753l-.0351-.03506c-.0352-.19281.123-.4908-.1231-.56091-.0879 0-.1582 0-.2285.07011-.0528-.15775-.0176-.33304-.0176-.52585.211-.08764.4395-.08764.668-.14023.1055-.03506.1407.08764.1758.14023.1934.33304.1758.70114.1231 1.08676.2637.3681.3164.80631.334 1.26206.0176.05258.0879.03505.1231.01752l.123-.10517-.3516 1.45487c-.1054-.01753-.1582-.1227-.2461-.15776-.0527.05259.0176.15776.0352.19281.0527.08765.2285.08765.1582.2454-.1582.63103-.2813 1.5951-.545 1.84049-.2109.22787-.4571.38563-.7208.4908.0704-.42068.0879-.87642.0528-1.33216-.0176-.35057-.0352-.52586-.0528-.8589.211.07011.3516-.01753.5099-.14023.0879-.08764.1582-.28045.1582-.40315 0-.01753-.0352-.01753-.0528-.01753-.1406.15776-.2988.2454-.4922.26293-.1406.01752-.2637-.01753-.3692-.14023Zm-.3867 2.97984c.5625-.05258 1.0723-.26293 1.4943-.66608.1406-.17529.2285-.3681.2988-.57844l.4219-1.75285c.1407-.64855.2813-1.29711.4396-1.92813.0351-.08765.0703-.17529.1406-.21035.0527.01753.1934-.03505.1758.07012-.0879 1.34969-.3692 2.62927-.6856 3.89132-.1231.52586-.5099.9816-.9494 1.3497-.457.22787-.9844.28045-1.4767.42068h-.0351c.0175-.22787.1054-.40316.1758-.59597Zm-1.4768 6.92376c-.2285-.0701-.3516 0-.4746-.2454.0175-.4032.5801-4.9606.5801-4.9606.0528-.1577.1231-.2454.2637-.333l-.1406.4557-.3165 4.1893c.2286.0877.4747.1929.6329.4032.0352.0701 0 .1578-.0351.2103-.1055.1753-.2989.298-.5099.2805Zm1.2306.3506c-.2637.0701-.5625.0525-.8262 0-.0703-.0176-.1407-.0526-.1582-.1227-.0176-.1227.1406-.0877.2109-.1578.1934-.1402.3868-.3155.6505-.2454.1758.0175.3164.1227.4571.2104-.0176.1752-.211.2629-.3341.3155Zm6.0476-.0877c-.211.1928-.5098.1578-.8087.1753h-.2285l.7735-.7712c.0176.2278.2988.3505.2637.5959Zm-.4395-1.9106c.0351-.0175.0527.0526.0703.0701 0 .1928-.0176.4032.1055.5434 0 .1402.0351.2805-.0352.4032-.4043.3505-.8262.6836-1.2306 1.0341-.1582.0702-.334.0702-.5274.0702-.879-.0702-1.7052-.2805-2.5491-.4382-.2813-.0877-.6329.0701-.879-.0877-.2461-.1928-.5274-.3506-.8614-.333l-.0528-2.6819c-.0175-.5784-.0175-1.1744-.0703-1.7528 0-.0176-.0176 0-.0351 0l-.0352.1752-.0703 1.7178V15.39c-.1582-.1928-.3516-.2279-.5274-.3681l.2109-3.4531c.0704-.3856.0176-.8238.2813-1.1393.1758-.1403.3516-.2454.5274-.3857l.8966.2104c.668.5784 1.2833 1.5775 2.0569 1.9106.5098.1577 1.0196.0175 1.5294.1577.0528.2805.0879.5609.1758.8239l-.0527.0526c-.6505.0701-1.4767.2454-2.0745-.0526-.5801-.3331-1.1427-.894-1.4591-1.4724-.1582-.3331-.3516-.6836-.5801-.9992-.0176 0-.0352 0-.0528.0176.1582.6135.5098 1.1569.8439 1.7002.2637.4207.668 1.0342 1.0548 1.3322.6329.4382 1.5119-.2103 2.1975-.298-.4571.4908-.879 1.1744-1.5822 1.2095-1.3713.0175-1.9514-1.2621-1.9514-1.2621l-.7384-1.6301c-.0176-.0175-.0176-.0351-.0527-.0175l-.0176.035c.1934.7012.4922 1.3497.7911 1.9983.211.3856.4571.7887.8614 1.0517.6329.3505 1.2834.6836 1.9338.9816.2286.0876.5802.1402.8087.0175.3692-.4207.6856-.8764 1.09-1.2796Zm-.4923-.7537.2637.6836-.0175.0526c-.3165.3681-.6329.7362-.9845 1.0868-.2813.1577-.5977-.0176-.8614-.1227-.3868-.1753-.756-.3681-1.1428-.561 1.1252.3331 1.6877-.929 2.3909-1.56.1758.0526.2813.2629.3516.4207Zm-.1582-.4382-.1406-.1227.9141-9.41282.1583.01753v.07011l-.9318 9.44788Zm1.3361-9.79845c.0176.15776-.0703.26293-.1055.40316-.123.63103-.4043 1.80543-.4395 1.85802l.211-1.89308s.1758.05259.1582 0c0-.14023-.3692-.33304-.4043-.45574.0351-.1227.1582-.22787.2285-.33304.1231.1227.2461.28046.3516.42068Zm-.2989-.77125-.1582.1227.1934-2.138475.1758.017528-.211 1.998247ZM70.3984 1.01665c0-.105169.0879-.192811.1934-.192811.1054 0 .1933.087642.1933.192811 0 .10517-.0879.19282-.1933.19282-.1055-.01753-.1934-.08765-.1934-.19282Zm-3.8501 0c0-.105169.0879-.192811.1934-.192811.1055 0 .1934.087642.1934.192811 0 .10517-.0879.19282-.1934.19282-.1055-.01753-.1934-.08765-.1934-.19282Zm-5.6432 2.13848c.0176.05258.0528.1227.0176.17528-.1406.08765-.3164.01753-.4571-.03505-.0351-.01753-.0175-.05259-.0175-.08765.0879-.14022.2637-.1227.4219-.1227l.0351.07012Zm15.8221.70114v.03505c-.1231.07012-.2637.15776-.4219.05259.0176-.07011.0703-.07011.1406-.08764.1407-.03506.1582-.03506.2813 0Zm-.1758-.8589c.1055 0 .1758.01753.2989.08764-.0528.1227-.211.15776-.3341.15776-.0527 0-.0703-.05259-.0703-.10517-.0176-.07011.0352-.10517.1055-.14023ZM73.5276 15.2498c.0352.0175.0704.0175.0879.035v.0702l-.0879-.1052ZM60.9227 4.03155c.1055 0 .2637-.05258.334.07012 0 .03505-.0703.03505-.1054.07011-.0352.05259-.1055.01753-.1583.03506-.0703 0-.0879-.10517-.1582-.10517-.0176-.05259.0528-.05259.0879-.07012ZM77.114 18.0368c-.1934.0701-.3692.1227-.7384.1227s-.5626-.0701-.7559-.1227c-.1934-.0701-.4044-.1402-.8263-.1402-.4219 0-.6153.0701-.8263.1402-.1933.0701-.3691.1227-.7559.1227-.3692 0-.5626-.0701-.756-.1227-.1933-.0701-.4219-.1402-.8262-.1402-.4044 0-.6153.0701-.8263.1402-.1934.0701-.3692.1227-.7383.1227-.3692 0-.545-.0701-.7384-.1227-.1934-.0701-.4043-.1402-.8263-.1402-.4043 0-.6153.0701-.8262.1402-.1934.0701-.3692.1227-.7384.1227s-.5626-.0701-.7559-.1227c-.211-.0701-.4044-.1402-.8263-.1402-.4219 0-.6153.0701-.8263.1402-.1933.0701-.3691.1227-.7559.1227-.3692 0-.5626-.0701-.756-.1227-.2109-.0701-.4219-.1402-.8262-.1402-.4219 0-.6153.0701-.8263.1402-.1934.0701-.3867.1227-.7559.1227-.3692 0-.5626-.0701-.7384-.1227-.1934-.0701-.4043-.1402-.8262-.1402-.422 0-.6329.0701-.8263.1402-.1758.0701-.4044.1227-.6856.1227v.2279c.4043 0 .5625-.0701.7559-.1402.1934-.0702.3692-.1227.756-.1227.3691 0 .5625.0701.7559.1227.1934.0701.4043.1402.8263.1402.4219 0 .6328-.0701.8262-.1402.1934-.0702.3692-.1227.756-.1227.3691 0 .5625.0701.7559.1227.211.0701.4044.1402.8263.1402.4219 0 .6153-.0701.8262-.1402.1934-.0702.3692-.1227.756-.1227.3692 0 .5625.0701.7559.1227.211.0701.4219.1402.8263.1402.4043 0 .6153-.0701.8262-.1402.1934-.0702.3692-.1227.7384-.1227s.545.0701.7384.1227c.1934.0701.4043.1402.8262.1402.4044 0 .6153-.0701.8263-.1402.1934-.0702.3692-.1227.7384-.1227.3867 0 .5625.0701.7559.1227.211.0701.4219.1402.8263.1402.4219 0 .6153-.0701.8262-.1402.1934-.0702.3692-.1227.756-.1227.3692 0 .5625.0701.7559.1227.211.0701.4044.1402.8263.1402.4043 0 .6153-.0701.8087-.1402.1933-.0702.3692-.1227.7383-.1227.3516 0 .5274.0701.7208.1227.1758.0701.4219.1402.7208.1402 0 0 .0176-.2279 0-.2279-.2989 0-.4747-.0701-.6505-.1227-.1933-.0701-.4043-.1402-.7911-.1402-.4219 0-.6329.0701-.8262.1402Zm0 .8239c-.1934.0701-.3692.1227-.7384.1227s-.5626-.0702-.7559-.1227c-.1934-.0702-.4044-.1403-.8263-.1403-.4219 0-.6153.0701-.8263.1403-.1933.0701-.3691.1227-.7559.1227-.3692 0-.5626-.0702-.756-.1227-.1933-.0702-.4219-.1403-.8262-.1403-.4044 0-.6153.0701-.8263.1403-.1934.0701-.3692.1227-.7383.1227-.3692 0-.545-.0702-.7384-.1227-.1934-.0702-.4043-.1403-.8263-.1403-.4043 0-.6153.0701-.8262.1403-.1934.0701-.3692.1227-.7384.1227s-.5626-.0702-.7559-.1227c-.1934-.0702-.4044-.1403-.8263-.1403-.4219 0-.6153.0701-.8263.1403-.1933.0701-.3691.1227-.7559.1227-.3692 0-.5626-.0702-.756-.1227-.2109-.0702-.4219-.1403-.8262-.1403-.4219 0-.6153.0701-.8263.1403-.1934.0701-.3867.1227-.7559.1227-.3692 0-.5626-.0702-.7384-.1227-.1934-.0702-.4043-.1403-.8262-.1403-.422 0-.6329.0701-.8263.1403l-.3692.1051c-.0176.0176.0352.2104.0352.2104l.4043-.1052c.1934-.0701.3692-.1227.756-.1227.3691 0 .5625.0526.7559.1227.1934.0701.4043.1402.8263.1402.4219 0 .6328-.0701.8262-.1402.1934-.0701.3692-.1227.756-.1227.3691 0 .5625.0526.7559.1227.211.0701.4044.1402.8263.1402.4219 0 .6153-.0701.8262-.1402.1934-.0701.3692-.1227.756-.1227.3692 0 .5625.0526.7559.1227.211.0701.4044.1402.8263.1402.4043 0 .6153-.0701.8262-.1402.1934-.0701.3692-.1227.7384-.1227s.545.0526.7384.1227c.1934.0701.4043.1402.8262.1402.4044 0 .6153-.0701.8263-.1402.1934-.0701.3692-.1227.7384-.1227.3867 0 .5625.0526.7559.1227.211.0701.4219.1402.8263.1402.4219 0 .6153-.0701.8262-.1402.1934-.0701.3692-.1227.756-.1227.3692 0 .5625.0526.7559.1227.211.0701.4044.1402.8263.1402.4043 0 .6153-.0701.8087-.1402.1933-.0701.3692-.1227.7383-.1227.3516 0 .5274.0526.7208.1227l.3692.1052c.0176.0175.0527-.2104.0352-.2104l-.3341-.1051c-.1933-.0702-.4043-.1403-.7911-.1403-.4219 0-.6329.0701-.8262.1403Zm0 .8413c-.1934.0701-.3692.1227-.7384.1227s-.5626-.0526-.7559-.1227c-.1934-.0701-.4044-.1402-.8263-.1402-.4219 0-.6153.0701-.8263.1402-.1933.0701-.3691.1227-.7559.1227-.3692 0-.5626-.0526-.756-.1227-.1933-.0701-.4219-.1402-.8262-.1402-.4044 0-.6153.0701-.8263.1402-.1934.0701-.3692.1227-.7383.1227-.3692 0-.545-.0526-.7384-.1227-.1934-.0701-.4043-.1402-.8263-.1402-.4043 0-.6153.0701-.8262.1402-.1934.0701-.3692.1227-.7384.1227s-.5626-.0526-.7559-.1227c-.1934-.0701-.4044-.1402-.8263-.1402-.4219 0-.6153.0701-.8263.1402-.1933.0701-.3691.1227-.7559.1227-.3692 0-.5626-.0526-.756-.1227-.2109-.0701-.4219-.1402-.8262-.1402-.4219 0-.6153.0701-.8263.1402-.1934.0701-.3867.1227-.7559.1227-.3692 0-.5626-.0526-.7384-.1227-.1934-.0701-.4043-.1402-.8262-.1402-.422 0-.6329.0701-.8263.1402l-.0879.0351c0 .0175.0703.2103.0703.2103l.0879-.0175c.1934-.0701.3692-.1227.756-.1227.3691 0 .5625.0701.7559.1227.1934.0701.4043.1402.8263.1402.4219 0 .6328-.0701.8262-.1402.1934-.0701.3692-.1227.756-.1227.3691 0 .5625.0701.7559.1227.211.0701.4044.1402.8263.1402.4219 0 .6153-.0701.8262-.1402.1934-.0701.3692-.1227.756-.1227.3692 0 .5625.0701.7559.1227.211.0701.4044.1402.8263.1402.4043 0 .6153-.0701.8262-.1402.1934-.0701.3692-.1227.7384-.1227s.545.0701.7384.1227c.1934.0701.4043.1402.8262.1402.4044 0 .6153-.0701.8263-.1402.1934-.0701.3692-.1227.7384-.1227.3867 0 .5625.0701.7559.1227.211.0701.4219.1402.8263.1402.4219 0 .6153-.0701.8262-.1402.1934-.0701.3692-.1227.756-.1227.3692 0 .5625.0701.7559.1227.211.0701.4044.1402.8263.1402.4043 0 .6153-.0701.8087-.1402.1933-.0701.3692-.1227.7383-.1227.3516 0 .5274.0701.7208.1227l.0528.0175s.0879-.2103.0703-.2103l-.0528-.0176c-.1933-.0701-.4043-.1402-.7911-.1402-.4219-.035-.6329.0526-.8262.1227ZM3.96327 5.9071c-.10548 1.01665-1.10754 11.7791-1.01964 12.603.10548 1.0517 1.0548.929 1.0548.929v.3681s-1.00206-.0526-1.79316-.0526c-.77353 0-1.70527.0526-1.70527.0526v-.3681s.89658.0701 1.08996-.9816C1.69545 17.844 3.29523 4.99562 3.85779.157756h.24613L9.5889 13.7248 14.3355.070114h.2461L17.0429 18.4224c.1406 1.0693.9493 1.0167.9493 1.0167v.3681s-1.213-.1052-1.9866-.1052c-.7735 0-2.0744.1052-2.0744.1052v-.3681s.9493.0351.8087-.9641L13.0873 6.45048 8.86812 17.4934h-.21096L3.96327 5.9071Zm18.21293 7.2217c.756-2.9447 1.6877-6.41539 2.18-8.46622l2.4612 8.46622h-4.6412Zm4.9049.8765 1.2657 4.3821c.2462.9991-.6504 1.0166-.6504 1.0166v.3681s1.213-.1051 1.9865-.1051c.7735 0 2.0745.1051 2.0745.1051v-.3681s-.8087.0176-1.0197-1.0166L25.3582 0h-.3692c-1.6525 5.6617-5.274 17.844-5.4674 18.44-.3516 1.1043-1.1778.9816-1.1778.9816v.3681s.9317-.0526 1.7052-.0526c.7911 0 1.7932.0526 1.7932.0526v-.3681s-1.1075.035-.9669-.9641c.0352-.2805.4747-2.1385 1.0724-4.4522h5.1334Zm6.4694 4.4347V1.80543c0-1.069233-1.1075-1.016648-1.1075-1.016648V.403155s1.5822.105171 2.3557.105171c.7735 0 2.2854-.105171 2.2854-.105171v.368098S35.9766.736196 35.9766 1.78791V18.3874c0 1.0692.9493 1.0166.9493 1.0166v.3681s-1.424-.1051-2.1975-.1051c-.7735 0-1.9865.1051-1.9865.1051v-.3681c0 .0176.8086.0526.8086-.964Zm6.9793 1.2795c-.7911 0-1.7931.0526-1.7931.0526v-.3681s.9844.0701 1.1778-.9816c.1055-.6135.2637-2.0508.2637-6.9588 0-1.96316.0352-11.305844.0352-11.305844h.2813L50.6032 14.7064c-.0351-2.4014-.0879-5.10079-.0879-6.18756 0-4.83786-.123-6.18755-.1582-6.69588C50.2692.753725 49.2144.80631 49.2144.80631V.438212s1.09.070114 1.8635.070114c.7735 0 1.7931-.070114 1.7931-.070114V.80631s-.9844-.052585-1.1778.9816c-.1055.61349-.2637 1.80543-.2637 6.71341V19.9124h-.2813L41.0045 5.2936c.0352 2.43646.0879 5.3111.0879 6.4154 0 4.8379.1231 6.1876.1582 6.6959.0879 1.0692 1.1427 1.0167 1.1427 1.0167v.3681c.0176 0-1.0724-.0702-1.8635-.0702ZM119.816.631026c-.088.333041-.316 1.262054-.334 2.138474-.018.77125.07 2.5241.07 2.5241h-.404c-.369-1.98072-1.67-4.24189-4.043-4.24189-.967 0-3.007.77125-3.007 2.71691 0 2.24365 1.653 3.36547 4.272 4.8554 2.637 1.48988 4.272 2.96228 4.272 6.15248 0 2.9448-2.145 5.0833-5.274 5.0833-2.566 0-4.342-1.2971-4.342-1.2971s.018-1.5601.018-2.3313c0-.7713-.106-2.5241-.106-2.5241h.404c.493 2.6643 2.092 5.3462 4.483 5.3462 2.215 0 2.936-2.2262 2.936-2.9974 0-.5784.563-2.7695-3.322-4.9956-3.85-2.20861-5.081-3.40055-5.081-6.34534 0-2.69938 2.408-4.399647 4.588-4.399647 1.547 0 2.585.648554 3.428.648554.704 0 1.196-.525855 1.196-.525855l.246.192814Zm11.445 1.700264-.334-.15776s.457-.84136-.352-.84136h-2.989V18.4049c0 1.0692 1.319 1.0167 1.319 1.0167v.3681s-1.793-.1052-2.567-.1052c-.773 0-2.531.1052-2.531.1052v-.3681s1.318.035 1.318-1.0167V1.33217h-2.479.018c-1.301 0-1.688.98159-1.688.98159l-.351-.14023s.509-1.01665.808-1.752846h10.759l-.931 1.910606ZM92.8481 7.06398c0 3.89132-.9317 6.09992-2.9534 6.09992-.7208 0-1.4064-.4557-1.9338-1.1919V1.54251c.4395-.3681.9669-.578443 1.6877-.578443 2.0041 0 3.1995 1.980723 3.1995 6.099913Zm2.3909 0c0-4.25942-1.7756-6.801053-5.1509-6.801053-1.09 0-2.0217.245399-3.3402.245399-.7736 0-2.5667-.105171-2.5667-.105171v.368098s1.3185-.035057 1.3185 1.016657V18.3874c0 1.0692-1.3185 1.0166-1.3185 1.0166v.3681s1.7052-.1051 2.4788-.1051c.7911 0 2.6018.1051 2.6018.1051v-.3681s-1.3185.0351-1.3185-1.0166v-5.0132c.6153.3506 1.3361.5259 2.1096.5259 2.8831.0175 5.1861-3.0675 5.1861-6.83612Zm11.374 3.10252c0 5.6091-1.512 9.0272-3.885 9.0272-2.461 0-3.8851-3.4531-3.8851-9.0272 0-5.46887 1.3711-9.06221 3.8851-9.06221 2.497 0 3.885 3.64593 3.885 9.06221Zm2.462-.0175c0-5.87205-2.831-9.833487-6.329-9.833487-3.4987 0-6.3291 3.891327-6.3291 9.850987 0 6.0649 2.8304 9.8335 6.3291 9.8335 3.481 0 6.329-3.7336 6.329-9.851Z"/><path fill="#A7A7A7" d="M69.9104 8.13245c-.1758.1227-.4044.17528-.5802.28045.0879.26293.1934.50833.3165.75373.1933-.07011.4043-.15776.5801-.22787.0703.08764.1055.22787.1582.35057l-.0703.05258-1.6174.68359-.6856-1.63012.0352-.03506 1.6349-.70114h.0352l.1934.47327Z"/><path fill="#777" d="m68.5178 10.1145-1.6349.7011c-.0703-.1052-.1055-.2454-.1582-.3681l.0527-.035c.1934-.0877.3868-.1578.5626-.263-.0879-.24537-.211-.49077-.3165-.75369h-.0527l-.5626.2454c-.0879-.15776-.1582-.31552-.1934-.47327.545-.22787 1.0724-.47327 1.6174-.70114l.0352.03505.6504 1.61265ZM70.6428 9.8681c-.1934.10517-.4219.1578-.5977.2805.0703.2629.1933.5083.2988.7712l.0176.0175c.211-.0525.4043-.1752.6329-.2278l.1758.4206-1.6701.7362h-.0176l-.6856-1.6301c.5625-.2454 1.1251-.4908 1.6877-.7362l.1582.3681Z"/><path fill="#A7A7A7" d="M69.2756 11.9182c-.5274.2454-1.0899.4733-1.6349.7012-.0879-.1227-.1231-.2805-.1934-.4207l.0528-.0351.5449-.2454v-.0701l-.3164-.7011c-.211.035-.4043.1577-.6329.2279l-.1582-.3857 1.6349-.7011.0352.035.668 1.5951Z"/></g><defs><clipPath id="a"><path fill="#fff" d="M.480469 0h131.692v20H.480469z"/></clipPath></defs></svg>
