<svg xmlns="http://www.w3.org/2000/svg" fill="none" viewBox="0 0 47 10"><g fill="#fff" clip-path="url(#a)"><path d="M37.4923 4.25023c.2352 0 .4259-.19068.4259-.4259 0-.23521-.1907-.42589-.4259-.42589s-.4259.19068-.4259.42589c0 .23522.1907.4259.4259.4259ZM42.5314 4.25902c.2352 0 .4259-.19068.4259-.4259 0-.23521-.1907-.42589-.4259-.42589-.2353 0-.4259.19068-.4259.42589 0 .23522.1906.4259.4259.4259ZM10.9229 4.49941c.2511-.71723.573-1.26659 1.1654-1.72578-.3114.09506-.5964.2613-.8324.48555-.2423.23191-.4275.51683-.5411.83237v-.02358c0-.12763 0-.25665.0167-.38289.0188-.23008.0795-.4548.179-.66313.1726-.36015.469-.64622.8351-.80601.2319-.10653.4791-.17627.7325-.2067.2011-.02359.4037-.03052.6062-.0444h.0292c0 .05411.0083.10405.0097.15538.0293.53272-.1095 1.06119-.3968 1.51075-.2273.33663-.5601.588-.9461.71445-.24.08133-.4904.12804-.7436.13873l-.1152.00832M9.94335.455078c-.06798.106821-.13873.20948-.19977.316301-.11916.201126-.20138.421941-.24277.652021-.03658.1981-.02368.40216.03755.59407.06123.19191.16889.36574.31343.50605.15891.16287.34721.29419.55491.38705l.0458.01942c.2774-.39815.4689-.82266.3801-1.32485-.0538-.25782-.1744-.497-.3496-.693646-.1404-.167148-.3061-.311315-.4911-.427283-.01431-.008748-.02913-.016624-.04439-.023584M10.1755 4.25208c-.0319-.22389-.1127-.43802-.23663-.62718-.12396-.18916-.28802-.34873-.48055-.46738.19515.06068.37366.1656.52162.30659.14966.14534.26366.32341.33296.52023v-.00833c0-.08046 0-.16092-.007-.24138-.01-.14406-.0462-.28509-.1068-.41619-.1078-.22602-.29274-.4061-.52159-.50774-.14479-.07017-.29977-.11699-.45919-.13873-.12486-.01665-.25249-.0222-.37873-.0333h-.01942v.09711c-.02289.3339.05907.66662.23445.95168.14074.21281.34736.37362.58821.4578.15013.05379.307.08647.46617.09711h.0721M10.9748 4.85938h-.8615v3.05895h.8615V4.85938ZM27.674 2.76855h-.8615v5.15099h.8615V2.76855ZM2.612 4.27986c-.08575-.12461-.20082-.22623-.33508-.29591-.13427-.06967-.28361-.10526-.43486-.10363-.49526 0-.65064.31075-.65064.55492-.00115.06097.01162.1214.03734.17669.02572.05529.06372.10399.1111.14238.11376.10543.26913.16231.56601.26775.36763.12763.71307.25526.95307.47306.13439.1262.24001.27987.30967.45056.06967.17069.10174.35438.09402.53857 0 .91284-.66312 1.54127-1.63422 1.54127-.32353-.00139-.641589-.08359-.925288-.23913-.283698-.15554-.524046-.37949-.69921575-.6515L.6046 6.56333c.089818.1866.230058.34436.40486.45541.1748.11106.37719.171.58427.17303.41619 0 .72694-.25388.72694-.65064.00159-.07953-.01394-.15847-.04554-.23148-.03159-.073-.07852-.13836-.13758-.19164-.17757-.16231-.45919-.25526-.72833-.34682-.28546-.08398-.551739-.22301-.783811-.40925-.126128-.10762-.226229-.24241-.292785-.39427-.066556-.15185-.097837-.31681-.091492-.48249 0-.69364.466127-1.38729 1.512138-1.38729.24862-.00403.49541.04315.72501.13862.2296.09547.43709.23717.60956.4163l-.47584.62705ZM4.82211 5.72984c-.09554.0797-.17141.18037-.2217.29418s-.07364.23769-.06824.362c-.00388.12415.01888.24769.06674.36232.04785.11462.11971.21766.21072.30219.15728.13618.3594.20932.5674.20532.21448.00535.42256-.07331.57988-.21919.08609-.08488.15417-.18625.20017-.29804.04601-.11179.06899-.23172.06758-.3526.00016-.23993-.09343-.47042-.26081-.64231-.16307-.14095-.37129-.21872-.58682-.21919-.20479-.00729-.40419.06649-.55492.20532Zm-.2067 3.80809h-.8615V4.86001h.8615v.39538c.11183-.1587.26149-.28698.43542-.37322.17394-.08624.36664-.12771.56065-.12066.1927-.00395.38429.03017.56378.1004.1795.07022.34337.17518.48223.30885.15475.16098.27523.35168.35416.56056.07893.20889.11466.43161.10503.6547.01088.22877-.02621.45728-.10887.67087-.08266.21358-.20908.40752-.37113.56936-.28329.25944-.65498.40087-1.03908.39538-.19191.00519-.38212-.03734-.55354-.12378-.17143-.08644-.31872-.21408-.42865-.37148v2.01156ZM16.2126 5.73689c-.091.08127-.163.18156-.211.29375-.0479.1122-.0706.23356-.0665.3555-.006.22184.0746.43732.2248.6007.0791.08609.1754.15455.2828.20092.1073.04637.2232.06961.3401.06821.21.00116.4132-.07431.5715-.21225.0888-.08481.1592-.18692.2069-.30003.0478-.1131.0718-.23479.0706-.35755.0013-.22929-.0873-.44996-.2469-.61456-.0769-.08149-.1702-.14566-.2738-.18824-.1035-.04258-.215-.06259-.3269-.0587-.211-.00444-.4158.07143-.573.21225m1.3221-.87676h.8615v2.9133c0 .46612-.043.95306-.4245 1.33456-.2109.21226-.5785.43145-1.2083.43145-.5924 0-.9462-.17619-1.1445-.35376-.256-.24462-.4288-.56342-.4939-.91144h.9336c.0335.14059.1072.26836.2123.36763.1481.11719.3345.17505.523.16231.1926.00806.3805-.06024.523-.19006.197-.19144.2192-.43144.2192-.67838v-.4259c-.0986.15966-.2374.29068-.4024.38001-.165.08933-.3506.13385-.5382.12913-.1956.00575-.3904-.02815-.5725-.09968-.1822-.07153-.348-.17919-.4874-.31651-.1584-.15966-.2831-.34949-.3667-.55825-.0836-.20875-.1245-.43217-.1202-.65701-.0049-.22372.0343-.4462.1155-.65473.0812-.20853.2027-.399.3575-.56053.2843-.26845.6621-.4153 1.053-.40925.1895-.00931.3781.03143.5469.11812.1687.08669.3117.21629.4145.37575l-.0014-.39676ZM25.3099 5.98354c-.0282-.17171-.1165-.3278-.2492-.44043-.1326-.11262-.3009-.17445-.475-.17445-.174 0-.3423.06183-.4749.17445-.1327.11263-.221.26872-.2492.44043h1.4483Zm.7921 1.08763c-.0915.22613-.4383.95445-1.5052.95445-.2145.01051-.429-.02227-.6306-.0964-.2017-.07412-.3863-.18806-.543-.33504-.1613-.15279-.2877-.33862-.3705-.54477-.0829-.20615-.1202-.42777-.1095-.64968-.009-.22249.0278-.44445.1083-.65209.0804-.20764.2027-.3965.3592-.55485.1529-.14587.3337-.2593.5316-.33345.1979-.07414.4088-.10748.6199-.098.6229 0 .9822.24694 1.1944.50081.3246.38983.3676.86983.3676 1.20139v.07075h-2.289c-.0045.18316.0473.3633.1485.51607.071.09482.1641.17083.2712.22137s.225.07408.3433.06857c.1447.00391.2876-.03208.4131-.10402.1256-.07195.2289-.17707.2986-.30384l.7921.13873ZM11.7148 4.86685h.8629v.40092c.0905-.14536.2189-.26326.3715-.341.1525-.07775.3234-.11237.4942-.10015.2677 0 .6104.02497.8518.32185.1773.24848.2608.55173.2358.85595V7.9272h-.8629V6.26246c0-.17064-.0069-.43839-.1623-.6007-.0452-.05112-.101-.09176-.1635-.11907-.0626-.02732-.1303-.04065-.1986-.03908-.2261 0-.3107.07769-.4383.26775-.1034.18009-.1516.38653-.1388.59376V7.9272h-.8518V4.86685ZM29.2017 6.38577c.0025.16742.0544.33038.1493.46838.0948.138.2283.24487.3837.30718.1555.06231.3258.07727.4897.043.1639-.03427.314-.11624.4315-.23559.1174-.11936.1969-.27078.2285-.43521.0316-.16444.0139-.33454-.0509-.48893-.0648-.15439-.1739-.28616-.3134-.37874-.1395-.09259-.3033-.14185-.4707-.1416-.1131-.00214-.2254.01879-.3302.0615-.1047.04272-.1996.10633-.2789.18695-.0794.08062-.1414.17656-.1824.28196-.041.10541-.0601.21807-.0562.3311Zm1.6107-3.61526h.8629v5.14821h-.8629v-.39538c-.1019.15528-.2415.28217-.4057.36879-.1643.08661-.3478.13013-.5335.12647-.9392 0-1.5607-.73526-1.5607-1.63283s.6146-1.62451 1.526-1.62451c.1923-.00983.3838.03054.5558.11713.1719.08659.3184.21642.425.37674l-.0069-2.48462ZM18.8245 4.82351h.6409v-.88648c0-.79769.6062-1.24855 1.3692-1.24855.8865 0 1.3429.56601 1.3429 1.13896v.07491c-.0036.10796-.049.21028-.1267.28536-.0776.07507-.1814.11701-.2894.11695-.0532.00114-.106-.00849-.1553-.02831-.0494-.01982-.0942-.04941-.1318-.08699-.0375-.03759-.0671-.0824-.0869-.13172-.0199-.04932-.0295-.10215-.0284-.15529v-.04717c0-.25248-.2192-.43006-.5257-.43006-.0756-.00213-.1508.0116-.2208.04033-.07.02872-.1331.07179-.1854.12643-.0523.05465-.0926.11964-.1182.1908-.0256.07116-.036.1469-.0306.22233v.8185h.6618v.72138h-.6618v2.37919h-.8171V5.54489h-.6409l.0042-.72138Zm2.5928 0h.8629v3.10057h-.8629V4.82351ZM9.66011 4.79149c-.0784-.02025-.15904-.03051-.24-.03052-.17956-.00399-.35642.0442-.50914.13873-.16415.10269-.2963.24925-.3815.42312v-.46335h-.8615v3.05202h.8615V6.4493c-.02184-.23934.03939-.47889.17341-.67839.06986-.08235.15777-.14747.25691-.1903.09913-.04283.20681-.06221.31465-.05663.1372-.00702.27312.02939.38844.10404l-.00277-.83653ZM37.9284 4.80371h-.8698v3.08532h.8698V4.80371ZM42.9636 4.80371h-.8698v3.08532h.8698V4.80371ZM46.0794 5.7446c-.1912-.18299-.4471-.28276-.7117-.27746-.1162-.00559-.2324.01326-.3409.05532-.1085.04207-.207.10643-.2891.18892-.0821.08249-.146.18128-.1875.28999-.0416.10871-.0599.22493-.0537.34115-.0024.11757.0194.23437.0639.34321.0445.10883.1109.20738.195.28954.0841.08217.1842.14622.2941.18819.1098.04197.2271.06097.3446.05582.2539-.00046.4983-.09711.6839-.27052v.84763c-.2471.12593-.5204.19198-.7977.19283-.4388.0055-.8635-.15506-1.1889-.44948-.1601-.15168-.2866-.33523-.3714-.53881-.0849-.20357-.1261-.42267-.1211-.64315-.0087-.21891.0279-.43726.1074-.64138.0796-.20412.2005-.38961.3551-.54485.1545-.15524.3395-.27689.5433-.35732.2038-.08042.422-.11791.6409-.11009.2883-.00483.5736.05888.8324.18589l.0014.85457ZM34.785 5.7446c-.1912-.18286-.4471-.28261-.7116-.27746-.1156-.00531-.2309.0135-.3388.05524-.1078.04174-.2058.1055-.2876.18721-.0819.08171-.1458.17957-.1877.28735-.0419.10778-.0609.22311-.0558.33864-.0026.11763.019.23453.0635.34345.0445.10893.1108.20756.195.28977.0842.08221.1843.14625.2943.18814.1099.0419.2273.06076.3448.05541.253.00143.4973-.09271.6839-.26359v.84763c-.2471.12593-.5203.19198-.7977.19283-.4391.0053-.8642-.15521-1.1902-.44948-.1596-.15202-.2857-.33566-.3703-.53918-.0845-.20352-.1257-.42244-.1208-.64278-.0088-.21891.0278-.43726.1074-.64138.0795-.20412.2004-.38961.355-.54485.1546-.15524.3395-.27689.5433-.35732.2038-.08042.422-.11791.641-.11009.2882-.00473.5735.05898.8323.18589v.85457ZM36.3308 2.76465h-.8699v5.12324h.8699V2.76465ZM38.625 4.80457h.8684v.39954c.2012-.22752.4384-.44532.8005-.44532.2775 0 .6173.02497.8587.32324.2137.26358.2428.57017.2428.86982v1.9422h-.8698V6.2085c0-.24694-.0264-.5674-.2775-.69364-.0588-.02771-.1228-.04276-.1878-.0442-.065-.00143-.1295.01079-.1895.03587-.3205.13873-.3774.49943-.3774.80602v1.57734h-.8684V4.80457Z"/></g><defs><clipPath id="a"><path fill="#fff" d="M0 .455078h46.0814v9.08948H0z"/></clipPath></defs></svg>
