<svg xmlns="http://www.w3.org/2000/svg" fill="none" viewBox="0 0 64 22"><g fill="#fff" clip-path="url(#a)"><path d="M35.3631 11.1831c.0078.5451-.0999 1.0857-.3162 1.5863-.1997.4578-.4937.8685-.8629 1.2055-.3695.3334-.7989.5939-1.2655.7679-.9911.3637-2.0794.3637-3.0705 0-.4677-.1717-.8975-.4325-1.2655-.7679-.3656-.3385-.657-.749-.8558-1.2055-.2164-.5006-.3241-1.0412-.3161-1.5863-.0084-.5429.0993-1.0813.3161-1.57923.199-.45238.4905-.85828.8558-1.19166.3679-.33035.7981-.58412 1.2655-.74646.9944-.3447 2.0761-.3447 3.0705 0 .4663.1646.8961.41812 1.2655.74646.3688.33183.663.73799.8629 1.19166.2167.49793.3245 1.03633.3162 1.57923Zm-2.2722 0c0-.2297-.0389-.4578-.1151-.6745-.0726-.2129-.1849-.4102-.3309-.58155-.1481-.17052-.329-.3096-.532-.40898-.2304-.10409-.4805-.15793-.7335-.15793-.2529 0-.503.05384-.7335.15793-.2018.09807-.3808.23741-.5253.40898-.1414.17205-.2486.36945-.3161.58155-.1437.4384-.1437.911 0 1.3494.0701.2169.1799.4189.3238.5959.1446.1777.3261.3221.532.4232.2304.1042.4805.1581.7335.1581.2529 0 .503-.0539.7335-.1581.2058-.1011.3873-.2455.5319-.4232.1437-.177.2534-.379.3233-.5959.0717-.2177.1081-.4453.108-.6745M46.2644 14.7867h-2.3729l-1.4092-4.4497h-.0286l-1.3806 4.4497h-2.3729l-2.4736-7.14998h2.5452l1.2369 4.52168h.0429l1.2798-4.52168h2.3758l1.3233 4.52168h.0286l1.2512-4.52168h2.4445l-2.4904 7.14998ZM57.0588 11.299v.286c.0002.0911-.0046.1821-.0143.2727h-5.1913c.0165.1932.078.3799.1795.5453.1019.164.2335.3076.3883.4232.3296.2474.7308.3812 1.1432.3814.3286.0103.6547-.0612.9489-.2078.2485-.1299.4648-.3138.6327-.5382l1.6394 1.0334c-.3349.4873-.7942.8764-1.3304 1.1268-.6021.2739-1.2583.4088-1.9197.3947-.5187.003-1.0341-.082-1.5243-.2512-.464-.1583-.8917-.4072-1.2583-.7321-.3655-.3287-.6551-.7327-.8486-1.1841-.2142-.5086-.3196-1.0562-.3095-1.6078-.0078-.5437.0949-1.0833.3018-1.58631.1876-.45356.4666-.86386.8195-1.20548.3522-.3346.7678-.59567 1.2225-.76791.4871-.18481 1.0046-.27712 1.5257-.27217.4967-.00562.9898.08453 1.4522.2655.4304.16996.8182.43209 1.1361.76791.3271.35251.579.76765.7406 1.22026.1852.5254.2753 1.079.266 1.6359Zm-2.1713-.9052c.0073-.3533-.1185-.6966-.3525-.96188-.1357-.14036-.3008-.24913-.4835-.31858-.1826-.06945-.3784-.09787-.5733-.08325-.2157-.00247-.43.03403-.6327.10772-.1841.06718-.3545.1668-.5033.29411-.1422.12233-.2595.27091-.3453.43757-.0848.16251-.1336.34131-.1432.52431h3.0338ZM63.4653 9.57517c-.1013-.02785-.2048-.04698-.3094-.0572-.1006-.00953-.1988-.0143-.2947-.0143-.276-.00892-.55.05001-.7979.1716-.1993.1014-.3756.24273-.5177.41513-.1265.157-.2217.3368-.2803.5296-.0528.162-.0819.3307-.0864.501v3.6636h-2.3586V7.64563h2.2702v1.03341h.0287c.1771-.36053.4446-.66923.7765-.89613.3427-.23349.7498-.35476 1.1647-.34701.0936-.00004.1872.00473.2803.0143.0756.00659.1503.02097.223.0429l-.0984 2.08207ZM8.20204 17.705l-3.20237-1.4648-4.702795 2.1636 7.903255 3.5974H8.203l7.8865-3.5898-4.7028-2.1635-3.18466 1.4571ZM12.6886 4.82035 9.94805 3.55957l-1.54961.7088 2.73196 1.26078 1.5582-.7088ZM5.24426 5.5189l2.73678-1.25888-1.5095-.69068-2.74107 1.26078 1.51379.68878ZM14.1192 10.7007l-3.5696-1.64211-2.13554.97721 3.56384 1.6397 2.1413-.9748ZM4.43478 11.6767l3.56386-1.6397-2.15608-.98622-3.56912 1.64212 2.16134.9838ZM8.20288 2.50293h-.00366v.00366h.00366v-.00366Z"/><path d="m6.17306 3.43199 2.02619-.92664 2.02665.92664L12.9751 4.688V2.17312L8.20116 0 3.42578 2.17264V4.688l2.74728-1.25601Z"/><path d="m12.423 6.37752-1.5759-.715-2.64127-1.20549-2.64174 1.20263-3.57581 1.62733v3.27521l3.58154-1.63786 2.6384-1.20692 2.63838 1.20692 3.5816 1.63786V7.28699l-.5683-.25644-.0034.00762-1.4335-.66065Z"/><path d="m4.72541 16.1139 3.476-1.5902 3.47599 1.5902 4.7171 2.1579v-4.3162l-4.7152-2.145-3.47598-1.5821-3.47934 1.5816L.0078125 13.956v4.3158L4.72541 16.1139ZM13.855 7.03854l.0033-.00763-1.4364-.65493 1.4331.66256ZM24.9996 6.71842v8.06708h-2.4593V6.71842h-2.8762V4.62109h8.2136v2.09733h-2.8781Z"/></g><defs><clipPath id="a"><path fill="#fff" d="M0 0h63.5556v22H0z"/></clipPath></defs></svg>
