<svg xmlns="http://www.w3.org/2000/svg" fill="none" viewBox="0 0 62 24"><g fill="#fff" clip-path="url(#a)"><path d="M.898109 8.49277 3.31764 12.3611c.19782.3172.65965.3172.85828 0l2.41951-3.86833c.21089-.33675-.03186-.77402-.42913-.77402H1.32725c-.397262 0-.640032.43727-.429141.77402ZM11.1593 14.2067l2.1947 3.5087c.1978.3171.6596.3171.8583 0l5.7684-9.22263c.2109-.33675-.0318-.77402-.4291-.77402h-4.3903c-.1741 0-.3368.08993-.4291.23784l-3.5729 5.71391c-.103.1642-.103.3727 0 .5362ZM4.47568 14.2028l2.19557 3.5104c.19781.3172.65965.3172.85826 0l5.99979-9.59367c.103-.16428.103-.37271 0-.53619l-2.1947-3.50956c-.1978-.31712-.6597-.31712-.8583 0L4.47568 13.6667c-.10299.1643-.10299.3727 0 .5361ZM41.4328 8.15356l-2.816 7.81434c-.0457.1275-.1667.2125-.3024.2125h-4.6527c-.1406 0-.2649-.0915-.3066-.2255l-1.3928-4.4503c-.0188-.0597-.1022-.0597-.121 0l-1.3928 4.4503c-.0417.134-.166.2255-.3065.2255h-4.6527c-.1358 0-.2567-.085-.3025-.2125l-2.816-7.81434c-.0752-.20922.0793-.42993.3024-.42993h3.0057c.1398 0 .2632.08993.3057.22316l1.7901 5.56181c.0188.058.1014.0589.1202.0008l1.8784-5.56755c.0441-.13073.1667-.21822.304-.21822h3.6457c.1381 0 .2599.08829.3041.21822l1.8784 5.56755c.0196.0581.1022.0572.1201-.0008l1.7902-5.56181c.0425-.13243.1659-.22316.3057-.22316h3.0056c.2223 0 .3776.22071.3024.42993h.0033ZM45.6751 7.72363h-2.807c-.1774 0-.3212.14381-.3212.32118v7.81439c0 .1774.1438.3212.3212.3212h2.807c.1774 0 .3212-.1438.3212-.3212V8.04481c0-.17737-.1438-.32118-.3212-.32118ZM61.5516 8.04481v7.81439c0 .1774-.1436.3212-.321.3212h-5.0245c-.0852 0-.1671-.0335-.2273-.094l-4.7968-4.7878c-.04-.0401-.1078-.0115-.1078.0449v4.5157c0 .1774-.144.3212-.321.3212h-2.9085c-.1774 0-.3213-.1438-.3213-.3212V8.04481c0-.17737.1439-.32118.3213-.32118h4.007c.0843 0 .1657.03351.2255.09313l5.923 5.85614c.04.0392.1077.0114.1077-.045V8.04566c0-.17737.144-.32123.3215-.32123h2.8026c.1775 0 .3215.14386.3215.32123l-.0019-.00085Z"/></g><defs><clipPath id="a"><path fill="#fff" d="M.816406 0h61.1831v24H.816406z"/></clipPath></defs></svg>
