<svg xmlns="http://www.w3.org/2000/svg" fill="none" viewBox="0 0 112 24"><g clip-path="url(#a)"><path fill="#fff" d="M48.4671.744212V2.55431h1.1464l2.0141 8.09209h2.8245l1.3425-5.06423 1.2865 5.06423h2.8258l2.1255-8.09209 1.0897-.00008V.744141h-3.8875V2.55423h1.2865l-1.3986 5.26599-1.734-7.076079h-1.79L53.6971 7.87625l-1.3705-5.32202h1.3985V.744141l-5.258.000071ZM102.93 15.9069c-1.4 0-2.183 1.4591-2.183 2.8456 0 1.3851.783 2.8456 2.183 2.8456 1.401 0 2.184-1.4605 2.184-2.8456 0-1.3865-.783-2.8456-2.184-2.8456Zm-9.5748.0459c-1.4869 0-2.5357 1.3298-2.5357 2.7997 0 1.4411 1.0488 2.7989 2.5357 2.7989.8404 0 1.1996-.2033 1.4941-.3966v-2.153l.4238-.4332h-1.4582l.431.4332v1.7557c-.1293.1301-.3879.3887-.8907.3887-1.214 0-1.8245-1.2206-1.8245-2.3937 0-1.1825.7686-2.3923 1.8245-2.3923.2729 0 .4813.0639.6608.2579l.6034.5905v-.9411c-.3232-.1667-.6465-.3147-1.2642-.3147Zm-61.5372.0467c-.9518 0-1.3863.8126-1.3863 1.3399 0 .4159.2119.8865.7017 1.2457l1.1185.8039c.3045.2133.3886.5273.3886.796 0 .4619-.2866.9612-.9051.9612-.148 0-.278-.028-.3786-.0747l-.5179-.6099-.4712.8498 1.0437.2033s.176.0367.324.0367c.6551 0 1.5149-.5539 1.5149-1.5884 0-.5367-.2507-.8686-.5093-1.0453l-1.1083-.8025c-.3965-.2859-.6005-.6566-.6005-.9346 0-.5718.4899-.7744.7858-.7744.1573 0 .2672.0646.3505.0646l.4799.518.5078-.7579-1.0803-.2033c-.0733-.0187-.1185-.0281-.2579-.0281Zm41.7117 0c-.9553 0-1.3863.8126-1.3863 1.3399 0 .4159.2155.8865.7039 1.2457l1.1134.8039c.3089.2133.3879.5273.3879.796 0 .4619-.2801.9612-.9051.9612-.1436 0-.2729-.028-.3807-.0747l-.51-.6099-.4741.8498 1.0416.2033s.1796.0367.3232.0367c.6609 0 1.5157-.5539 1.5157-1.5884 0-.5367-.2442-.8686-.5028-1.0453l-1.1134-.8025c-.3951-.2859-.5962-.6566-.5962-.9346 0-.5718.4884-.7744.7829-.7744.1581 0 .2658.0646.352.0646l.4813.518.5028-.7579-1.0775-.2033c-.0718-.0187-.1221-.0281-.2586-.0281Zm-17.511.0015c-.4446 0-.9123.26-1.2341.6437-.2995.3606-.4992.944-.6062 1.5661h-.4992l-.2076.199.0237.0776h.6371c-.1006.6904-.1925 1.2888-.3383 2.2558-.2076 1.4353-.3843 1.9418-.5301 2.064-.0467.0459-.1221.0704-.1911.0704-.0927 0-.2385-.069-.3383-.115-.092-.046-.1681.0072-.2148.0532-.0611.0689-.13.176-.13.2608 0 .1537.199.2306.3297.2306.1458 0 .5143-.1222.8447-.5295.26-.3218.6142-1.0668.913-2.8018.0539-.3225.1149-.6444.2457-1.4885l.7829-.0776.1681-.199h-.9051c.2306-1.421.4224-1.8492.7521-1.8492.2306 0 .4217.0913.5905.2522.0538.0539.1386.0539.2147-.0086.0618-.0532.1545-.176.1545-.2831.0072-.1537-.2004-.3211-.4619-.3211Zm-55.194481.0266.471381.4712v3.5188c0 .8958.75704 1.5805 1.69056 1.5805.88704 0 1.76496-.6559 1.76496-1.5805v-3.5188l.46152-.4712H3.79009l.47136.4712v3.5188c0 .6286-.49844 1.1286-1.12653 1.1286-.63729 0-1.20095-.4914-1.20095-1.1286v-3.5188l.47136-.4712H.824219Zm5.653911 0 .46296.4712v4.508l-.46296.472h1.42241l-.46978-.472v-4.0841l2.92354 4.5561h.1882v-4.98l.4712-.4712H9.59145l.47125.4712v3.4642l-2.45667-3.9354h-1.1279Zm6.02397 0 .4338.4332v4.5827l-.4338.4353h1.4675l-.4332-.4353v-4.5827l.4332-.4332h-1.4675Zm2.6886 0 .4432.4332 1.5336 5.018h.2758l1.5803-5.018.4432-.4332h-1.3116l.4245.4253-1.1543 3.7687-1.1184-3.7687.4252-.4253h-1.5415Zm5.3478 0 .4253.4332v4.5827l-.4253.4353h3.2605v-.9993l-.5826.592h-1.6521v-2.291h1.229l.4332.4332V17.94l-.4332.4332h-1.229v-1.939h1.6521l.5826.5812v-.9878h-3.2605Zm4.6842 0 .4238.4332v4.5827l-.4238.4353h1.4596l-.4353-.4353v-2.1057h.8224l1.3217 2.541h.9044l-.4245-.4353-1.2197-2.2364c.6105-.1847 1.0257-.7565 1.0257-1.2745 0-.9231-.8591-1.505-1.7649-1.505h-1.6894Zm9.606 0 .4353.4332v4.5827l-.4353.4353h1.4704l-.4346-.4353v-4.5827l.4346-.4332h-1.4704Zm2.726 0v.9878l.5911-.5812h1.0251v4.6093l-.4245.4353h1.4588l-.4338-.4353v-4.6093h1.0358l.5804.5812v-.9878h-3.8329Zm4.6467 0 .4432.4332 1.3763 2.4849v2.0978l-.4331.4353h1.4675l-.4339-.4353v-2.0978l1.4043-2.4749.4519-.4432h-1.3483l.4252.4253-1.1464 2.0409-1.0882-2.0409.4238-.4253h-1.5423Zm17.3013 0 .4432.4332 1.5336 5.018h.2766l1.247-3.9462 1.211 3.9462h.2759l1.5817-5.018.4418-.4332h-1.3102l.4238.4253-1.1551 3.7687-1.1184-3.7687.4253-.4253h-1.5415l.4331.4332.1113.3606-1.0444 3.4002-1.1177-3.7687.4253-.4253h-1.5423Zm9.3324 0-1.7269 5.0065-.4432.4447h1.3117l-.4253-.4253.3973-1.1559h1.8015l.3785 1.1559-.4238.4253h1.5423l-.4339-.4447-1.7003-5.0065h-.2779Zm7.5609 0 .4238.4332v4.5827l-.4238.4353h1.4582l-.4382-.4353v-2.3011h2.2914v2.3011l-.4309.4353h1.4653l-.431-.4353v-4.5827l.431-.4332h-1.4653l.4309.4332v1.8764H77.416v-1.8764l.4382-.4332H76.396Zm5.8615 0 .4381.4332v4.5827l-.4381.4353H83.73l-.4382-.4353v-4.5827l.4382-.4332h-1.4725Zm2.9594 0 .4597.4712v4.508l-.4597.472h1.4223l-.4741-.472v-4.0841l2.8732 4.5576.2443-.0015v-4.98l.4669-.4712h-1.4223l.4741.4712v3.4642l-2.4566-3.9354h-1.1278Zm10.8465 0v.9878l.5962-.5827h1.02v4.6108l-.4238.4353h1.4582l-.431-.4353v-4.6108h1.0344l.5818.5827v-.9878h-3.8358Zm10.1206 0 .467.4712v4.508l-.467.472h1.423l-.467-.472v-4.0841l2.837 4.5561h.273v-4.98l.474-.4712h-1.422l.467.4712v3.4642l-2.457-3.9354h-1.128Zm-3.253.2945c1.099 0 1.479 1.3025 1.479 2.4304 0 1.1264-.38 2.4303-1.479 2.4303-1.092 0-1.473-1.3039-1.473-2.4303 0-1.1279.381-2.4304 1.473-2.4304Zm-76.6876.1121h.6651c.5819 0 1.0438.4978 1.0438 1.0891 0 .5639-.4713 1.0072-1.0438 1.0072h-.6651v-2.0963Zm42.6161.8024.7492 2.2551h-1.525l.7758-2.2551Zm-17.325.7903c-.1997 0-.5143.0919-.829.2766-.5293.3146-1.1054 1.028-1.1054 2.102 0 .5374.2521 1.1365.9668 1.1365.3369 0 .8225-.2219 1.1443-.5136.5064-.4605.8052-1.2522.8052-1.9354 0-.6372-.3376-1.0661-.9819-1.0661Zm-.2457.2838c.3836 0 .6063.2916.6063.8822.0151.9978-.5064 1.903-.829 2.0108-.0625.023-.1609.0531-.237.0531-.431 0-.6077-.459-.6077-1.0352 0-1.1358.5754-1.75.8139-1.8499.0682-.0309.1767-.061.2535-.061Z"/></g><defs><clipPath id="a"><path fill="#fff" d="M.117188 0h111.325v24H.117188z"/></clipPath></defs></svg>
